{"glyphs":{"0":{"ha":957,"x_min":0,"x_max":0,"o":"m 872 486 b 779 828 875 606 847 729 b 649 950 745 877 701 920 b 477 996 597 979 537 996 b 306 949 417 996 358 979 b 176 827 254 919 210 876 b 83 486 109 728 81 606 b 184 160 86 371 116 254 b 311 45 218 113 261 73 b 477 1 362 16 419 1 b 643 44 535 1 593 16 b 771 159 694 72 737 112 b 872 486 839 253 870 370 z m 473 935 b 548 918 499 935 525 929 b 607 869 571 906 592 889 b 638 798 622 848 632 823 b 645 721 643 773 644 747 l 653 262 b 647 187 653 237 653 211 b 611 122 641 163 628 140 b 547 83 593 104 571 91 b 473 74 523 75 498 73 b 404 91 449 76 425 81 b 347 133 382 101 362 115 b 315 196 331 151 320 173 b 308 267 309 219 308 243 l 308 724 b 314 799 308 749 309 774 b 343 868 319 824 328 848 b 400 917 358 889 377 906 b 473 935 422 929 448 934 z "},"1":{"ha":753,"x_min":0,"x_max":0,"o":"m 289 3 l 514 3 l 514 1004 l 230 885 l 229 835 b 278 787 251 826 268 808 b 289 718 288 766 289 741 z "},"2":{"ha":875,"x_min":0,"x_max":0,"o":"m 816 265 l 787 279 b 726 237 771 259 750 245 b 651 229 702 230 676 229 l 143 229 b 323 299 204 251 264 274 b 536 401 396 330 467 363 b 726 558 608 442 678 491 b 780 669 751 591 770 629 b 780 792 789 709 790 751 b 651 960 763 862 714 923 b 440 1008 588 996 513 1010 b 201 937 356 1005 272 982 b 109 852 165 915 133 886 b 68 734 85 817 69 776 b 100 637 68 699 78 664 b 190 592 122 610 156 592 b 266 624 219 592 247 604 b 294 702 286 645 296 674 b 254 776 292 731 278 759 b 172 795 231 794 201 801 b 245 894 186 834 212 869 b 360 936 278 919 319 933 b 462 915 395 937 431 930 b 540 847 493 899 521 876 b 573 748 559 817 571 783 b 556 646 576 713 570 678 b 461 519 536 597 501 555 b 285 392 407 471 345 432 b 67 228 209 341 135 287 l 67 28 l 704 30 z "},"3":{"ha":875,"x_min":0,"x_max":0,"o":"m 522 665 l 743 794 l 770 994 l 213 992 l 101 757 l 130 743 b 192 784 146 762 168 777 b 266 793 215 792 241 793 l 622 793 l 197 532 l 241 500 b 378 535 282 524 330 536 b 535 478 435 534 491 515 b 611 366 570 449 597 410 b 614 231 625 322 626 275 b 526 97 600 178 568 131 b 375 42 483 64 429 44 b 152 146 290 38 204 78 b 251 153 183 132 222 134 b 302 239 281 171 300 204 b 273 316 303 267 292 295 b 197 349 253 336 225 348 b 106 305 162 349 128 332 b 75 207 83 278 73 242 b 107 116 77 175 89 143 b 176 49 125 89 149 67 b 360 -6 230 13 295 -3 b 627 58 453 -11 547 11 b 797 269 707 105 773 180 b 792 450 813 328 812 392 b 686 597 772 508 734 560 b 522 665 639 634 582 657 z "},"4":{"ha":875,"x_min":0,"x_max":0,"o":"m 690 467 b 690 1007 690 647 690 827 b 574 1007 651 1007 613 1007 l 574 1007 l 29 424 l 30 311 l 465 311 l 465 14 l 690 14 b 690 311 690 113 690 212 l 801 311 l 855 509 l 827 524 b 731 474 800 500 767 483 b 690 467 718 471 704 468 z m 465 810 l 465 464 l 151 464 z "},"5":{"ha":819,"x_min":0,"x_max":0,"o":"m 765 1048 l 737 1062 b 681 1013 725 1040 705 1023 b 606 1003 658 1004 632 1003 l 267 1003 l 171 464 b 279 469 207 468 243 470 b 405 448 322 467 365 462 b 513 381 446 435 484 413 b 571 215 553 337 574 275 b 520 77 569 165 551 116 b 395 0 489 37 444 9 b 278 18 355 -7 314 -1 b 199 104 243 37 215 68 b 281 123 227 98 258 105 b 321 197 304 140 319 168 b 293 275 323 225 312 254 b 217 307 273 295 245 307 b 126 263 182 307 148 290 b 95 165 104 236 93 200 b 124 73 96 133 107 101 b 193 3 142 45 166 22 b 379 -48 247 -33 314 -49 b 632 50 471 -46 562 -10 b 754 290 701 111 748 198 b 670 530 760 377 728 466 b 529 626 631 572 582 604 b 363 666 476 648 419 660 b 251 669 325 670 288 671 l 276 802 l 650 802 z "},"6":{"ha":885,"x_min":0,"x_max":0,"o":"m 748 956 b 636 1013 717 985 677 1003 b 511 1024 595 1023 553 1026 b 274 941 427 1019 343 991 b 133 768 214 898 166 837 b 76 548 101 700 83 624 b 97 309 70 468 75 386 b 216 105 119 232 159 160 b 455 -2 281 42 367 5 b 724 87 551 -8 650 22 b 810 206 760 119 791 160 b 838 353 830 252 840 302 b 737 577 834 437 796 519 b 520 682 678 635 600 671 b 305 656 448 692 373 683 b 350 833 301 718 317 781 b 511 948 387 892 446 935 b 661 926 562 958 615 950 b 620 881 643 916 629 900 b 614 819 612 862 610 840 b 644 766 618 799 628 780 b 698 742 659 752 678 744 b 744 751 714 741 729 744 b 780 781 758 757 770 768 b 799 825 789 794 796 809 b 797 874 801 841 801 858 b 748 956 790 906 772 934 z m 678 321 b 631 153 677 262 664 202 b 568 95 614 129 593 109 b 486 77 543 81 514 75 b 415 102 461 79 437 88 b 362 157 394 116 376 135 b 313 303 333 199 319 251 b 333 481 306 363 310 426 b 383 555 344 509 361 535 b 459 595 404 575 431 590 b 555 582 491 602 525 597 b 628 516 584 568 609 544 b 678 321 666 460 679 390 z "},"7":{"ha":782,"x_min":0,"x_max":0,"o":"m 779 996 l 130 996 l 60 725 l 88 711 b 136 760 97 733 115 750 b 205 770 157 769 181 770 l 600 770 l 263 0 l 346 0 b 754 939 479 314 615 627 b 779 996 762 958 771 977 z "},"8":{"ha":918,"x_min":0,"x_max":0,"o":"m 647 318 b 601 162 648 263 633 206 b 539 109 584 140 563 121 b 460 92 514 96 487 90 b 385 117 433 94 407 102 b 329 174 362 131 344 151 b 293 329 301 220 289 275 b 337 463 295 377 309 424 b 387 511 350 482 368 499 b 453 535 407 524 430 532 b 461 535 456 535 459 535 b 473 535 465 535 469 535 b 475 535 474 535 475 535 b 532 522 495 535 514 530 b 596 472 557 511 579 493 b 647 318 630 429 646 373 z m 468 1020 b 255 970 394 1018 319 1006 b 171 897 222 952 193 927 b 132 793 149 867 135 831 b 159 676 129 753 139 711 b 242 590 179 641 208 612 b 308 559 263 577 285 567 b 155 462 251 539 197 507 b 84 276 110 412 81 344 b 123 151 86 232 100 189 b 217 61 147 114 180 84 b 467 0 292 16 380 -1 b 707 56 550 1 634 16 b 802 136 743 77 776 103 b 855 249 828 169 847 208 b 851 360 862 286 860 324 b 802 459 842 396 825 430 b 646 565 762 509 706 544 b 709 598 668 574 689 585 b 792 689 743 621 773 652 b 813 811 811 726 819 769 b 768 912 808 848 792 883 b 682 980 745 941 715 964 b 468 1020 616 1013 541 1022 z m 607 802 b 579 662 614 754 605 703 b 528 613 566 642 549 624 b 459 596 507 601 483 595 b 397 617 437 598 416 605 b 351 665 378 629 363 646 b 325 795 328 704 320 751 b 367 903 329 834 342 873 b 412 939 379 918 395 930 b 468 952 429 948 448 952 b 521 939 486 952 505 947 b 565 904 538 931 552 919 b 607 802 589 876 603 839 z "},"9":{"ha":875,"x_min":0,"x_max":0,"o":"m 280 13 b 520 30 359 -3 443 2 b 680 140 581 52 636 91 b 779 308 723 188 756 247 b 824 547 807 384 823 465 b 772 784 824 628 809 711 b 640 937 742 845 696 898 b 450 1005 584 976 518 1000 b 239 957 377 1010 302 994 b 96 795 176 920 125 863 b 116 490 54 698 62 581 b 325 327 161 411 238 352 b 589 355 412 303 509 313 b 564 240 587 316 578 277 b 508 145 551 206 532 173 b 418 82 483 117 452 95 b 257 91 366 62 306 65 b 297 134 274 100 289 116 b 303 193 305 152 308 173 b 273 243 299 212 288 230 b 218 265 257 256 238 264 b 172 256 202 266 187 263 b 137 227 158 250 146 240 b 117 155 121 207 115 180 b 147 85 119 129 130 105 b 207 38 163 65 184 49 b 280 13 230 26 255 19 z m 250 671 b 289 835 249 728 259 787 b 348 895 304 859 324 880 b 430 916 373 910 401 917 b 505 892 456 915 482 907 b 560 836 527 878 545 859 b 605 686 589 792 601 738 b 580 523 609 630 604 573 b 531 457 569 498 552 475 b 457 422 510 439 484 427 b 367 437 426 418 395 423 b 299 497 340 450 317 472 b 250 671 264 547 251 610 z "}," ":{"ha":349,"x_min":0,"x_max":0,"o":""},"!":{"ha":296,"x_min":0,"x_max":0,"o":"m 23 112 l 150 -15 l 275 110 l 148 237 z m 140 294 l 179 294 l 239 1065 l 212 1065 l 21 942 l 21 922 b 53 909 33 922 44 917 b 65 889 58 903 63 896 b 71 866 68 882 70 874 b 76 819 73 851 74 835 z "},"\"":{"ha":550,"x_min":0,"x_max":0,"o":"m 140 552 l 179 552 l 239 1065 l 212 1065 l 21 942 l 21 922 b 53 909 32 920 43 916 b 75 885 62 902 69 894 b 88 854 81 875 85 865 b 101 789 95 833 98 811 z m 432 552 l 471 552 l 530 1065 l 504 1065 l 313 942 l 313 922 b 345 909 324 920 335 916 b 367 885 354 902 361 894 b 380 854 373 875 377 865 b 393 789 387 833 390 811 z "},"#":{"ha":968,"x_min":0,"x_max":0,"o":"m 113 635 l 271 635 l 271 492 l 109 492 l 113 343 l 271 343 l 271 190 l 420 190 l 420 343 l 563 343 l 563 190 l 711 190 l 711 343 l 854 343 l 854 492 l 711 492 l 711 635 l 854 635 l 854 783 l 711 783 l 711 931 l 563 931 l 563 783 l 420 783 l 420 939 l 271 939 l 271 783 l 109 783 z m 563 492 l 420 492 l 420 635 l 563 635 z "},"$":{"ha":907,"x_min":0,"x_max":0,"o":"m 308 990 l 91 826 l 91 547 l 285 420 l 272 409 b 211 351 251 390 231 371 b 114 246 177 318 144 283 b 39 125 84 209 57 169 b 21 -42 18 72 11 14 l 65 -21 b 64 63 60 7 59 35 b 79 80 67 70 73 76 b 107 94 87 87 97 91 b 224 111 144 106 184 110 b 321 98 256 112 289 108 b 392 66 345 90 369 80 l 392 -77 l 431 -77 l 431 40 b 480 -5 448 27 465 11 l 503 9 l 503 -77 l 542 -77 l 542 34 l 861 235 l 861 583 b 758 653 829 610 794 633 b 655 698 725 671 690 686 b 784 827 701 738 747 779 b 882 1035 832 888 868 959 b 887 1093 886 1054 887 1073 l 887 1112 l 869 1112 l 869 1113 l 868 1113 l 848 1113 l 848 1113 l 848 1113 b 830 1056 846 1093 840 1073 b 736 980 811 1019 776 992 b 615 986 697 968 654 973 b 542 1017 590 995 566 1006 l 542 1119 l 503 1119 l 503 1032 b 460 1042 489 1036 475 1040 b 431 1043 450 1043 440 1043 l 431 1119 l 392 1119 l 392 1037 b 379 1033 387 1036 383 1034 b 308 990 353 1023 330 1007 z m 392 273 b 262 271 349 279 305 279 b 138 217 218 262 175 244 b 145 225 141 220 143 222 b 238 324 174 260 206 292 b 298 380 258 343 278 362 l 392 463 z m 392 855 l 392 568 l 273 650 l 273 894 l 299 907 b 392 855 328 887 359 869 z m 431 265 l 431 498 l 503 563 l 503 242 b 484 249 497 244 491 246 b 431 265 467 255 449 260 z m 431 839 b 454 831 438 836 446 833 b 503 818 470 825 486 821 l 503 615 l 431 550 z m 757 856 b 754 852 756 855 755 853 b 596 698 709 794 651 747 l 542 649 l 542 811 b 676 819 587 806 632 808 b 757 856 705 827 732 840 z m 542 224 l 542 553 l 679 486 l 679 167 l 652 154 b 542 224 618 181 581 205 z "},"%":{"ha":1396,"x_min":0,"x_max":0,"o":"m 668 754 b 593 922 663 815 638 875 b 408 1000 547 968 479 999 b 300 980 371 1001 333 994 b 212 921 266 966 236 946 b 138 743 164 872 140 807 b 208 557 137 676 160 609 b 296 494 232 531 262 509 b 408 472 331 479 370 471 b 520 497 447 472 486 481 b 607 564 555 514 584 537 b 668 754 653 618 673 687 z m 405 955 b 463 939 425 955 446 949 b 501 899 479 929 492 915 b 518 795 518 867 518 830 l 518 667 b 515 618 518 651 518 634 b 497 573 512 602 507 587 b 459 538 488 559 475 546 b 405 527 442 530 423 526 b 353 542 386 527 368 533 b 316 577 337 551 325 563 b 300 623 308 592 303 607 b 298 671 298 639 298 655 l 298 797 b 314 897 298 831 298 866 b 350 937 322 913 334 927 b 405 955 365 948 385 954 z m 915 1000 l 365 9 l 462 9 l 1008 1000 z m 1251 296 b 1176 463 1247 356 1222 417 b 992 542 1130 509 1062 540 b 883 521 954 542 917 535 b 796 462 849 507 820 487 b 722 284 748 413 723 348 b 791 98 720 218 743 150 b 880 35 815 72 845 50 b 992 13 914 20 953 12 b 1104 39 1031 13 1069 23 b 1190 105 1138 55 1167 78 b 1251 296 1236 160 1256 229 z m 988 496 b 1046 481 1009 497 1029 491 b 1084 440 1063 471 1075 456 b 1101 336 1101 408 1101 371 l 1101 208 b 1098 160 1101 192 1101 176 b 1081 114 1096 144 1090 128 b 1042 80 1071 100 1058 88 b 988 68 1026 71 1007 67 b 936 83 969 69 951 74 b 900 119 921 92 908 105 b 884 164 891 133 886 149 b 881 212 881 180 881 196 l 881 338 b 897 439 881 372 881 407 b 933 479 905 454 917 468 b 988 496 949 489 968 495 z "},"&":{"ha":1025,"x_min":0,"x_max":0,"o":"m 953 0 b 883 78 929 26 906 52 b 711 280 824 145 767 212 b 835 487 757 346 797 416 l 837 487 l 1029 676 l 1012 696 l 976 663 l 677 663 l 524 513 b 405 672 484 566 444 619 b 483 764 432 702 459 732 b 529 839 501 787 517 812 b 547 925 541 866 548 896 b 539 963 546 938 544 951 b 486 1033 530 991 511 1016 b 400 1054 461 1049 430 1056 b 284 1009 358 1051 320 1031 b 198 951 254 992 225 973 b 129 874 170 930 145 905 b 114 774 112 844 106 807 b 163 683 121 740 142 711 l 234 594 b 193 564 220 584 206 574 b 91 481 157 538 121 513 b 23 370 61 450 36 412 b 13 241 9 329 6 284 b 61 119 19 197 36 156 b 150 31 84 84 115 54 b 268 -11 186 9 226 -6 b 415 9 318 -17 368 -9 b 541 87 461 27 503 55 b 594 137 560 103 577 120 l 703 0 z m 374 715 b 292 829 346 753 319 791 b 274 858 285 839 279 848 b 265 891 269 869 266 880 b 272 925 265 903 267 914 b 293 951 276 935 284 944 b 329 966 303 959 316 964 b 368 962 342 968 356 966 b 424 908 393 953 413 932 b 430 816 437 880 438 847 b 388 732 422 786 407 757 b 374 715 383 726 379 720 z m 677 321 b 545 487 632 376 588 431 l 786 487 b 708 365 761 445 735 404 b 677 321 698 350 687 335 z m 281 535 l 551 192 b 514 168 539 183 527 175 b 381 131 473 146 428 131 b 252 174 335 131 288 145 b 195 246 227 193 207 218 b 180 336 183 274 177 305 b 251 496 185 395 216 448 b 281 535 261 509 271 522 z "},"'":{"ha":258,"x_min":0,"x_max":0,"o":"m 140 552 l 179 552 l 239 1065 l 212 1065 l 21 942 l 21 922 b 53 909 32 920 43 916 b 75 885 62 902 69 894 b 88 854 81 875 85 865 b 101 789 95 833 98 811 z "},"(":{"ha":443,"x_min":0,"x_max":0,"o":"m 157 540 b 250 155 154 407 184 271 b 420 -40 293 80 351 13 l 407 -63 b 123 172 292 -15 192 68 b 17 525 54 276 17 400 b 124 878 17 650 55 774 b 408 1112 193 982 293 1064 l 422 1089 b 252 894 353 1036 295 970 b 157 540 191 787 160 664 z "},")":{"ha":443,"x_min":0,"x_max":0,"o":"m 281 540 b 188 155 284 407 254 271 b 19 -40 146 80 88 13 l 32 -63 b 316 172 147 -15 247 68 b 422 525 385 276 422 400 b 315 878 422 650 384 774 b 30 1112 246 982 146 1064 l 17 1089 b 187 894 86 1036 144 970 b 281 540 248 787 279 664 z "},"*":{"ha":550,"x_min":0,"x_max":0,"o":"m 271 784 l 267 782 l 264 784 l 265 788 l 269 788 z m 286 778 l 527 826 l 523 839 l 434 911 l 425 908 b 424 890 426 902 425 896 b 416 876 422 885 419 880 b 403 865 412 872 408 868 b 374 849 394 859 384 854 l 280 800 l 309 1044 l 295 1044 l 200 983 l 200 973 b 216 966 205 972 211 970 b 227 954 220 963 224 959 b 233 939 230 950 232 944 b 240 907 237 929 238 918 l 257 802 l 33 905 l 29 892 l 58 782 l 68 779 b 79 792 70 784 74 789 b 94 799 83 795 89 798 b 110 801 99 800 105 801 b 143 797 121 800 132 798 l 248 781 l 81 600 l 92 592 l 206 585 l 212 593 b 203 608 208 598 204 603 b 201 625 201 613 200 619 b 204 641 201 630 202 635 b 218 671 208 651 213 661 l 266 765 l 386 551 l 397 559 l 438 665 l 432 673 b 416 669 427 670 421 669 b 400 672 410 669 405 670 b 385 680 394 674 390 677 b 361 703 376 687 369 695 z "},"+":{"ha":797,"x_min":0,"x_max":0,"o":"m 47 435 l 332 435 l 332 140 l 481 275 l 481 435 l 629 435 l 764 583 l 481 583 l 481 885 l 332 750 l 332 583 l 182 583 z "},",":{"ha":328,"x_min":0,"x_max":0,"o":"m 101 -213 b 231 -108 148 -183 192 -148 b 286 -34 252 -86 272 -61 b 312 55 301 -7 310 24 b 284 163 313 92 303 130 b 209 238 266 193 240 219 l 21 115 l 39 86 l 56 97 b 78 108 63 102 70 106 b 101 110 85 110 93 111 b 150 80 120 107 137 95 b 177 29 162 65 171 48 b 182 -85 189 -7 191 -47 b 92 -199 170 -133 137 -177 z "},"-":{"ha":686,"x_min":0,"x_max":0,"o":"m 666 648 l 646 668 l 614 635 l 191 635 l 21 445 l 41 425 l 74 458 l 497 458 z "},".":{"ha":307,"x_min":0,"x_max":0,"o":"m 28 112 l 155 -15 l 279 110 l 153 237 z "},"/":{"ha":579,"x_min":0,"x_max":0,"o":"m 600 1100 l 150 -60 l -9 -59 l 439 1100 z "},":":{"ha":307,"x_min":0,"x_max":0,"o":"m 28 584 l 155 457 l 279 582 l 153 709 z m 28 112 l 155 -15 l 279 110 l 153 237 z "},";":{"ha":356,"x_min":0,"x_max":0,"o":"m 28 501 l 155 374 l 279 499 l 153 625 z m 117 -213 b 246 -108 163 -183 207 -148 b 302 -34 267 -86 287 -61 b 327 55 316 -7 326 24 b 299 163 329 92 318 130 b 224 238 281 193 255 219 l 36 115 l 54 86 l 72 97 b 93 108 78 102 85 106 b 117 110 101 110 109 111 b 165 80 136 107 152 95 b 192 29 177 65 186 48 b 197 -85 204 -7 206 -47 b 108 -199 185 -133 152 -177 z "},"<":{"ha":590,"x_min":0,"x_max":0,"o":"m 120 537 l 120 526 l 544 306 l 434 97 l 406 111 l 430 162 l 35 376 b 62 531 52 426 62 479 b 35 686 62 584 52 637 l 430 901 l 406 952 l 434 966 l 544 757 z "},"=":{"ha":968,"x_min":0,"x_max":0,"o":"m 92 601 l 757 601 l 892 750 l 227 750 z m 92 310 l 757 310 l 892 458 l 227 458 z "},">":{"ha":590,"x_min":0,"x_max":0,"o":"m 458 537 l 458 526 l 35 306 l 144 97 l 172 111 l 149 162 l 544 376 b 517 531 526 426 517 479 b 544 686 517 584 526 637 l 149 901 l 172 952 l 144 966 l 35 757 z "},"?":{"ha":485,"x_min":0,"x_max":0,"o":"m 29 112 l 156 -15 l 281 110 l 154 237 z m 119 276 l 156 278 b 187 383 150 315 162 355 b 231 419 199 398 214 410 b 282 443 247 429 265 436 l 406 493 b 401 664 394 549 392 607 b 456 819 410 718 429 771 l 144 1033 l 168 1085 l 140 1099 l 31 890 l 371 669 l 92 539 z "},"@":{"ha":1193,"x_min":0,"x_max":0,"o":"m 931 194 l 871 155 l 804 221 l 804 583 l 863 630 l 838 660 l 786 618 l 662 677 b 445 611 586 672 511 649 b 330 510 401 585 361 551 b 266 372 298 470 275 422 b 272 233 257 326 259 278 b 343 114 286 189 310 147 b 491 35 383 74 435 46 l 638 141 l 744 35 l 937 168 z m 36 347 b 597 -211 36 39 287 -211 b 1158 347 906 -211 1158 39 b 597 906 1158 655 906 906 b 36 347 287 906 36 655 z m 64 347 b 597 878 64 640 302 878 b 1130 347 891 878 1130 640 b 597 -183 1130 54 891 -183 b 64 347 302 -183 64 54 z m 631 159 b 585 156 616 156 600 154 b 519 181 561 159 539 167 b 472 232 500 194 484 212 b 433 366 447 272 436 319 b 444 485 430 406 433 447 b 502 588 454 524 473 560 b 631 639 536 621 584 641 b 631 159 631 479 631 319 z "},"A":{"ha":1065,"x_min":0,"x_max":0,"o":"m 964 1047 l 934 1072 l 848 990 b 563 1065 765 1046 663 1073 b 299 930 462 1056 364 1008 b 230 796 266 891 242 845 b 230 645 218 747 217 694 b 304 511 242 595 268 548 b 394 447 329 484 360 463 l 241 194 b 182 155 220 183 201 169 b 61 -14 128 111 85 52 l 88 -14 b 328 90 149 51 238 90 b 547 9 407 91 487 61 l 703 144 b 792 54 730 111 760 82 b 869 -4 816 33 842 13 l 1054 144 l 1014 190 l 967 151 b 913 239 939 173 921 205 b 907 350 905 275 907 313 l 907 384 l 907 851 l 907 894 b 912 960 907 917 907 939 b 940 1020 917 982 927 1003 z m 707 889 b 728 875 714 885 721 880 l 728 519 l 484 519 z m 671 907 l 407 468 b 303 624 356 506 318 562 b 331 807 289 685 299 753 b 431 900 355 846 390 879 b 564 930 472 921 518 931 b 671 907 601 929 637 921 z m 398 376 l 728 376 l 728 247 l 644 176 b 372 238 565 229 466 251 b 304 221 349 234 326 229 z "},"B":{"ha":1188,"x_min":0,"x_max":0,"o":"m 93 430 l 120 430 b 121 460 118 440 119 450 b 150 500 125 476 136 491 b 174 508 158 504 166 507 b 200 510 183 510 191 510 b 242 510 214 510 228 510 b 242 416 242 479 242 447 b 239 306 242 379 243 342 b 201 204 234 270 224 233 b 157 166 189 189 174 175 l 170 132 b 380 268 252 153 331 199 b 414 341 395 290 407 315 b 421 422 420 368 421 395 l 421 564 l 421 767 b 429 825 421 787 422 807 b 445 850 433 834 439 843 b 467 870 452 857 459 864 l 672 1030 l 681 1061 b 629 1038 665 1052 648 1044 b 547 1028 603 1030 575 1027 b 455 1042 516 1029 485 1036 b 363 1054 425 1049 394 1054 b 251 1023 323 1053 285 1042 b 127 881 193 990 150 938 l 160 881 b 186 920 164 896 174 909 b 232 940 199 930 215 937 b 318 932 261 946 291 940 b 403 911 346 924 374 915 b 443 910 416 909 430 909 b 325 836 404 885 365 860 b 262 782 302 820 278 805 b 245 743 254 770 248 757 b 242 701 242 730 242 715 l 242 665 b 154 643 212 661 181 656 b 103 604 134 634 117 621 b 76 546 90 587 81 567 b 93 430 67 507 74 465 z m 687 -5 l 1151 235 l 1151 583 b 1048 653 1119 610 1084 633 b 961 692 1020 668 991 681 l 1134 813 l 909 1077 b 673 957 825 1049 745 1008 b 487 778 603 907 540 847 l 487 344 b 484 298 487 329 487 313 b 471 253 482 282 477 267 b 450 216 465 240 458 227 b 95 -44 302 184 171 86 l 129 -44 b 234 26 160 -15 195 9 b 370 61 277 46 323 57 b 687 -5 479 71 590 45 z m 766 175 l 766 218 l 969 320 l 969 167 l 855 114 b 766 175 828 138 798 158 z m 766 594 b 885 540 807 580 847 562 b 949 500 907 528 928 515 l 766 408 z m 727 193 b 709 200 721 196 715 198 b 520 226 649 221 584 230 b 565 265 535 239 550 252 b 648 362 597 294 628 324 b 668 423 658 381 665 402 b 672 487 672 444 672 465 l 672 565 l 672 850 b 696 917 674 874 682 897 b 727 951 704 930 715 942 b 727 193 727 699 727 446 z m 766 364 l 969 466 l 969 365 l 766 262 z m 766 959 l 951 742 l 766 604 b 766 959 766 722 766 841 z "},"C":{"ha":1039,"x_min":0,"x_max":0,"o":"m 508 1004 b 240 809 402 968 307 899 b 129 497 173 720 133 609 b 266 125 125 362 174 224 b 631 -24 359 26 495 -33 b 823 40 699 -19 766 3 b 957 190 880 77 927 129 b 994 333 979 235 992 284 l 967 333 b 851 198 940 279 900 232 b 694 135 804 165 750 143 b 694 882 694 384 694 633 b 715 870 701 878 708 874 b 864 800 763 844 813 820 l 1029 972 l 1017 985 l 974 949 b 881 985 942 959 911 971 b 739 1068 831 1008 783 1036 l 739 1068 l 739 1068 l 372 844 b 521 984 408 903 460 952 z m 337 346 b 313 422 327 371 319 396 b 302 610 299 484 297 547 b 338 777 306 667 318 724 l 413 822 b 413 378 413 674 413 526 z m 352 312 l 592 413 l 592 932 l 603 939 b 654 905 620 927 637 916 b 654 132 654 648 654 390 b 523 156 609 131 564 139 b 392 252 472 176 427 210 b 352 312 377 271 364 291 z "},"D":{"ha":1093,"x_min":0,"x_max":0,"o":"m 158 198 l 171 164 b 381 300 254 185 332 230 b 415 373 396 322 408 347 b 422 454 422 400 422 427 l 422 596 l 423 704 b 436 791 423 734 424 764 b 489 858 447 818 468 839 l 534 858 b 489 784 514 837 499 812 b 472 654 473 741 472 696 l 472 546 l 472 404 b 462 333 472 379 470 354 b 425 271 455 311 441 291 b 355 195 404 245 380 220 b 68 -44 233 157 127 69 l 108 -44 b 396 64 185 27 291 67 b 626 -13 478 62 559 35 l 973 178 b 1030 325 996 225 1015 274 b 1063 611 1057 418 1069 515 b 974 894 1058 711 1033 813 b 841 1003 941 942 895 980 b 670 1028 787 1025 728 1028 l 291 1028 b 258 1029 280 1028 269 1028 b 227 1039 247 1031 237 1034 b 202 1060 217 1044 209 1052 b 189 1090 196 1069 191 1079 l 159 1091 b 146 985 150 1057 145 1021 b 153 932 146 967 148 950 b 177 885 157 915 165 898 b 208 863 185 875 196 868 b 246 858 220 859 233 858 l 439 858 l 329 787 b 263 727 304 770 279 753 b 246 685 255 714 249 700 b 243 640 243 670 243 655 l 243 605 b 164 585 216 601 189 596 b 113 545 144 576 127 562 b 86 488 100 529 91 509 b 104 371 77 448 84 406 l 130 371 b 131 401 128 381 129 391 b 160 441 135 418 146 433 b 184 450 168 446 176 448 b 210 451 193 451 201 451 b 243 451 221 451 232 451 b 243 448 243 450 243 449 b 240 338 243 411 244 374 b 202 236 236 302 225 265 b 158 198 190 221 175 207 z m 623 200 l 623 382 l 876 510 b 860 338 876 452 870 395 b 798 115 848 262 827 187 b 623 200 746 155 686 184 z m 623 858 b 716 846 655 858 686 856 b 800 788 748 834 777 814 b 852 693 824 761 841 728 l 623 577 b 623 858 623 671 623 765 z m 583 209 b 424 211 531 218 477 219 b 455 247 435 222 446 234 b 499 320 473 268 489 292 b 511 404 509 348 511 377 l 511 546 l 511 654 b 526 771 511 695 513 735 b 583 851 537 802 557 830 b 583 209 583 637 583 423 z m 623 533 l 863 654 b 874 569 869 626 873 598 b 875 554 875 564 875 559 l 623 426 z "},"E":{"ha":1024,"x_min":0,"x_max":0,"o":"m 509 1004 b 238 811 402 970 306 901 b 130 497 171 721 132 610 b 270 129 128 362 178 227 b 632 -24 363 30 497 -29 b 831 37 702 -21 772 0 b 972 190 891 73 941 127 b 1009 333 994 235 1006 284 l 982 333 b 858 197 952 279 909 232 b 695 135 809 164 753 143 b 695 463 695 244 695 353 l 849 463 l 1019 639 l 695 639 b 695 882 695 720 695 801 b 716 870 702 878 709 874 b 864 800 764 844 813 820 l 1030 972 l 1018 985 l 974 949 b 881 985 943 959 912 971 b 739 1068 831 1008 784 1036 l 739 1068 l 739 1068 l 373 844 b 522 984 409 903 461 952 z m 337 346 b 314 422 327 370 319 396 b 303 610 300 484 297 547 b 339 777 307 667 318 724 l 414 822 b 414 378 414 674 414 526 z m 353 312 l 593 413 l 593 932 l 604 939 b 655 905 621 927 638 916 b 655 132 655 648 655 390 b 524 156 610 132 565 140 b 393 252 473 176 428 210 b 353 312 378 271 364 291 z "},"F":{"ha":943,"x_min":0,"x_max":0,"o":"m 86 534 b 83 502 84 523 83 513 b 104 420 83 473 90 445 l 130 420 b 131 455 128 431 128 444 b 160 497 135 472 145 488 b 184 507 167 502 175 505 b 210 508 192 508 201 508 b 275 508 231 508 253 508 b 275 409 275 475 275 442 b 275 327 275 382 275 354 b 272 242 275 298 274 270 b 227 98 268 191 255 140 b 127 60 191 94 156 82 b 74 -20 102 40 83 12 b 77 -115 65 -51 66 -85 b 142 -199 89 -149 112 -179 b 243 -228 172 -219 208 -229 l 243 -192 b 197 -166 225 -189 208 -180 b 183 -143 191 -160 186 -152 b 181 -116 180 -134 179 -125 b 187 -100 182 -110 184 -105 b 199 -87 190 -95 194 -90 b 215 -81 204 -84 210 -82 b 233 -79 221 -79 227 -79 l 315 -78 b 347 -75 326 -78 336 -77 b 377 -63 357 -73 367 -69 b 427 -24 396 -53 411 -38 b 490 35 449 -5 469 15 b 718 307 574 118 651 209 l 718 505 l 837 505 l 995 667 l 718 667 l 718 922 b 812 867 748 901 779 883 b 920 826 847 850 883 837 l 1090 994 l 1051 1023 l 1007 983 b 934 1011 982 991 958 1000 b 791 1089 884 1032 836 1058 l 522 851 l 522 149 b 516 108 522 135 521 121 b 491 76 512 95 503 84 b 377 90 453 80 415 85 b 271 101 342 95 306 100 b 283 109 275 103 279 106 b 402 178 321 134 365 150 b 443 226 419 191 434 207 b 454 289 452 246 454 268 l 454 552 l 454 749 b 477 881 454 794 458 840 b 526 950 488 907 505 930 b 595 1000 547 969 571 985 b 666 1046 619 1015 643 1030 l 668 1082 b 617 1058 652 1072 635 1064 b 545 1047 593 1051 569 1047 b 534 1047 541 1047 538 1047 b 433 1066 500 1049 467 1057 b 336 1082 401 1074 369 1082 b 332 1082 335 1082 333 1082 b 220 1049 293 1081 254 1069 b 96 900 164 1015 120 961 l 129 900 b 157 941 134 916 144 930 b 202 962 170 952 185 959 b 227 965 210 964 218 965 b 297 951 251 965 274 959 b 390 925 327 941 358 929 b 411 923 397 924 404 923 b 465 931 429 923 448 926 b 358 837 428 902 392 871 b 298 777 338 818 315 799 b 279 739 289 766 283 753 b 274 697 275 725 274 711 l 274 662 b 273 662 274 662 274 662 b 164 636 236 656 198 652 b 113 594 144 626 126 612 b 86 534 100 576 91 555 z "},"G":{"ha":1121,"x_min":0,"x_max":0,"o":"m 366 312 b 347 287 360 303 354 294 b 323 391 336 321 329 356 b 304 589 311 456 305 523 b 334 778 303 653 308 719 b 395 865 348 811 369 841 b 395 470 395 733 395 602 b 391 388 395 443 395 415 b 366 312 388 362 380 335 z m 900 280 b 843 115 899 221 879 162 b 697 23 807 69 754 35 b 688 21 694 22 691 22 b 688 191 688 78 688 135 l 900 298 b 900 280 900 292 900 286 z m 688 337 l 866 427 b 895 340 880 400 890 370 l 688 236 z m 688 382 b 688 587 688 450 688 518 b 828 486 742 566 791 531 b 846 461 834 478 840 470 z m 648 18 b 509 57 600 18 551 32 b 381 201 453 91 410 143 b 371 222 377 208 374 215 b 410 235 384 226 398 230 b 515 304 450 251 486 274 b 563 384 537 327 554 354 b 574 476 573 413 574 445 l 574 500 l 648 573 b 648 18 648 388 648 203 z m 574 943 b 584 944 578 944 581 944 b 587 945 585 945 586 945 b 697 872 622 919 659 895 b 826 805 739 848 782 825 l 574 556 l 574 668 z m 810 734 l 1041 962 l 1013 990 l 967 945 b 865 990 932 958 898 972 b 724 1081 815 1015 767 1046 l 588 973 b 240 790 455 958 327 892 b 112 468 163 701 116 586 b 195 175 108 365 137 261 b 437 -8 252 90 339 24 b 681 -26 515 -34 600 -40 b 905 72 762 -11 839 22 b 1061 290 977 127 1034 203 b 1029 577 1090 385 1080 492 b 810 734 982 656 901 715 z "},"H":{"ha":1083,"x_min":0,"x_max":0,"o":"m 477 1039 z m 360 817 z m 99 857 b 136 894 108 872 121 885 b 185 912 151 903 168 909 b 223 913 198 913 210 914 b 302 904 249 912 275 906 b 381 906 328 901 355 900 b 480 955 417 913 451 931 b 560 1035 509 979 534 1008 b 576 1053 565 1041 571 1047 l 549 1067 b 477 1039 527 1053 502 1044 b 397 1039 450 1035 423 1036 b 317 1047 370 1041 344 1046 b 244 1044 293 1049 268 1049 b 177 1016 220 1039 197 1030 b 107 944 149 998 126 972 b 73 870 93 921 81 896 z m 220 199 l 220 165 b 374 216 275 170 328 186 b 455 304 408 238 438 268 b 472 362 463 322 469 342 b 475 422 475 382 475 402 l 475 624 l 475 732 b 488 851 475 772 475 813 b 514 904 494 870 503 888 b 538 934 521 915 530 925 b 538 148 538 672 538 410 b 282 147 456 176 364 176 b 63 -48 187 114 107 42 l 105 -48 b 316 38 159 9 238 41 b 462 -12 368 35 419 18 l 600 120 b 578 132 593 124 586 128 b 578 476 578 247 578 361 l 768 476 l 768 168 l 697 113 l 712 92 l 746 118 l 881 -4 l 1065 151 l 1045 171 l 1001 135 l 962 179 l 962 931 l 1014 974 l 990 1004 l 949 971 l 844 1057 l 683 926 l 684 888 l 731 924 l 769 889 l 769 639 l 578 639 b 578 976 578 751 578 863 l 538 976 l 503 935 b 436 872 482 912 461 890 b 361 818 411 853 385 837 b 308 752 339 800 320 778 b 296 668 297 726 296 696 l 296 633 b 216 613 268 629 241 624 b 166 573 197 603 179 590 b 139 515 153 556 143 536 b 156 399 130 476 136 434 l 182 399 b 183 429 181 409 181 419 b 213 469 187 445 198 460 b 237 478 220 473 228 476 b 262 479 245 479 254 479 l 296 479 b 296 475 296 478 296 477 b 297 353 296 435 298 394 b 290 293 297 333 295 313 b 265 238 285 273 277 254 b 220 199 253 222 238 208 z "},"I":{"ha":854,"x_min":0,"x_max":0,"o":"m 156 534 b 153 502 154 523 153 513 b 174 420 153 473 160 445 l 200 420 b 201 455 198 431 198 444 b 230 497 205 472 215 488 b 254 507 237 502 245 505 b 280 508 262 508 271 508 b 331 508 297 508 314 508 b 331 409 331 475 331 442 b 327 337 331 385 331 361 b 305 268 324 313 317 289 b 244 208 291 243 270 222 l 290 208 b 413 262 333 221 375 238 b 489 339 444 281 472 306 b 506 390 498 355 503 372 b 510 445 509 408 510 427 l 510 552 l 510 749 b 533 881 510 794 514 840 b 583 948 544 907 562 930 b 651 1000 605 967 629 982 b 705 1059 672 1017 690 1037 l 707 1096 b 653 1062 692 1081 673 1070 b 567 1052 626 1052 596 1049 b 466 1073 532 1055 499 1065 b 363 1085 432 1082 398 1088 b 239 1033 318 1081 274 1061 b 131 885 191 994 155 942 l 164 885 b 206 930 172 904 187 921 b 261 940 223 938 242 941 b 348 928 291 940 319 933 b 436 921 377 924 407 920 b 528 936 467 921 498 927 b 417 849 491 907 454 877 b 351 785 392 830 367 811 b 334 743 343 772 337 758 b 331 697 331 727 331 712 l 331 660 b 234 636 297 655 264 650 b 183 594 214 626 196 612 b 156 534 169 576 161 555 z m 215 -117 l 215 -139 b 124 -102 182 -136 150 -123 b 69 -20 98 -81 78 -52 b 86 108 56 22 63 70 b 193 180 109 145 150 171 b 333 163 240 189 289 179 b 465 108 378 147 421 125 b 547 81 492 97 519 88 b 580 117 562 88 574 101 b 588 167 587 133 588 150 l 588 748 b 593 831 588 776 588 804 b 623 909 598 859 608 885 b 745 1021 652 956 699 990 l 826 1075 l 847 1052 b 794 986 823 1037 804 1013 b 783 901 784 959 783 930 l 783 325 b 676 175 752 272 716 222 b 492 4 622 111 560 54 b 459 -16 481 -3 471 -10 b 422 -26 447 -21 435 -24 b 346 -22 397 -29 371 -25 l 218 -5 b 192 -4 209 -4 201 -3 b 168 -13 183 -5 175 -8 b 151 -33 160 -18 155 -25 b 147 -58 148 -41 146 -50 b 170 -100 149 -75 157 -90 b 215 -117 183 -111 199 -117 z "},"J":{"ha":863,"x_min":0,"x_max":0,"o":"m 226 377 l 253 377 b 253 407 251 387 251 398 b 283 448 258 424 268 439 b 307 456 290 452 298 455 b 332 458 315 458 324 458 b 367 458 344 458 355 458 l 367 69 b 362 34 367 58 366 45 b 343 5 358 23 351 13 b 300 -19 331 -7 316 -15 l 300 -65 b 487 25 368 -50 436 -22 b 538 96 509 45 527 69 b 550 183 548 124 550 154 l 550 782 b 567 888 550 818 553 855 b 632 975 582 922 606 950 b 737 1061 665 1006 701 1034 l 706 1090 b 571 1041 668 1060 620 1043 b 444 1057 528 1039 486 1047 b 317 1079 402 1067 360 1078 b 179 1042 268 1081 219 1070 b 103 924 140 1015 111 971 b 125 804 96 883 104 840 b 219 726 146 768 180 740 l 225 738 b 186 769 209 743 195 755 b 178 818 178 784 175 801 b 214 873 181 840 195 860 b 277 896 232 886 255 893 b 436 887 330 902 383 889 b 532 894 468 886 501 888 b 400 776 485 859 436 823 b 373 725 388 761 379 744 b 367 668 367 707 367 687 l 367 612 b 286 591 339 608 311 603 b 236 552 267 582 249 568 b 209 494 223 535 213 515 b 226 377 200 455 206 412 z m 851 1046 b 803 916 828 1006 811 961 b 793 776 794 870 793 823 l 793 365 b 761 131 793 286 789 205 b 614 -52 732 57 680 -8 b 428 -125 558 -90 494 -114 b 188 -96 347 -139 261 -133 b 96 -17 151 -78 118 -51 b 67 100 73 17 61 59 b 105 180 70 130 84 159 b 187 215 127 201 156 214 b 263 184 215 215 243 204 b 294 109 283 165 294 137 b 281 62 293 93 289 76 b 247 26 272 47 261 35 b 152 21 219 9 182 7 b 286 -91 177 -34 228 -76 b 406 -91 325 -102 366 -101 b 512 -35 445 -81 481 -61 b 591 76 548 -6 576 33 b 610 212 607 119 610 166 l 610 662 b 616 794 610 706 609 751 b 662 916 622 838 637 880 b 805 1042 699 968 754 1004 b 834 1063 815 1049 824 1056 z "},"K":{"ha":1139,"x_min":0,"x_max":0,"o":"m 131 549 b 145 431 123 509 129 467 l 172 431 b 176 471 169 444 171 458 b 206 503 182 485 192 497 b 227 510 213 507 220 509 b 250 511 235 511 242 511 b 287 511 262 511 275 511 b 287 395 287 473 287 434 b 282 314 287 368 287 341 b 248 240 276 287 266 261 b 201 203 236 225 219 212 l 247 203 b 359 261 286 218 325 237 b 444 352 394 285 425 315 b 463 411 453 370 460 390 b 466 473 466 432 466 453 l 466 581 l 467 735 b 489 883 467 785 470 836 b 561 1000 505 926 530 965 b 604 1040 574 1014 588 1028 b 611 1046 606 1042 609 1044 l 613 1067 b 541 1036 592 1052 567 1041 b 481 1034 522 1032 501 1032 b 408 1054 456 1038 432 1046 b 334 1071 384 1062 359 1070 b 266 1058 311 1072 287 1067 b 209 1019 245 1048 226 1035 b 102 871 165 977 131 925 l 134 871 b 170 919 138 891 152 909 b 225 929 186 928 206 931 b 315 909 256 927 285 916 b 407 907 345 902 377 900 b 446 922 420 910 433 915 l 389 874 b 337 824 370 858 352 843 b 303 762 323 806 311 785 b 288 665 292 731 289 698 b 209 651 260 665 233 662 b 157 610 188 642 170 628 b 131 549 144 592 135 571 z m 715 892 b 845 850 754 867 799 852 l 562 521 l 567 759 b 583 875 568 799 571 839 b 641 975 595 911 615 945 b 729 1055 666 1005 696 1032 l 718 1071 l 707 1087 b 611 1000 672 1062 639 1033 b 546 887 583 967 560 929 b 528 759 532 845 529 801 l 521 430 b 517 377 521 411 520 393 b 502 329 514 360 509 344 b 435 250 487 299 462 273 b 356 192 410 229 383 210 b 171 54 284 163 219 115 b 116 -31 149 28 131 -1 l 158 -31 b 230 40 177 -3 201 22 b 337 76 263 60 300 72 b 450 69 375 81 413 78 b 619 -11 512 56 570 27 l 812 141 b 860 51 823 109 839 78 b 937 -10 881 26 907 5 l 1150 159 l 1150 201 l 1055 128 b 1004 187 1035 145 1018 165 b 964 288 985 218 973 252 b 938 393 955 323 948 358 b 889 506 927 433 911 471 b 804 594 866 540 837 570 b 705 644 774 616 740 633 l 885 852 b 962 875 912 855 938 863 b 1046 960 997 894 1028 924 b 1064 1078 1064 996 1071 1038 l 1045 1078 b 993 1015 1037 1052 1018 1028 b 894 1006 964 998 927 996 b 814 1057 863 1015 835 1033 l 642 853 l 662 833 z m 460 220 b 460 220 460 220 460 220 b 537 311 490 245 518 274 b 555 370 546 330 552 350 b 560 429 559 390 559 410 l 561 483 l 566 483 l 584 504 b 664 468 613 498 640 485 b 745 369 699 443 726 408 b 784 247 763 331 774 289 b 804 165 790 220 796 192 l 764 133 b 485 222 687 197 585 229 b 460 220 477 222 468 221 z "},"L":{"ha":999,"x_min":0,"x_max":0,"o":"m 82 520 b 96 402 74 480 80 438 l 123 402 b 127 442 120 415 122 429 b 157 474 133 456 143 467 b 178 481 163 478 171 480 b 201 482 186 482 193 482 b 242 482 215 482 229 482 b 242 395 242 453 242 424 b 242 292 242 361 243 326 b 217 193 240 258 234 223 b 156 133 203 168 182 147 l 202 133 b 324 187 246 141 289 159 b 404 296 360 215 388 253 b 422 431 419 339 422 386 l 422 538 l 422 735 b 446 882 422 785 426 836 b 483 935 454 902 467 920 b 505 954 490 941 498 947 b 541 980 517 962 529 971 b 608 1045 565 1000 588 1022 l 610 1082 b 557 1049 595 1068 577 1056 b 470 1038 529 1038 499 1035 b 387 1058 442 1042 414 1050 b 303 1071 359 1065 331 1072 b 236 1056 280 1070 257 1065 b 178 1019 215 1047 196 1034 b 71 871 132 979 97 926 l 103 871 b 146 916 111 891 127 907 b 201 926 163 924 182 927 b 288 913 230 926 259 918 b 376 907 317 908 346 905 b 413 913 388 908 401 910 b 381 891 402 905 392 898 b 325 855 363 879 343 868 b 276 809 307 842 290 827 b 248 749 263 791 253 771 b 242 683 243 728 242 705 l 242 636 b 160 622 214 636 186 633 b 108 581 139 613 121 599 b 82 520 95 563 86 542 z m 511 210 b 606 297 545 236 578 264 b 650 370 625 318 641 342 b 661 454 659 397 661 426 l 661 694 l 661 803 b 665 877 661 827 661 852 b 686 947 668 901 675 925 b 734 1003 698 969 715 988 b 799 1039 754 1018 776 1028 l 828 1053 l 828 1068 l 807 1064 b 610 991 738 1050 668 1031 b 521 894 574 966 542 933 b 486 778 501 859 491 818 b 482 655 481 737 482 696 l 482 526 l 482 448 b 480 338 482 411 483 375 b 453 233 477 302 470 265 b 425 194 445 219 436 206 b 282 130 374 181 326 159 b 127 -36 218 89 164 31 l 127 -62 b 462 54 224 9 342 50 b 780 -26 573 58 684 29 l 984 126 l 961 157 l 916 124 b 749 188 863 151 806 173 b 511 210 671 209 590 218 z "},"M":{"ha":1507,"x_min":0,"x_max":0,"o":"m 551 349 z m 878 206 z m 1124 133 z m 1124 133 z m 99 868 l 72 881 b 107 955 80 907 92 932 b 176 1028 125 983 148 1009 b 226 1050 192 1038 208 1046 b 280 1054 243 1055 262 1056 b 339 1038 300 1051 319 1045 b 397 1021 358 1032 377 1025 b 429 1015 408 1019 419 1017 b 469 1017 443 1013 456 1013 b 503 1039 482 1021 493 1030 b 518 1054 508 1044 513 1049 l 545 1041 b 529 1023 540 1035 534 1029 b 461 957 507 1000 485 977 b 379 910 436 936 409 919 b 319 902 359 904 339 901 b 260 913 299 903 279 907 b 211 927 244 918 228 923 b 161 926 194 930 177 930 b 126 907 148 922 136 915 b 99 868 114 896 104 883 z m 99 399 l 125 399 b 126 429 124 409 124 419 b 156 469 130 446 141 461 b 180 478 163 474 171 476 b 205 479 188 479 197 479 b 251 479 220 479 236 479 l 251 375 b 248 314 251 354 251 334 b 239 285 246 304 243 294 b 220 261 234 275 228 267 b 185 246 210 253 198 247 l 192 219 b 300 243 229 222 266 230 b 393 303 335 256 368 275 b 424 355 407 318 418 336 b 431 416 430 375 431 395 l 431 726 b 435 777 431 743 432 760 b 454 824 439 794 445 810 b 511 889 468 850 488 871 l 511 600 l 511 383 b 507 310 511 359 511 334 b 477 244 502 286 493 263 b 437 210 466 230 453 218 b 388 193 422 202 405 196 b 283 184 353 186 318 187 b 212 167 258 181 234 177 b 154 124 190 157 170 143 b 119 19 130 95 118 57 b 169 -101 119 -26 136 -70 b 285 -140 199 -130 243 -146 l 285 -107 b 252 -102 274 -107 262 -106 b 225 -84 242 -98 232 -92 b 212 -55 218 -76 213 -66 b 225 -18 211 -42 216 -28 b 260 3 234 -7 247 -1 b 323 12 280 9 302 10 b 387 21 345 13 366 16 b 499 80 429 30 468 50 b 541 141 517 97 532 118 b 551 216 550 165 552 191 l 551 349 l 551 402 b 614 424 569 415 591 423 b 698 394 644 426 675 415 b 698 179 698 322 698 251 l 611 120 l 625 100 l 671 133 l 831 0 l 1064 173 l 1044 193 l 1000 163 l 1000 402 b 1062 424 1018 415 1040 423 b 1144 396 1092 426 1122 415 l 1144 175 l 1064 120 l 1078 100 l 1124 133 l 1284 0 l 1496 173 l 1476 193 l 1398 140 l 1337 193 l 1337 839 l 1409 898 l 1385 928 l 1327 881 l 1151 1038 l 1000 947 l 1000 1025 l 960 1025 l 960 924 l 885 878 l 878 884 l 691 1038 l 413 862 b 296 761 369 834 326 803 b 259 681 279 737 266 710 b 252 635 255 666 253 651 b 159 613 220 631 188 626 b 109 573 140 604 122 590 b 82 516 96 557 86 537 b 99 399 73 476 79 434 z m 551 566 b 615 545 570 553 592 546 b 698 574 645 544 675 555 l 698 435 b 615 464 675 454 645 465 b 551 443 592 463 570 456 z m 551 607 l 551 886 l 698 785 b 698 615 698 729 698 672 b 614 585 675 594 644 583 b 551 607 591 586 569 594 z m 960 144 l 878 206 l 878 835 l 960 885 b 960 144 960 638 960 391 z m 1000 566 b 1064 545 1019 553 1041 546 b 1144 572 1093 544 1122 554 l 1144 437 b 1064 464 1122 455 1093 465 b 1000 443 1041 463 1019 456 z m 1000 607 l 1000 894 l 1144 779 l 1144 613 b 1062 585 1122 594 1092 583 b 1000 607 1040 586 1018 594 z "},"N":{"ha":963,"x_min":0,"x_max":0,"o":"m 811 586 z m 204 387 l 211 407 b 193 437 201 413 194 425 b 198 460 193 445 195 453 b 215 476 202 466 208 472 b 237 483 222 480 229 482 b 260 484 245 484 253 484 b 275 484 265 484 270 484 l 275 257 b 203 246 251 257 227 253 b 106 184 166 235 132 214 b 64 68 79 152 64 110 b 107 -48 64 26 80 -16 b 182 -99 127 -71 153 -88 b 272 -107 210 -109 242 -112 l 278 -81 b 230 -72 262 -83 245 -80 b 194 -38 215 -65 202 -53 b 186 -9 189 -29 186 -19 b 191 21 185 1 187 12 b 211 45 195 31 202 39 b 239 58 219 52 229 56 b 300 51 259 62 281 59 b 372 0 328 40 352 22 l 551 199 l 531 219 l 485 166 b 319 253 440 211 381 242 b 314 254 317 253 316 253 l 314 807 b 325 788 318 801 322 794 l 373 707 l 791 0 l 843 0 l 843 817 b 907 830 865 818 887 823 b 975 874 933 840 956 855 b 1019 958 998 897 1013 927 b 1004 1051 1024 990 1018 1023 l 985 1052 b 965 1007 983 1036 976 1020 b 924 982 954 995 940 986 b 871 983 907 978 888 978 b 824 1007 854 988 839 996 b 792 1038 812 1016 801 1027 l 765 1039 l 592 839 l 612 819 l 665 878 b 727 837 683 861 704 847 b 809 817 753 825 781 819 b 811 586 811 740 812 663 b 804 359 811 510 808 435 l 470 918 b 415 997 452 944 436 973 b 344 1045 397 1019 372 1036 b 234 1041 308 1057 269 1055 b 150 970 199 1027 169 1002 b 125 832 124 929 116 879 l 152 825 b 159 851 154 834 156 843 b 175 880 163 862 168 872 b 202 898 182 889 192 895 b 239 893 215 901 228 899 b 268 869 250 887 260 878 b 275 860 271 866 273 863 l 275 673 b 225 666 258 673 241 670 b 154 625 199 658 174 644 b 106 504 121 594 102 548 b 137 430 109 477 120 451 b 204 387 154 409 178 394 z "},"O":{"ha":1014,"x_min":0,"x_max":0,"o":"m 276 838 l 362 874 b 362 425 362 724 362 574 l 266 383 b 261 396 264 387 263 392 b 231 620 238 468 228 544 b 276 838 233 694 248 769 z m 300 890 b 303 895 301 892 302 893 b 457 1066 340 963 393 1022 l 436 1092 b 133 816 307 1040 198 940 b 60 466 77 709 53 586 b 177 128 68 345 106 225 b 326 -1 217 75 267 30 b 518 -38 384 -31 452 -44 b 676 13 573 -33 627 -14 b 808 116 725 41 768 77 b 964 333 871 179 926 252 b 1022 587 1002 412 1023 499 b 956 838 1021 674 999 761 b 702 1063 899 938 808 1019 z m 279 349 l 542 459 l 542 948 l 545 949 b 606 910 566 937 586 924 b 606 113 606 644 606 379 b 605 113 606 113 605 113 b 482 135 563 111 521 119 b 378 203 444 150 408 174 b 279 349 335 244 303 295 z m 646 118 b 646 383 646 207 646 295 l 876 499 b 839 267 887 420 877 337 b 742 159 816 224 783 186 b 646 118 713 139 680 126 z m 646 879 b 764 756 690 843 730 802 b 823 663 786 727 806 695 l 646 573 b 646 879 646 675 646 777 z m 646 529 l 840 627 b 868 540 852 599 861 570 l 646 428 z "},"P":{"ha":1006,"x_min":0,"x_max":0,"o":"m 99 482 b 105 405 94 456 96 429 l 137 405 b 137 410 137 406 137 408 b 151 448 137 423 141 438 b 169 461 156 454 162 458 b 190 466 176 464 183 466 b 235 467 205 468 235 467 b 259 467 243 467 251 467 l 259 208 b 63 19 177 165 107 99 l 94 19 b 259 120 139 67 196 102 l 259 -115 l 259 -155 l 454 -155 l 541 -155 l 541 -115 l 541 -115 l 541 81 b 595 41 560 70 578 56 l 960 238 l 960 888 b 882 978 936 920 911 950 b 787 1057 853 1007 821 1033 l 541 877 l 541 1024 l 501 1024 l 501 848 l 454 814 l 454 839 b 450 903 454 861 454 882 b 425 963 445 925 437 945 b 377 1006 412 981 396 995 b 315 1025 358 1016 337 1023 b 214 1008 281 1029 245 1023 b 135 941 182 994 154 970 b 107 852 118 915 108 883 l 140 852 b 153 885 142 863 147 875 b 193 917 162 900 176 912 b 219 917 201 919 210 919 b 241 904 227 915 235 910 b 257 872 249 896 254 884 b 259 836 259 860 259 848 l 259 606 b 188 593 235 607 210 603 b 129 548 165 583 145 568 b 99 482 114 529 103 506 z m 541 573 b 541 834 541 660 541 747 l 652 912 b 715 862 674 897 695 880 b 782 794 739 841 761 818 l 782 695 z m 541 529 l 782 651 l 782 549 l 541 428 z m 541 383 l 782 505 l 782 188 l 752 170 b 541 256 690 215 617 245 z m 501 806 b 501 260 501 624 501 442 b 454 260 486 261 470 261 l 454 773 z m 501 102 b 501 -115 501 30 501 -43 l 454 -115 l 454 119 b 501 102 470 115 486 109 z "},"Q":{"ha":1083,"x_min":0,"x_max":0,"o":"m 341 413 b 291 362 329 392 311 375 b 279 396 287 373 283 384 b 248 620 255 468 246 544 b 293 838 251 694 265 769 l 370 870 b 370 571 370 770 370 670 b 367 489 370 544 370 516 b 341 412 363 462 355 436 z m 318 890 b 321 895 319 892 320 893 b 474 1066 358 963 411 1022 l 454 1092 b 150 816 325 1040 216 940 b 78 466 94 709 70 586 b 195 128 85 345 123 225 b 343 -1 234 75 284 30 b 535 -38 402 -31 469 -44 b 693 13 591 -33 645 -14 b 743 45 711 23 727 34 b 767 14 751 35 759 25 b 867 -94 797 -24 829 -62 b 948 -148 892 -115 919 -133 l 1157 18 l 1128 48 l 1073 0 b 1013 37 1052 11 1032 23 b 883 180 961 75 916 124 b 982 333 922 227 956 278 b 1040 587 1019 412 1040 499 b 973 837 1039 674 1016 761 b 719 1062 917 938 826 1019 z m 312 316 b 386 336 337 320 362 327 b 491 405 425 352 461 375 b 539 485 512 428 529 455 b 549 577 548 514 549 546 l 549 668 l 550 944 l 562 949 b 624 910 583 937 604 924 b 624 113 624 644 624 379 b 623 113 623 113 623 113 b 500 135 581 111 539 119 b 396 203 461 150 426 174 b 312 316 362 236 334 274 z m 663 118 b 663 383 663 207 663 295 l 894 499 b 857 267 905 420 894 337 b 760 159 834 224 801 186 b 663 118 731 139 698 126 z m 663 879 b 782 756 707 843 747 802 b 840 663 804 727 824 695 l 663 573 b 663 879 663 675 663 777 z m 663 529 l 857 627 b 886 540 869 599 879 570 l 663 428 z "},"R":{"ha":1139,"x_min":0,"x_max":0,"o":"m 153 1012 b 125 923 136 985 126 954 l 158 923 b 169 961 159 936 162 949 b 211 991 178 976 193 988 b 237 989 219 992 229 992 b 259 975 245 986 253 981 b 275 943 267 966 272 955 b 277 907 277 931 277 919 l 277 651 b 190 637 247 651 217 649 b 138 596 169 628 151 614 b 112 535 125 578 116 557 b 126 417 104 495 110 454 l 153 417 b 157 457 150 430 152 444 b 187 489 162 471 173 483 b 208 496 193 493 201 495 b 231 497 216 497 223 497 b 277 497 246 497 262 497 l 277 177 b 116 50 215 148 159 104 b 61 -35 95 24 76 -5 l 103 -35 b 176 35 122 -7 147 17 b 283 72 208 56 245 68 b 396 65 320 77 359 74 b 565 -15 457 51 515 23 l 783 157 b 788 140 785 152 786 146 b 838 47 800 107 816 75 b 915 -14 859 22 886 1 l 1128 155 l 1128 197 l 1033 124 b 982 183 1013 141 996 161 b 942 283 963 214 951 248 b 916 389 933 318 926 354 b 867 502 905 429 889 467 b 782 590 844 536 815 566 b 736 617 767 601 752 610 l 963 812 l 743 1114 l 568 969 l 568 1085 l 528 1085 l 528 936 l 472 889 l 472 910 b 468 974 472 931 472 953 b 443 1034 463 996 455 1016 b 395 1077 430 1051 414 1066 b 333 1096 376 1087 355 1093 b 232 1079 299 1100 263 1094 b 153 1012 200 1064 172 1041 z m 472 219 l 472 842 l 528 890 b 528 212 528 664 528 438 b 472 219 510 216 491 218 z m 568 203 b 568 473 568 293 568 383 l 590 492 b 642 464 608 485 626 476 b 723 365 677 439 704 404 b 762 243 741 327 752 285 b 776 182 766 223 771 202 l 709 129 b 568 203 668 163 619 188 z m 568 925 l 610 962 l 787 711 l 568 522 b 568 925 568 656 568 790 z "},"S":{"ha":931,"x_min":0,"x_max":0,"o":"m 133 826 l 133 547 l 327 420 l 314 409 b 252 351 293 390 272 371 b 155 246 218 318 185 283 b 81 125 125 210 98 169 b 64 -3 66 84 59 40 b 110 -124 69 -46 85 -88 b 237 -225 142 -168 187 -203 b 396 -260 287 -248 342 -258 b 643 -197 482 -262 569 -241 b 803 -2 717 -153 777 -84 b 808 17 805 4 807 11 l 771 28 b 765 9 769 21 768 15 b 705 -75 754 -24 732 -53 b 612 -122 678 -97 645 -112 b 405 -150 545 -141 474 -146 b 263 -146 357 -153 310 -155 b 141 -80 217 -138 171 -117 b 103 11 119 -55 106 -22 b 104 61 101 28 101 44 b 121 80 108 68 114 75 b 148 94 129 87 139 91 b 265 111 186 106 226 110 b 362 98 298 112 331 108 b 522 -5 423 79 479 42 l 902 235 l 902 583 b 800 653 870 610 836 633 b 696 698 767 671 732 686 b 826 827 742 738 788 779 b 924 1035 874 888 910 959 b 928 1093 927 1054 928 1073 l 928 1112 l 910 1112 l 910 1113 l 909 1113 l 890 1113 l 890 1113 l 889 1113 b 872 1056 888 1093 882 1073 b 777 984 852 1020 816 995 b 657 986 738 973 696 976 b 513 1066 603 1000 554 1029 z m 601 215 b 526 249 577 228 552 239 b 304 271 455 274 378 285 b 184 220 261 262 220 245 b 188 224 185 222 186 223 b 280 324 216 259 248 292 b 340 380 299 343 319 362 l 551 569 l 601 545 z m 640 193 l 640 526 l 720 486 l 720 167 l 694 154 b 640 193 677 168 659 181 z m 391 876 l 391 597 l 314 650 l 314 894 l 341 907 b 391 876 357 896 374 885 z m 430 856 b 495 831 451 846 473 838 b 718 819 567 808 645 800 b 799 856 747 827 774 840 b 796 852 798 855 797 853 b 638 698 750 794 693 747 l 467 545 l 430 570 z "},"T":{"ha":1028,"x_min":0,"x_max":0,"o":"m 257 732 l 270 752 b 240 785 256 758 245 770 b 240 829 234 799 235 815 b 264 859 245 841 253 851 b 299 875 274 867 286 872 b 376 873 324 881 350 878 b 562 827 438 860 500 842 b 746 786 624 813 684 796 b 765 784 752 785 759 784 l 765 613 l 674 522 l 765 430 l 765 195 b 650 160 729 177 690 165 b 456 197 584 152 515 164 b 391 247 432 211 410 227 l 635 350 l 635 771 l 330 641 b 470 805 360 707 409 765 l 456 825 b 246 718 377 812 303 774 b 136 509 189 662 150 588 b 241 151 112 382 154 246 b 588 5 329 55 459 1 b 790 64 659 8 729 28 b 934 215 850 100 901 153 b 976 399 963 271 978 336 l 949 399 b 832 239 925 337 884 281 b 804 218 823 231 814 224 l 804 429 l 897 522 l 804 614 l 804 781 b 840 784 816 781 828 782 b 928 815 871 787 902 797 b 989 899 957 835 980 865 b 977 1002 998 934 994 971 b 908 1070 962 1031 937 1054 b 814 1098 879 1086 847 1094 b 762 1098 797 1099 780 1100 l 762 1072 b 807 1064 778 1070 793 1067 b 849 1047 822 1061 837 1056 b 864 1029 855 1042 861 1036 b 868 1007 867 1022 869 1015 b 861 987 868 1000 865 993 b 845 974 857 982 851 977 b 804 966 833 967 818 965 b 681 989 762 968 722 980 b 527 1037 628 1001 578 1020 b 422 1063 493 1048 458 1058 b 314 1057 386 1067 349 1066 b 227 1013 283 1049 252 1034 b 171 934 202 992 182 965 b 174 816 158 896 159 853 b 257 732 190 779 220 748 z m 311 594 l 456 654 l 456 315 l 365 276 b 312 374 342 305 324 338 b 311 594 288 444 289 522 z "},"U":{"ha":1161,"x_min":0,"x_max":0,"o":"m 63 865 l 95 865 b 122 908 100 881 109 896 b 168 931 135 920 151 928 b 254 923 197 938 226 932 b 338 899 282 915 309 903 b 429 908 369 894 401 896 b 221 708 342 864 268 793 b 164 408 171 618 150 511 b 324 107 179 293 237 184 b 642 -16 410 30 526 -15 l 857 131 l 1013 0 l 1197 151 l 1177 171 l 1133 135 l 1066 193 l 1066 923 l 1127 972 l 1103 1002 l 1047 957 l 926 1057 l 737 935 l 737 1062 l 708 1061 b 555 940 655 1023 602 985 b 485 846 526 913 500 882 b 466 731 469 810 466 770 l 466 610 l 466 392 l 390 359 b 351 517 368 409 356 463 b 390 774 344 604 358 693 b 603 1034 433 879 508 972 l 571 1067 b 557 1056 566 1063 561 1059 b 497 1019 538 1041 519 1027 b 446 1011 480 1013 463 1010 b 396 1024 429 1013 412 1017 b 348 1044 380 1030 364 1038 b 299 1058 332 1051 316 1056 b 239 1052 279 1061 258 1059 b 187 1024 220 1046 203 1036 b 63 865 133 982 95 924 z m 697 1009 b 697 130 697 716 697 423 b 540 181 642 134 587 151 b 406 326 483 216 437 267 l 645 426 l 645 790 l 645 851 b 660 957 645 887 647 924 b 697 1009 669 977 681 995 z m 737 593 b 737 895 737 693 737 794 l 796 932 l 873 848 l 873 661 z m 737 548 l 873 617 l 873 516 l 737 447 z m 737 402 l 873 471 l 873 208 l 758 132 b 737 130 751 131 744 130 b 737 402 737 221 737 312 z "},"V":{"ha":1029,"x_min":0,"x_max":0,"o":"m 935 910 z m 145 1013 b 123 924 129 986 121 955 l 156 924 b 169 957 158 936 162 947 b 213 988 179 973 195 985 b 241 986 222 990 232 989 b 264 971 250 983 258 978 b 280 939 272 962 277 951 b 282 903 282 927 282 915 l 282 662 b 218 656 261 665 238 663 b 149 603 191 646 167 627 b 115 525 132 580 121 553 b 117 439 110 496 111 467 l 149 439 b 149 444 149 440 149 442 b 153 469 149 452 150 461 b 165 491 155 477 159 485 b 183 504 170 497 177 501 b 205 509 190 507 198 508 b 250 510 220 511 250 510 b 282 510 261 510 271 510 l 282 214 b 80 18 194 177 119 106 l 106 18 b 318 90 166 64 242 90 b 570 -18 412 90 505 50 l 1015 321 l 989 364 l 935 322 l 935 936 l 935 936 l 1017 1003 l 993 1033 l 933 985 l 798 1112 l 575 923 l 575 1081 l 535 1081 l 535 889 l 477 839 l 477 906 b 472 970 477 927 477 949 b 447 1028 468 991 460 1011 b 399 1071 434 1046 418 1060 b 338 1092 380 1081 359 1088 b 230 1081 302 1098 264 1094 b 145 1013 195 1067 165 1044 z m 575 611 b 575 868 575 697 575 783 l 686 961 l 762 886 l 762 706 z m 575 567 l 762 661 l 762 560 l 575 466 z m 575 421 l 762 515 l 762 186 l 694 133 b 575 212 660 166 619 193 b 575 421 575 282 575 351 z m 535 226 b 477 239 516 232 497 236 l 477 786 l 535 835 b 535 226 535 632 535 429 z "},"W":{"ha":1425,"x_min":0,"x_max":0,"o":"m 109 418 l 135 418 b 136 448 134 428 134 438 b 166 488 140 465 151 480 b 189 497 173 493 181 496 b 215 499 198 498 206 499 b 270 499 233 499 252 499 b 270 215 270 404 270 309 b 68 18 181 178 106 106 l 94 18 b 306 90 153 66 230 92 b 531 -10 390 88 473 51 l 717 143 l 956 -20 l 1330 261 l 1330 961 l 1194 1089 l 1004 947 l 1004 1071 l 964 1071 b 964 201 964 781 964 491 l 891 250 l 891 961 l 755 1090 l 566 949 l 566 1071 l 527 1071 b 527 224 527 788 527 506 b 463 238 506 230 485 235 l 463 708 l 463 787 b 463 880 463 818 464 849 b 448 971 462 911 459 942 b 392 1046 437 1000 417 1027 b 305 1082 367 1065 336 1077 b 187 1068 265 1088 224 1084 b 101 987 150 1053 118 1024 b 88 915 91 965 86 940 l 123 915 b 149 960 127 932 136 949 b 197 980 162 972 179 980 b 229 975 208 981 219 979 b 255 954 239 970 248 963 b 268 923 262 945 266 934 b 270 890 270 913 270 901 l 270 718 b 270 656 270 697 270 676 b 169 632 236 651 201 647 b 119 593 150 623 132 609 b 91 535 105 576 96 556 b 109 418 83 496 89 453 z m 566 208 b 566 425 566 280 566 352 l 712 498 l 712 252 l 622 176 b 566 208 605 189 586 199 z m 566 615 b 566 910 566 713 566 812 l 622 952 l 712 877 l 712 689 z m 566 570 l 712 644 l 712 543 l 566 469 z m 1004 615 l 1004 908 l 1061 951 l 1151 876 l 1151 689 z m 1004 570 l 1151 645 l 1151 544 l 1004 469 z m 1004 425 l 1151 499 l 1151 189 l 1069 130 l 989 184 l 1004 184 z "},"X":{"ha":1022,"x_min":0,"x_max":0,"o":"m 565 149 b 327 244 495 199 413 235 b 319 245 325 245 322 245 l 505 494 l 774 -12 l 994 129 l 982 149 l 931 118 b 693 518 830 237 756 376 l 789 518 l 924 667 l 634 667 l 754 828 b 771 828 760 828 765 827 b 917 893 826 828 880 852 b 970 1059 958 937 977 999 l 951 1059 b 865 1001 933 1028 901 1006 b 766 1025 831 995 794 1005 b 734 1057 754 1034 743 1045 l 706 1057 l 522 901 b 488 956 512 920 501 939 b 389 1037 462 991 428 1020 b 285 1057 356 1052 320 1059 b 183 1026 249 1055 214 1044 b 67 858 122 991 79 928 l 149 858 b 175 915 152 879 161 900 b 198 933 182 922 189 928 b 225 939 206 937 216 939 b 264 924 239 939 253 933 b 291 891 275 915 283 903 b 358 771 315 852 337 811 l 414 667 l 259 667 l 124 518 l 473 518 l 270 246 b 212 236 250 244 231 241 b 115 175 175 225 140 205 b 71 60 87 144 71 102 b 116 -56 71 17 88 -24 b 190 -106 136 -79 162 -96 b 280 -115 219 -117 250 -120 l 286 -89 b 238 -82 270 -92 252 -89 b 203 -47 223 -74 210 -62 b 199 13 193 -28 192 -6 b 220 43 204 25 211 35 b 253 61 230 51 241 57 b 326 60 277 68 302 66 b 453 -17 374 47 417 17 l 632 182 l 612 202 z m 710 835 l 611 703 l 549 843 b 535 874 545 853 540 864 l 579 908 b 672 848 606 883 637 862 b 710 835 684 843 697 838 z "},"Y":{"ha":992,"x_min":0,"x_max":0,"o":"m 170 322 l 177 341 b 159 372 167 347 160 359 b 165 394 159 379 161 387 b 181 410 169 401 175 406 b 203 418 188 414 196 416 b 227 419 211 419 219 419 b 250 419 235 419 243 419 l 250 96 b 231 88 244 94 238 91 b 135 -9 190 66 155 33 b 125 -144 115 -51 110 -100 b 173 -220 134 -173 151 -200 b 252 -264 196 -241 223 -255 b 402 -267 301 -278 352 -274 b 551 -240 452 -259 502 -248 b 702 -214 602 -231 651 -219 b 762 -221 722 -212 744 -213 b 786 -239 771 -225 780 -231 b 797 -267 792 -247 796 -257 b 790 -300 798 -279 796 -290 b 765 -322 784 -309 775 -317 b 751 -327 760 -324 756 -326 l 757 -353 b 809 -337 775 -350 792 -345 b 903 -254 848 -320 883 -292 b 921 -193 914 -235 920 -214 b 909 -131 922 -172 918 -150 b 868 -80 899 -111 885 -93 b 810 -50 851 -66 831 -56 b 680 -40 768 -37 723 -37 b 504 -67 620 -45 562 -54 b 330 -105 446 -80 389 -101 b 249 -87 302 -106 273 -102 b 221 -56 238 -79 228 -69 b 213 -16 215 -44 212 -30 b 229 26 214 -1 220 14 b 264 54 238 38 250 47 b 367 73 295 71 331 74 b 472 60 402 72 437 66 b 680 17 541 47 610 28 b 768 14 709 13 739 11 b 850 45 797 18 826 28 b 901 116 874 63 892 88 b 912 204 911 144 912 175 l 911 865 l 981 922 l 957 952 l 905 910 l 764 1032 l 575 879 l 575 1019 l 536 1019 b 536 79 536 705 536 392 b 523 82 531 80 527 81 b 445 101 497 88 471 95 l 445 839 b 441 903 445 861 445 882 b 416 963 437 925 429 945 b 368 1006 404 981 387 995 b 307 1025 349 1016 328 1023 b 205 1008 272 1029 236 1023 b 127 941 173 994 146 970 b 98 852 110 915 100 883 l 132 852 b 144 885 134 863 138 875 b 184 917 153 900 167 912 b 210 917 192 919 201 919 b 232 904 218 915 226 910 b 248 872 241 896 246 884 b 250 836 250 860 250 848 l 250 606 b 192 600 231 608 211 606 b 120 559 165 593 140 578 b 73 438 88 528 69 483 b 103 364 75 411 86 385 b 170 322 120 344 144 328 z m 575 75 b 575 402 575 184 575 293 b 638 424 594 415 615 422 b 717 397 666 425 695 415 l 717 275 b 704 162 717 237 717 198 b 675 114 698 145 688 128 b 627 83 661 100 645 90 b 575 75 611 77 593 75 z m 575 830 l 642 883 l 717 825 b 717 610 717 754 717 682 b 638 584 695 592 666 583 b 575 606 615 585 594 593 b 575 830 575 681 575 755 z m 575 565 b 639 544 594 553 616 545 b 717 570 667 543 695 553 l 717 438 b 639 464 695 455 667 465 b 575 442 616 463 594 455 z "},"Z":{"ha":932,"x_min":0,"x_max":0,"o":"m 571 261 b 238 228 459 271 345 259 l 280 280 b 428 458 329 340 378 400 l 647 458 l 765 635 l 586 635 b 880 1033 699 756 809 884 l 856 1061 b 674 1003 799 1032 737 1012 b 317 1037 555 986 433 1005 b 204 1073 279 1047 241 1059 l 64 815 l 91 801 l 142 877 b 469 806 246 835 357 811 b 718 823 552 801 636 807 l 647 744 b 546 635 614 708 580 671 l 341 635 l 225 458 l 385 458 b 111 86 282 342 186 221 b 73 13 97 62 85 38 l 86 0 b 196 51 120 21 157 39 b 412 77 265 74 339 81 b 627 39 485 73 556 59 b 749 -2 668 27 709 13 l 921 219 l 901 233 l 861 186 b 571 261 769 227 671 252 z "},"[":{"ha":404,"x_min":0,"x_max":0,"o":"m 32 1114 l 32 1074 l 32 40 l 32 0 l 377 0 l 377 40 b 211 40 322 40 266 40 l 211 1074 b 377 1074 266 1074 322 1074 l 377 1114 z "},"\\":{"ha":579,"x_min":0,"x_max":0,"o":"m -9 1100 l 441 -60 l 600 -59 l 152 1100 z "},"]":{"ha":404,"x_min":0,"x_max":0,"o":"m 377 1114 l 377 1074 l 377 40 l 377 0 l 32 0 l 32 40 b 198 40 87 40 143 40 l 198 1074 b 32 1074 143 1074 87 1074 l 32 1114 z "},"^":{"ha":783,"x_min":0,"x_max":0,"o":"m 57 631 l 60 703 l 429 1077 l 439 1069 l 441 1067 l 755 778 l 662 631 l 651 639 l 345 922 z "},"_":{"ha":1107,"x_min":0,"x_max":0,"o":"m 15 -149 l 950 -150 l 1085 -1 l 150 0 z "},"`":{"ha":389,"x_min":0,"x_max":0,"o":"m 88 954 l 160 1009 l 279 765 l 267 756 z "},"a":{"ha":656,"x_min":0,"x_max":0,"o":"m 665 153 l 605 113 l 538 179 l 538 530 l 611 588 l 586 619 l 530 573 l 325 705 l 172 626 b 126 596 156 617 140 608 b 95 556 113 585 102 571 b 86 506 88 540 85 523 b 103 454 87 487 93 469 b 184 388 122 424 152 403 b 205 379 191 385 198 382 b 114 318 172 362 141 342 b 63 258 94 300 76 281 b 39 184 49 236 40 210 b 77 73 36 144 52 104 b 226 -7 114 28 169 0 l 372 100 l 478 -7 l 671 126 z m 365 369 b 291 389 340 375 315 382 b 213 418 264 397 238 407 b 146 467 188 430 164 445 b 126 519 134 481 126 500 b 136 558 125 533 129 546 b 163 589 143 570 152 581 b 192 606 172 596 182 601 l 365 499 b 365 369 365 456 365 412 z m 365 329 b 365 117 365 258 365 188 b 319 114 350 112 334 112 b 266 141 299 118 281 128 b 230 188 251 154 239 171 b 207 312 210 226 201 270 b 229 370 211 332 218 352 b 283 353 247 364 265 358 b 365 329 311 345 338 337 z "},"b":{"ha":636,"x_min":0,"x_max":0,"o":"m 600 177 l 287 0 l 77 126 l 24 93 l 4 120 l 97 179 l 97 812 b 96 833 97 819 97 826 b 87 852 94 839 91 846 b 63 872 81 860 72 867 b 31 885 52 878 42 882 l 31 905 l 257 1065 l 284 1065 l 284 607 l 459 722 l 600 589 z m 284 562 l 284 200 l 429 115 l 429 515 l 346 602 z "},"c":{"ha":544,"x_min":0,"x_max":0,"o":"m 341 171 b 430 146 368 155 399 147 l 510 204 l 528 179 l 323 0 l 304 0 l 94 143 l 94 558 l 381 718 l 528 600 l 396 500 l 273 603 l 273 242 b 341 171 289 212 313 188 z "},"d":{"ha":682,"x_min":0,"x_max":0,"o":"m 275 661 l 422 527 l 422 109 l 275 212 z m 265 670 l 96 566 l 96 139 l 296 1 l 600 181 l 601 575 l 661 623 l 636 653 l 585 612 l 106 1033 l 106 784 l 134 789 z "},"e":{"ha":599,"x_min":0,"x_max":0,"o":"m 38 90 l 100 139 l 306 -14 l 592 219 l 572 253 l 419 133 l 252 246 l 252 306 l 552 492 l 552 499 l 412 712 l 79 539 l 79 173 l 14 120 z m 252 340 l 252 591 l 279 606 l 399 432 z "},"f":{"ha":472,"x_min":0,"x_max":0,"o":"m 114 179 l 114 179 l 21 120 l 41 93 l 94 126 l 241 0 l 432 99 l 412 125 l 366 100 l 287 166 l 287 624 l 400 624 l 466 700 l 287 700 l 287 860 l 287 942 l 438 847 l 609 943 l 424 1058 l 114 883 l 114 704 l 47 633 l 47 613 b 79 607 58 613 70 611 b 104 586 89 602 98 595 b 112 567 108 580 111 574 b 114 548 114 561 114 554 l 114 179 z "},"g":{"ha":678,"x_min":0,"x_max":0,"o":"m 395 127 l 236 226 l 236 592 l 396 485 l 395 142 b 395 127 395 137 395 132 z m 398 88 b 398 86 398 88 398 87 b 415 33 401 68 407 50 b 441 -25 423 13 434 -5 b 447 -55 444 -35 447 -45 b 441 -86 447 -66 446 -76 b 423 -109 437 -95 431 -103 b 396 -120 415 -115 406 -119 b 216 -47 350 -72 283 -45 b 87 -91 170 -49 124 -64 b 3 -200 49 -118 20 -157 l 23 -213 b 163 -182 62 -184 115 -172 b 270 -255 206 -191 246 -218 l 527 -74 b 562 -51 538 -66 550 -58 b 597 -29 574 -45 587 -38 b 620 8 608 -19 616 -6 b 619 49 623 21 623 35 b 602 86 616 62 609 74 b 586 138 594 103 589 120 b 582 193 583 156 582 175 b 582 546 582 310 582 428 l 649 600 l 624 630 l 565 582 l 383 719 l 70 539 l 70 140 l 270 0 z "},"h":{"ha":733,"x_min":0,"x_max":0,"o":"m 317 166 l 317 508 l 394 581 l 477 512 l 477 179 b 458 12 477 123 476 65 b 405 -77 447 -21 430 -52 b 324 -120 382 -98 354 -114 l 324 -153 b 490 -130 380 -162 438 -154 b 610 -26 539 -108 582 -71 b 650 80 630 7 643 43 b 657 193 656 117 657 155 l 657 555 l 716 603 l 692 634 l 637 589 l 490 712 l 317 550 l 317 1065 l 290 1065 l 64 905 l 64 885 b 96 872 75 882 86 878 b 121 852 106 867 115 860 b 129 833 125 846 128 839 b 131 812 131 826 131 819 l 131 179 l 37 120 l 61 88 l 114 121 l 257 0 l 430 120 l 405 151 l 362 121 z "},"i":{"ha":433,"x_min":0,"x_max":0,"o":"m 433 159 l 373 120 l 326 166 l 326 586 l 220 712 l 33 586 l 53 559 l 106 592 l 153 532 l 153 166 l 67 106 l 86 80 l 133 113 l 266 -7 l 466 133 z m 109 899 l 227 765 l 360 881 l 241 1016 z "},"j":{"ha":356,"x_min":0,"x_max":0,"o":"m 268 166 l 268 566 l 326 613 l 301 643 l 253 603 l 161 712 l -25 586 l -5 559 l 48 592 l 95 532 l 95 166 l 95 57 b 94 -81 95 11 98 -35 b 77 -148 92 -104 87 -127 b 30 -198 66 -169 50 -187 b -13 -210 17 -205 2 -209 l -13 -249 b 117 -221 32 -250 77 -241 b 219 -135 158 -202 193 -172 b 255 -53 236 -110 248 -82 b 265 36 262 -24 264 6 z m 50 899 l 169 765 l 301 881 l 183 1016 z "},"k":{"ha":774,"x_min":0,"x_max":0,"o":"m 300 166 l 300 1065 l 274 1065 l 47 905 l 47 885 b 79 872 59 882 69 878 b 104 852 89 867 98 860 b 112 833 108 846 111 839 b 114 812 114 826 114 819 l 114 179 l 21 120 l 41 93 l 94 126 l 241 0 l 414 120 l 394 146 l 354 113 z m 787 159 l 727 120 l 454 526 l 467 552 b 536 513 487 534 511 520 b 602 507 558 506 580 504 b 664 531 624 510 646 518 b 712 582 684 544 700 562 b 740 647 725 602 733 624 b 753 705 746 666 750 686 l 727 705 b 691 667 718 690 706 677 b 640 652 675 658 658 653 b 586 666 621 652 602 656 b 547 705 570 675 556 689 l 534 705 l 327 386 l 600 -14 l 813 126 z "},"l":{"ha":399,"x_min":0,"x_max":0,"o":"m 300 166 l 300 1065 l 274 1065 l 47 905 l 47 885 b 79 872 59 882 69 878 b 104 852 89 867 98 860 b 112 833 108 846 111 839 b 114 812 114 826 114 819 l 114 179 l 21 120 l 41 93 l 94 126 l 241 0 l 414 120 l 394 146 l 354 113 z "},"m":{"ha":1101,"x_min":0,"x_max":0,"o":"m 716 103 l 644 167 l 644 539 l 717 583 l 813 495 l 813 153 l 755 100 l 893 -20 l 1099 113 l 1098 164 l 1038 119 l 973 186 l 973 535 l 1042 590 l 1017 620 l 972 584 l 828 708 l 637 589 l 499 708 l 316 594 l 214 708 l 21 575 l 41 548 l 94 582 l 147 522 l 147 153 l 94 106 l 254 -20 l 387 100 l 327 153 l 327 546 l 388 583 l 484 495 l 484 153 l 426 100 l 563 -20 z "},"n":{"ha":733,"x_min":0,"x_max":0,"o":"m 760 159 l 707 120 l 647 173 l 647 536 l 714 590 l 689 620 l 631 573 l 474 708 l 321 589 l 214 708 l 21 575 l 41 548 l 94 582 l 147 522 l 147 153 l 94 106 l 254 -20 l 387 100 l 327 153 l 327 534 l 387 582 l 487 495 l 487 153 l 440 106 l 580 -20 l 786 120 z "},"o":{"ha":656,"x_min":0,"x_max":0,"o":"m 272 213 l 272 612 l 431 506 l 431 106 z m 45 94 l 103 141 b 298 0 168 93 233 47 l 605 186 l 605 566 l 405 719 l 92 539 b 92 182 92 420 92 301 l 21 124 z "},"p":{"ha":667,"x_min":0,"x_max":0,"o":"m 283 538 l 344 584 l 435 508 l 435 96 b 297 156 390 117 344 138 b 283 162 292 158 288 160 z m 122 181 l 50 121 b 122 109 74 118 98 114 l 122 -242 l 148 -242 l 347 -122 l 347 -102 b 315 -89 335 -101 324 -96 b 295 -66 307 -83 300 -75 b 285 -36 289 -57 286 -47 b 283 -5 283 -26 283 -15 l 283 58 b 377 11 315 45 347 29 b 482 93 411 40 446 67 b 607 172 523 121 564 148 l 607 558 l 659 601 l 635 631 l 593 596 l 458 715 l 283 584 l 283 609 b 248 662 273 628 262 646 b 189 713 231 682 211 699 l 21 600 l 36 578 b 68 588 45 585 56 588 b 100 578 79 588 91 584 b 117 556 107 572 114 564 b 122 528 121 547 123 537 z "},"q":{"ha":663,"x_min":0,"x_max":0,"o":"m 85 539 l 399 717 l 608 590 l 661 624 l 681 597 l 588 537 l 588 16 b 590 -5 588 9 588 2 b 598 -24 591 -12 594 -18 b 623 -44 604 -33 613 -39 b 655 -57 633 -50 644 -54 l 655 -77 l 428 -237 l 402 -237 l 402 109 l 227 -5 l 85 128 z m 402 155 l 402 517 l 256 602 l 256 201 l 339 114 z "},"r":{"ha":554,"x_min":0,"x_max":0,"o":"m 455 174 l 380 123 l 325 166 l 325 576 b 393 531 345 557 367 541 b 444 519 409 524 427 519 b 496 529 462 518 480 521 b 546 573 517 538 534 554 b 572 636 558 592 566 614 b 587 712 579 661 584 687 l 546 712 b 518 687 539 702 529 693 b 480 678 506 681 493 678 b 420 712 456 679 433 692 l 406 712 l 309 603 l 207 712 l 21 586 l 41 559 l 94 592 l 141 532 l 141 166 l 54 106 l 74 80 l 121 113 l 273 -7 l 481 143 z "},"s":{"ha":632,"x_min":0,"x_max":0,"o":"m 580 708 l 541 708 b 541 708 541 708 541 708 l 541 708 b 516 665 539 691 530 676 b 472 650 504 656 488 651 b 427 661 457 650 441 654 b 370 711 404 672 384 690 l 83 544 l 83 350 l 188 267 b 153 234 176 256 165 246 b 63 106 116 197 79 156 b 67 1 53 72 53 33 b 142 -72 81 -32 109 -59 l 156 -36 b 139 -16 148 -31 142 -24 b 139 14 135 -6 135 5 b 158 38 143 24 150 32 b 199 51 170 46 184 51 b 241 43 213 51 228 48 b 305 -14 268 32 290 11 l 579 153 l 579 363 l 459 451 b 501 494 474 464 489 478 b 542 560 518 514 531 537 b 580 708 563 607 575 657 z m 323 333 l 400 272 l 400 91 b 313 180 382 130 351 162 b 224 197 286 194 255 200 b 141 165 194 195 165 184 b 181 207 154 180 167 194 b 273 291 211 236 241 264 z m 319 382 l 262 440 l 262 621 b 348 532 278 582 309 549 b 434 520 375 520 405 516 b 483 535 451 522 468 527 b 470 518 479 529 475 523 b 421 470 456 500 439 484 z "},"t":{"ha":451,"x_min":0,"x_max":0,"o":"m 318 166 l 318 596 l 418 596 l 483 672 l 318 672 l 318 832 l 291 832 l 65 605 l 65 585 b 97 579 76 586 87 584 b 122 558 107 574 116 567 b 130 539 126 553 128 546 b 132 519 131 533 132 526 l 132 179 l 38 120 l 58 93 l 112 126 l 258 0 l 449 99 l 429 125 l 383 100 z "},"u":{"ha":706,"x_min":0,"x_max":0,"o":"m 100 153 l 289 -6 l 465 132 b 469 105 466 123 467 114 b 511 26 475 75 488 46 b 571 -3 527 10 549 0 l 738 112 l 712 147 l 661 104 b 634 135 649 112 640 123 b 623 199 625 154 623 177 l 622 257 l 622 589 l 682 636 l 662 662 l 614 628 l 521 708 l 391 588 l 463 524 l 463 239 l 463 197 b 463 172 463 188 463 180 l 397 123 l 310 206 l 310 540 b 305 592 310 557 309 575 b 284 639 301 609 294 625 b 239 686 272 658 257 674 b 200 706 227 695 214 701 l 21 591 l 35 571 b 67 590 45 579 55 585 b 79 593 71 591 75 592 b 108 590 89 595 99 594 b 131 571 117 586 125 580 b 142 544 137 563 140 554 b 144 515 144 535 144 525 l 144 189 z "},"v":{"ha":714,"x_min":0,"x_max":0,"o":"m 92 60 l 135 95 l 323 -20 l 642 170 l 642 547 l 693 589 l 552 713 l 407 592 l 469 536 l 469 114 l 428 91 l 303 170 l 303 462 b 297 557 303 494 304 526 b 250 638 290 588 273 617 b 204 671 236 651 220 661 b 160 706 188 682 172 692 b 137 756 147 720 138 738 b 155 808 135 775 142 794 b 192 830 165 818 178 826 b 197 832 193 831 195 831 l 190 858 b 99 831 158 855 127 846 b 28 768 71 816 46 794 b 6 694 14 746 5 720 b 31 622 6 668 15 643 b 84 566 46 601 66 584 b 124 501 102 547 117 525 b 130 452 128 485 130 468 b 130 403 130 436 130 419 l 130 141 l 68 90 z "},"w":{"ha":994,"x_min":0,"x_max":0,"o":"m 526 713 l 380 592 l 442 536 l 442 114 l 415 98 l 306 170 l 306 462 b 299 557 306 494 306 526 b 252 638 292 588 276 617 b 207 671 238 651 222 661 b 162 706 191 682 175 692 b 139 756 149 720 140 738 b 158 808 138 775 145 794 b 194 830 168 818 180 826 b 199 832 196 831 197 831 l 192 858 b 101 831 160 855 129 846 b 31 768 73 816 48 794 b 8 694 17 746 8 720 b 33 622 8 668 18 643 b 86 566 48 601 68 584 b 126 501 104 547 119 525 b 132 452 130 485 132 468 b 132 403 133 436 132 419 l 132 141 l 70 90 l 94 60 l 137 95 l 296 -20 l 471 77 l 605 -20 l 928 151 l 928 588 l 1010 655 l 985 685 l 926 636 l 839 713 l 693 592 l 755 536 l 755 116 l 724 98 l 615 170 l 615 547 l 667 589 z "},"x":{"ha":706,"x_min":0,"x_max":0,"o":"m 404 549 z m 10 604 l 32 571 b 40 576 35 573 37 574 b 68 594 49 582 58 589 b 101 600 78 598 90 601 b 130 585 112 598 122 593 b 147 557 137 577 142 567 l 274 271 l 239 185 b 223 192 234 188 228 190 b 171 202 206 197 188 201 b 119 193 153 202 135 200 b 62 148 96 185 76 168 b 32 82 48 129 39 106 b 21 10 26 58 22 34 l 50 10 b 88 38 60 22 73 32 b 135 44 103 44 119 46 b 195 10 158 41 180 28 l 209 10 l 210 12 l 210 10 l 294 226 l 357 86 l 490 0 l 685 136 l 647 171 b 607 141 634 160 621 150 b 586 129 600 136 593 132 b 562 127 578 127 570 126 b 541 139 554 129 547 133 b 529 160 536 145 532 152 l 387 463 l 418 542 b 456 527 431 536 443 531 b 508 516 473 521 490 517 b 560 525 526 515 544 518 b 610 569 581 534 598 550 b 636 632 623 588 630 610 b 651 709 643 657 647 683 l 609 709 b 581 683 602 698 593 689 b 544 674 570 677 557 674 b 484 709 520 675 497 689 l 484 709 l 484 709 l 451 709 l 368 504 l 297 657 l 187 723 z "},"y":{"ha":719,"x_min":0,"x_max":0,"o":"m 646 559 l 646 193 b 649 138 646 175 646 156 b 666 86 652 120 658 103 b 683 49 672 74 679 62 b 683 8 687 35 687 21 b 661 -29 680 -6 671 -19 b 626 -51 650 -38 638 -45 b 591 -74 614 -58 602 -66 l 334 -255 b 226 -182 309 -218 270 -191 b 87 -213 178 -172 126 -184 l 67 -200 b 150 -91 83 -157 112 -118 b 280 -47 188 -64 233 -49 b 460 -120 346 -45 414 -72 b 487 -109 469 -119 479 -115 b 505 -86 495 -103 501 -95 b 510 -55 509 -76 511 -66 b 504 -25 510 -45 507 -35 b 478 33 497 -5 486 13 b 464 86 471 50 466 68 b 464 90 464 88 464 89 l 333 0 l 133 140 l 133 529 l 82 590 l 27 555 l 7 582 l 193 708 l 300 582 l 300 226 l 461 125 b 461 142 461 131 461 137 l 460 529 l 386 618 l 520 709 z "},"z":{"ha":642,"x_min":0,"x_max":0,"o":"m 196 186 b 369 206 252 203 311 210 b 562 153 436 202 502 184 l 602 199 l 622 186 l 475 6 b 353 47 436 24 395 38 b 179 51 296 60 236 64 b 69 0 139 42 102 25 l 56 13 b 96 111 66 47 80 80 b 230 299 131 180 180 241 l 136 299 l 103 266 l 83 286 l 196 419 l 336 419 b 429 526 368 454 399 490 b 261 508 375 509 318 503 b 123 546 213 512 166 525 l 89 492 l 63 506 l 169 705 b 282 669 206 691 244 679 b 446 656 336 656 391 649 b 582 705 494 661 542 678 l 595 685 b 473 510 560 623 519 565 b 395 419 448 479 422 449 l 496 419 l 529 452 l 549 432 l 435 299 l 290 299 b 238 238 272 279 255 259 z "},"{":{"ha":444,"x_min":0,"x_max":0,"o":"m 410 2 l 410 18 b 353 85 388 36 368 59 b 312 204 331 120 317 162 b 304 369 305 259 311 315 b 283 448 300 396 294 423 b 238 513 272 473 257 495 b 208 536 229 522 218 530 b 253 593 225 552 241 572 b 294 712 275 628 289 670 b 302 877 301 767 295 823 b 324 956 306 905 313 931 b 368 1021 334 981 349 1003 b 410 1050 381 1033 395 1042 l 410 1066 l 231 1066 b 189 1036 216 1058 201 1048 b 144 972 170 1019 155 996 b 123 893 134 947 127 920 b 115 728 116 839 122 783 b 74 609 110 685 96 644 b 17 542 59 583 39 560 l 17 526 b 59 497 32 519 46 509 b 104 432 78 479 93 457 b 125 353 114 408 121 381 b 133 189 132 299 126 243 b 174 69 138 146 152 105 b 231 2 189 43 208 21 z "},"|":{"ha":228,"x_min":0,"x_max":0,"o":"m 40 -7 l 40 922 l 189 1057 l 189 128 z "},"}":{"ha":444,"x_min":0,"x_max":0,"o":"m 17 2 l 17 18 b 74 85 39 36 59 59 b 115 204 96 120 110 162 b 123 369 122 259 116 315 b 144 448 127 396 134 423 b 189 513 155 473 170 495 b 220 536 198 522 209 530 b 174 593 202 552 187 572 b 133 712 152 628 138 670 b 125 877 126 767 132 823 b 104 956 121 905 114 931 b 59 1021 93 981 78 1003 b 17 1050 46 1033 32 1042 l 17 1066 l 197 1066 b 238 1036 212 1058 226 1048 b 283 972 257 1019 272 996 b 304 893 294 947 300 920 b 312 728 311 839 305 783 b 353 609 317 685 331 644 b 410 542 368 583 388 560 l 410 526 b 368 497 395 519 381 509 b 324 432 349 479 334 457 b 302 353 313 408 306 381 b 294 189 295 299 301 243 b 253 69 289 146 275 105 b 197 2 238 43 219 21 z "},"~":{"ha":743,"x_min":0,"x_max":0,"o":"m 83 493 b 125 524 96 505 110 516 b 172 543 140 533 155 539 b 286 540 209 553 249 550 b 397 505 323 531 359 515 b 493 494 428 497 460 492 b 586 517 525 495 557 503 b 679 590 622 534 653 560 b 725 664 697 612 713 637 l 682 683 b 646 644 673 667 661 654 b 600 625 632 635 616 629 b 506 628 569 619 537 622 b 415 652 475 634 445 643 b 299 674 377 663 339 673 b 185 651 260 676 220 668 b 93 579 150 634 119 607 b 40 512 74 558 56 535 z "},"":{"ha":296,"x_min":0,"x_max":0,"o":"m 23 938 l 150 1065 l 275 940 l 148 813 z m 140 755 l 179 755 l 239 -15 l 212 -15 l 21 108 l 21 128 b 53 141 33 128 44 133 b 65 161 58 147 63 153 b 71 184 68 168 70 176 b 76 230 73 199 74 215 z "},"":{"ha":475,"x_min":0,"x_max":0,"o":"m 268 171 b 199 242 239 188 215 212 l 199 603 l 323 500 l 455 600 l 308 718 l 250 686 l 250 794 l 211 794 l 211 664 l 21 558 l 21 143 l 211 13 l 211 -82 l 250 -82 l 250 0 l 454 179 l 436 204 l 356 146 b 268 171 325 147 295 155 z "},"":{"ha":904,"x_min":0,"x_max":0,"o":"m 905 152 l 831 257 b 731 180 807 221 771 194 b 582 170 684 163 632 164 b 433 188 533 176 483 186 b 337 182 401 190 369 188 b 469 299 385 217 434 252 b 496 350 481 314 491 331 b 503 407 502 368 503 388 l 503 510 l 692 510 l 695 658 l 503 658 l 503 814 b 506 863 503 830 503 847 b 526 907 509 879 516 894 b 566 934 536 920 550 930 b 614 933 582 939 599 939 l 641 967 b 503 992 599 989 550 998 b 380 928 457 985 412 962 b 330 840 356 903 339 873 b 319 739 320 808 319 773 l 319 658 l 260 658 l 260 711 b 277 847 260 757 262 804 b 357 958 293 891 321 929 b 584 1014 420 1008 505 1026 b 767 917 653 1003 718 968 b 673 910 737 930 701 928 b 625 829 645 893 627 862 b 655 753 624 801 635 772 b 732 724 675 733 704 722 b 807 759 760 725 788 738 b 838 836 826 780 837 808 b 820 917 840 864 833 892 b 765 980 806 942 787 963 b 610 1043 721 1015 665 1034 b 442 1048 554 1053 497 1055 b 256 975 375 1039 311 1013 b 76 659 153 903 86 784 b 81 479 72 600 78 539 b 76 299 83 419 82 359 b 18 30 67 207 48 117 l 35 12 b 64 34 45 19 55 27 b 207 159 116 71 170 107 b 254 281 232 195 247 238 b 260 413 260 325 260 369 l 260 510 l 319 510 l 319 293 b 302 187 319 257 317 220 b 238 100 288 154 264 125 b 132 14 205 69 169 41 l 163 -14 b 298 34 204 12 250 29 b 495 16 364 42 430 30 b 692 -4 560 3 626 -11 b 820 44 738 1 783 17 b 905 152 858 71 888 109 z "},"":{"ha":699,"x_min":0,"x_max":0,"o":"m 272 213 l 272 612 l 431 506 l 431 106 z m 45 94 l 103 141 l 298 0 l 581 172 l 656 111 l 680 141 l 605 203 l 605 552 l 664 600 l 639 630 l 582 583 l 405 719 l 121 556 l 40 622 l 15 592 l 92 530 b 92 182 92 414 92 298 l 21 124 z "},"":{"ha":950,"x_min":0,"x_max":0,"o":"m 119 322 l 126 341 b 108 372 115 347 109 359 b 113 394 107 379 109 387 b 130 410 117 401 123 406 b 152 418 137 414 144 416 b 175 419 160 419 167 419 b 199 419 183 419 191 419 l 199 96 b 180 88 193 94 186 91 b 84 -9 139 66 104 33 b 73 -144 63 -51 59 -100 b 122 -220 83 -173 100 -200 b 201 -264 144 -241 172 -255 b 351 -267 249 -278 301 -274 b 500 -240 401 -259 450 -248 b 651 -214 550 -231 600 -219 b 711 -221 671 -212 692 -213 b 735 -239 720 -225 728 -231 b 746 -267 741 -247 745 -257 b 738 -300 747 -279 744 -290 b 713 -322 732 -309 724 -317 b 699 -327 709 -324 704 -326 l 706 -353 b 757 -337 724 -350 741 -345 b 852 -254 797 -320 832 -292 b 869 -193 862 -235 868 -214 b 857 -131 870 -172 866 -150 b 817 -80 848 -111 834 -93 b 759 -50 799 -66 779 -56 b 628 -40 717 -37 672 -37 b 452 -67 569 -45 510 -54 b 278 -105 394 -80 338 -101 b 198 -87 250 -106 221 -102 b 170 -56 186 -79 176 -69 b 162 -16 163 -44 160 -30 b 178 26 163 -1 169 14 b 212 54 187 38 199 47 b 315 73 243 71 280 74 b 420 60 351 72 386 66 b 628 17 490 47 558 28 b 717 14 657 13 687 11 b 799 45 746 18 775 28 b 850 116 823 63 841 88 b 860 204 859 144 860 175 l 860 399 l 924 399 l 924 438 l 860 438 l 860 510 l 924 510 l 924 550 l 860 550 l 859 865 l 930 922 l 905 952 l 853 910 l 713 1032 l 524 879 l 524 1019 l 484 1019 b 484 550 484 862 484 706 l 394 550 l 394 839 b 390 903 394 861 394 882 b 365 963 385 925 377 945 b 317 1006 352 981 336 995 b 255 1025 298 1016 277 1023 b 153 1008 221 1029 185 1023 b 75 941 122 994 94 970 b 47 852 58 915 48 883 l 80 852 b 93 885 82 863 87 875 b 133 917 102 900 116 912 b 159 917 141 919 150 919 b 181 904 167 915 175 910 b 197 872 189 896 194 884 b 199 836 199 860 199 848 l 199 606 b 140 600 179 608 159 606 b 69 559 113 593 89 578 b 21 438 36 528 17 483 b 52 364 24 411 35 385 b 119 322 69 344 93 328 z m 524 75 b 524 399 524 183 524 291 b 666 399 571 399 619 399 l 666 275 b 653 162 666 237 666 198 b 623 114 646 145 636 128 b 576 83 610 100 594 90 b 524 75 559 77 542 75 z m 524 830 l 591 883 l 666 825 b 666 550 666 733 666 641 b 524 550 619 550 571 550 b 524 830 524 643 524 737 z m 484 79 b 471 82 480 80 476 81 b 394 101 445 88 420 95 l 394 399 b 484 399 424 399 454 399 b 484 79 484 292 484 186 z m 394 510 l 484 510 l 484 438 l 394 438 z m 524 510 b 666 510 571 510 619 510 l 666 438 b 524 438 619 438 571 438 z "},"":{"ha":228,"x_min":0,"x_max":0,"o":"m 40 550 l 40 965 l 189 1100 l 189 685 z m 40 -7 l 40 408 l 189 543 l 189 128 z "},"":{"ha":931,"x_min":0,"x_max":0,"o":"m 133 826 l 133 547 l 327 420 l 314 409 b 252 351 293 390 272 371 b 155 246 218 318 185 283 b 81 125 125 210 98 169 b 64 -3 66 84 59 40 b 110 -124 69 -46 85 -88 b 237 -225 142 -168 187 -203 b 396 -260 287 -248 342 -258 b 643 -197 482 -262 569 -241 b 803 -2 717 -153 777 -84 b 808 17 805 4 807 11 l 771 28 b 765 9 769 21 768 15 b 705 -75 754 -24 732 -53 b 612 -122 678 -97 645 -112 b 405 -150 545 -141 474 -146 b 263 -146 357 -153 310 -155 b 141 -80 217 -138 171 -117 b 103 11 119 -55 106 -22 b 104 61 101 28 101 44 b 121 80 108 68 114 75 b 148 94 129 87 139 91 b 265 111 186 106 226 110 b 362 98 298 112 331 108 b 522 -5 423 79 479 42 l 902 235 l 902 583 b 800 653 870 610 836 633 b 696 698 767 671 732 686 b 826 827 742 738 788 779 b 924 1035 874 888 910 959 b 928 1093 927 1054 928 1073 l 928 1112 l 910 1112 l 910 1113 l 909 1113 l 890 1113 l 890 1113 l 889 1113 b 872 1056 888 1093 882 1073 b 777 984 852 1020 816 995 b 657 986 738 973 696 976 b 513 1066 603 1000 554 1029 z m 601 215 b 526 249 577 228 552 239 b 304 271 455 274 378 285 b 184 220 261 262 220 245 b 188 224 185 222 186 223 b 280 324 216 259 248 292 b 340 380 299 343 319 362 l 551 569 l 601 545 z m 640 193 l 640 526 l 720 486 l 720 167 l 694 154 b 640 193 677 168 659 181 z m 391 876 l 391 597 l 314 650 l 314 894 l 341 907 b 391 876 357 896 374 885 z m 430 856 b 495 831 451 846 473 838 b 718 819 567 808 645 800 b 799 856 747 827 774 840 b 796 852 798 855 797 853 b 638 698 750 794 693 747 l 467 545 l 430 570 z "},"":{"ha":0,"x_min":0,"x_max":0,"o":"m 21 849 l 148 722 l 273 847 l 146 974 z m 340 849 l 467 722 l 592 847 l 465 974 z "},"":{"ha":1107,"x_min":0,"x_max":0,"o":"m 476 602 b 342 505 423 584 376 550 b 287 349 308 460 289 405 b 355 163 285 281 309 212 b 538 88 402 113 470 84 b 634 120 572 91 605 101 b 701 195 662 138 686 165 b 719 267 712 218 718 242 l 706 267 b 648 199 692 240 672 216 b 569 168 624 183 597 172 b 569 541 569 292 569 417 b 580 535 573 539 576 537 b 654 500 604 522 629 510 l 737 586 l 731 593 l 709 575 b 663 593 693 580 678 586 b 591 634 638 604 614 618 l 408 522 b 483 592 426 552 452 576 z m -34 347 b 527 -211 -34 39 217 -211 b 1088 347 837 -211 1088 39 b 527 906 1088 655 837 906 b -34 347 217 906 -34 655 z m -6 347 b 527 878 -6 640 233 878 b 1060 347 821 878 1060 640 b 527 -183 1060 54 821 -183 b -6 347 233 -183 -6 54 z m 391 273 b 379 311 385 285 382 298 b 373 405 372 342 371 374 b 391 489 375 434 381 462 l 429 511 b 429 289 429 437 429 363 z m 398 256 l 518 307 l 518 566 l 524 569 b 549 553 532 564 541 558 b 549 166 549 424 549 295 b 484 178 527 166 504 170 b 418 226 458 188 436 205 b 398 256 411 236 404 246 z "},"":{"ha":589,"x_min":0,"x_max":0,"o":"m 541 644 l 496 614 l 446 664 l 446 926 l 501 970 l 482 993 l 440 959 l 287 1058 l 172 998 b 137 976 160 992 148 985 b 114 946 128 968 119 957 b 107 908 109 934 106 921 b 120 869 108 894 113 881 b 181 820 134 847 157 831 b 196 813 186 818 191 816 b 128 767 172 801 149 785 b 90 723 113 754 100 740 b 72 667 79 706 73 687 b 101 583 70 637 81 607 b 212 524 128 550 169 529 l 322 604 l 401 524 l 546 624 z m 317 806 b 261 821 298 810 279 815 b 202 843 241 827 221 834 b 152 879 184 852 165 863 b 137 918 143 890 137 904 b 145 948 137 929 140 939 b 165 971 150 957 157 965 b 187 983 172 976 179 980 l 317 903 b 317 806 317 871 317 838 z m 317 775 b 317 617 317 723 317 670 b 282 615 305 613 293 613 b 242 635 267 617 253 625 b 215 670 231 645 222 657 b 198 763 200 698 193 731 b 214 807 201 778 206 793 b 255 794 228 802 241 798 b 317 775 276 788 296 782 z "},"":{"ha":792,"x_min":0,"x_max":0,"o":"m 571 508 b 651 414 601 480 628 448 b 743 139 706 333 738 237 b 560 361 691 220 630 295 b 368 508 501 417 437 466 b 560 656 437 551 501 600 b 743 878 630 722 691 797 b 651 603 738 780 706 684 b 571 508 628 568 601 537 z m 238 508 b 318 414 268 480 295 448 b 410 139 373 333 405 237 b 226 361 358 220 296 295 b 35 508 168 417 103 466 b 226 656 103 551 168 600 b 410 878 296 722 358 797 b 318 603 405 780 373 684 b 238 508 295 568 268 537 z "},"":{"ha":686,"x_min":0,"x_max":0,"o":"m 508 458 l 509 186 l 657 186 l 656 635 l 507 635 l 191 635 l 21 445 l 41 425 l 74 458 z "},"":{"ha":686,"x_min":0,"x_max":0,"o":"m 666 648 l 646 668 l 614 635 l 191 635 l 21 445 l 41 425 l 74 458 l 497 458 z "},"":{"ha":1129,"x_min":0,"x_max":0,"o":"m 342 596 b 328 551 334 582 329 567 l 345 551 b 350 570 345 558 347 564 b 371 585 355 578 362 584 b 384 584 375 586 380 586 b 395 577 388 583 392 580 b 403 561 399 573 402 567 b 404 543 404 555 404 549 l 404 415 b 360 408 389 415 374 414 b 334 388 350 404 341 397 b 321 357 328 379 324 368 b 329 298 318 337 321 317 l 342 298 b 344 318 341 305 341 312 b 359 334 347 325 352 331 b 370 338 362 336 366 337 b 381 338 373 338 377 338 b 404 338 389 338 396 338 l 404 178 b 324 115 373 164 345 142 b 296 72 313 102 304 87 l 317 72 b 353 107 327 86 339 98 b 407 126 370 117 388 124 b 463 122 426 128 445 127 b 548 82 494 115 523 101 l 657 168 b 660 160 658 166 659 163 b 685 113 665 143 673 127 b 723 83 695 101 708 90 l 829 167 l 829 188 l 782 152 b 757 181 772 160 763 170 b 737 231 747 197 741 214 b 724 284 732 249 729 267 b 699 341 718 304 710 323 b 656 385 688 358 673 373 b 634 398 649 390 641 395 l 747 496 l 637 647 l 549 574 l 549 632 l 530 632 l 530 557 l 502 534 l 502 545 b 499 577 502 555 502 566 b 487 607 497 587 493 598 b 463 628 481 615 472 623 b 432 638 454 633 443 636 b 381 629 415 640 397 637 b 342 596 366 622 352 610 z m 2 347 b 563 -211 2 39 254 -211 b 1124 347 873 -211 1124 39 b 563 906 1124 655 873 906 b 2 347 254 906 2 655 z m 30 347 b 563 878 30 640 269 878 b 1096 347 858 878 1096 640 b 563 -183 1096 54 858 -183 b 30 347 269 -183 30 54 z m 502 199 l 502 511 l 530 535 b 529 196 530 422 529 309 b 502 199 520 198 511 199 z m 549 191 l 549 326 l 560 336 b 587 322 570 332 579 327 b 627 272 604 309 618 292 b 646 211 636 253 642 232 b 654 181 649 201 651 191 l 620 154 b 549 191 599 171 575 184 z m 549 552 l 571 571 l 659 445 l 549 351 b 549 552 549 418 549 485 z "},"":{"ha":0,"x_min":0,"x_max":0,"o":"m 201 782 l 581 781 l 581 929 l 201 931 z "},"":{"ha":325,"x_min":0,"x_max":0,"o":"m 28 858 b 158 728 28 786 86 728 b 289 858 230 728 289 786 b 158 989 289 930 230 989 b 28 858 86 989 28 930 z m 67 858 b 158 950 67 909 108 950 b 250 858 209 950 250 909 b 158 767 250 808 209 767 b 67 858 108 767 67 808 z "},"":{"ha":797,"x_min":0,"x_max":0,"o":"m 47 -65 l 629 -65 l 764 83 l 182 83 z m 47 435 l 332 435 l 332 140 l 481 275 l 481 435 l 629 435 l 764 583 l 481 583 l 481 885 l 332 750 l 332 583 l 182 583 z "},"":{"ha":568,"x_min":0,"x_max":0,"o":"m 531 172 l 512 181 b 472 154 501 169 487 159 b 423 149 456 149 440 149 l 93 149 b 210 195 132 163 171 178 b 348 261 257 214 304 236 b 472 362 395 287 440 319 b 507 435 488 384 500 409 b 507 515 513 461 514 488 b 423 624 496 561 464 600 b 286 655 382 648 334 657 b 130 609 232 653 177 638 b 71 554 107 594 86 576 b 44 477 55 531 45 504 b 65 414 44 454 51 431 b 124 385 79 396 101 385 b 173 406 142 385 160 393 b 191 456 186 419 193 438 b 165 505 190 475 180 493 b 112 517 150 516 130 521 b 159 581 121 542 138 565 b 234 608 181 597 207 607 b 300 595 257 609 280 605 b 351 550 321 585 338 569 b 373 486 364 531 371 509 b 362 420 374 464 370 441 b 300 338 349 388 326 361 b 185 255 265 306 224 281 b 43 148 136 222 88 187 l 43 18 l 457 19 z "},"":{"ha":568,"x_min":0,"x_max":0,"o":"m 339 432 l 483 516 l 500 646 l 139 645 l 66 492 l 84 483 b 125 510 95 496 109 505 b 173 515 140 515 157 515 l 404 515 l 128 346 l 157 325 b 246 348 184 340 215 349 b 348 311 283 347 319 334 b 397 238 371 292 388 266 b 399 150 406 210 407 179 b 342 63 390 116 369 85 b 244 27 314 41 279 29 b 98 95 188 25 132 51 b 163 99 119 86 144 87 b 196 155 182 111 195 133 b 177 205 197 174 190 192 b 128 227 165 218 147 226 b 69 198 105 227 83 216 b 49 135 54 181 48 157 b 69 76 50 113 58 93 b 114 32 81 58 97 43 b 234 -4 149 9 192 -2 b 408 38 294 -7 355 7 b 518 175 460 68 502 117 b 515 293 529 213 527 255 b 446 388 502 330 477 364 b 339 432 415 412 378 427 z "},"":{"ha":389,"x_min":0,"x_max":0,"o":"m 279 954 l 207 1009 l 88 765 l 100 756 z "},"":{"ha":739,"x_min":0,"x_max":0,"o":"m 552 -3 l 719 112 l 693 147 l 641 104 b 604 199 614 123 604 157 l 603 257 l 603 589 l 663 636 l 643 662 l 594 628 l 502 708 l 371 588 l 443 524 l 443 239 l 443 197 b 443 172 443 188 443 180 l 378 123 l 290 206 b 290 391 290 267 290 329 l 290 540 b 181 706 290 629 246 682 l 15 591 l 29 571 b 103 590 45 584 73 602 b 138 515 129 579 138 552 l 138 118 l 138 -201 l 290 -201 b 290 11 290 -131 290 -60 l 445 132 b 552 -3 452 65 485 6 z "},"":{"ha":881,"x_min":0,"x_max":0,"o":"m 378 400 b 127 488 287 394 194 426 b 22 684 71 539 33 609 b 64 903 11 759 26 837 b 252 1059 105 975 174 1030 b 499 1090 330 1088 415 1091 l 717 1090 l 748 1061 b 643 975 712 1034 676 1006 b 578 888 617 950 593 922 b 561 782 564 855 561 818 l 561 72 b 549 -15 561 43 559 13 b 498 -86 538 -42 520 -66 b 311 -176 447 -133 379 -161 l 311 -131 b 354 -107 327 -126 342 -118 b 373 -77 362 -98 369 -88 b 378 -42 377 -66 378 -54 z m 862 1046 b 814 916 839 1006 822 961 b 804 776 805 870 804 823 l 804 365 b 781 76 804 268 805 170 b 625 -163 757 -19 704 -107 b 439 -236 570 -202 505 -226 b 199 -206 358 -249 272 -243 b 107 -127 163 -188 130 -161 b 78 -11 85 -93 73 -52 b 116 69 81 19 95 48 b 198 103 138 90 168 103 b 274 73 226 104 254 93 b 305 -2 294 54 305 26 b 292 -49 304 -19 300 -35 b 258 -85 284 -64 272 -76 b 211 -100 244 -93 228 -99 b 163 -90 195 -101 178 -97 b 297 -202 188 -145 239 -187 b 417 -202 336 -213 377 -212 b 523 -147 456 -192 492 -172 b 603 -35 559 -117 587 -79 b 621 101 618 8 621 55 l 621 663 b 627 794 621 706 620 751 b 674 916 633 838 648 880 b 816 1042 710 968 765 1004 b 845 1063 826 1049 835 1056 z "},"":{"ha":293,"x_min":0,"x_max":0,"o":"m 28 562 l 155 435 l 279 560 l 153 687 z "},"":{"ha":283,"x_min":0,"x_max":0,"o":"m 54 -91 b 184 -15 101 -69 145 -44 b 239 39 205 2 225 19 b 265 104 254 59 263 81 b 237 182 266 131 256 158 b 162 236 219 204 193 223 l 13 165 b 119 102 57 155 96 132 b 135 3 141 72 147 35 b 45 -80 122 -32 89 -63 z "},"":{"ha":489,"x_min":0,"x_max":0,"o":"m 188 2 l 334 2 l 334 653 l 150 575 l 149 543 b 181 512 163 537 175 525 b 188 467 187 498 188 482 z "},"":{"ha":546,"x_min":0,"x_max":0,"o":"m 240 674 l 240 974 l 360 894 l 360 594 z m 71 585 l 114 620 b 260 515 162 585 211 550 l 490 654 l 490 939 l 340 1054 l 105 919 b 105 651 105 830 105 740 l 52 608 z "},"":{"ha":792,"x_min":0,"x_max":0,"o":"m 207 508 b 126 414 177 480 150 448 b 35 139 72 333 40 237 b 218 361 86 220 148 295 b 410 508 277 417 341 466 b 218 656 341 551 277 600 b 35 878 148 722 86 797 b 126 603 40 780 72 684 b 207 508 150 568 177 537 z m 540 508 b 460 414 510 480 483 448 b 368 139 405 333 373 237 b 551 361 420 220 481 295 b 743 508 610 417 674 466 b 551 656 674 551 610 600 b 368 878 481 722 420 797 b 460 603 373 780 405 684 b 540 508 483 568 510 537 z "},"":{"ha":443,"x_min":0,"x_max":0,"o":"m 425 972 l 299 1099 l 174 974 l 301 847 z m 335 807 l 299 806 b 268 700 305 768 292 729 b 224 664 255 686 240 674 b 172 640 207 655 190 648 l 49 590 b 53 420 61 534 62 476 b -1 265 44 365 26 312 l 310 50 l 287 -1 l 314 -15 l 424 194 l 84 414 l 363 545 z "},"":{"ha":1065,"x_min":0,"x_max":0,"o":"m 623 1365 l 694 1420 l 813 1176 l 801 1167 z m 964 1047 l 934 1072 l 848 990 b 563 1065 765 1046 663 1073 b 299 930 462 1056 364 1008 b 230 796 266 891 242 845 b 230 645 218 747 217 694 b 304 511 242 595 268 548 b 394 447 329 484 360 463 l 241 194 b 182 155 220 183 201 169 b 61 -14 128 111 85 52 l 88 -14 b 328 90 149 51 238 90 b 547 9 407 91 487 61 l 703 144 b 792 54 730 111 760 82 b 869 -4 816 33 842 13 l 1054 144 l 1014 190 l 967 151 b 913 239 939 173 921 205 b 907 350 905 275 907 313 l 907 384 l 907 851 l 907 894 b 912 960 907 917 907 939 b 940 1020 917 982 927 1003 z m 707 889 b 728 875 714 885 721 880 l 728 519 l 484 519 z m 671 907 l 407 468 b 303 624 356 506 318 562 b 331 807 289 685 299 753 b 431 900 355 846 390 879 b 564 930 472 921 518 931 b 671 907 601 929 637 921 z m 398 376 l 728 376 l 728 247 l 644 176 b 372 238 565 229 466 251 b 304 221 349 234 326 229 z "},"":{"ha":1065,"x_min":0,"x_max":0,"o":"m 813 1365 l 742 1420 l 623 1176 l 635 1167 z m 964 1047 l 934 1072 l 848 990 b 563 1065 765 1046 663 1073 b 299 930 462 1056 364 1008 b 230 796 266 891 242 845 b 230 645 218 747 217 694 b 304 511 242 595 268 548 b 394 447 329 484 360 463 l 241 194 b 182 155 220 183 201 169 b 61 -14 128 111 85 52 l 88 -14 b 328 90 149 51 238 90 b 547 9 407 91 487 61 l 703 144 b 792 54 730 111 760 82 b 869 -4 816 33 842 13 l 1054 144 l 1014 190 l 967 151 b 913 239 939 173 921 205 b 907 350 905 275 907 313 l 907 384 l 907 851 l 907 894 b 912 960 907 917 907 939 b 940 1020 917 982 927 1003 z m 707 889 b 728 875 714 885 721 880 l 728 519 l 484 519 z m 671 907 l 407 468 b 303 624 356 506 318 562 b 331 807 289 685 299 753 b 431 900 355 846 390 879 b 564 930 472 921 518 931 b 671 907 601 929 637 921 z m 398 376 l 728 376 l 728 247 l 644 176 b 372 238 565 229 466 251 b 304 221 349 234 326 229 z "},"":{"ha":1065,"x_min":0,"x_max":0,"o":"m 489 1141 l 630 1282 l 781 1141 l 883 1251 l 711 1411 l 464 1167 z m 964 1047 l 934 1072 l 848 990 b 563 1065 765 1046 663 1073 b 299 930 462 1056 364 1008 b 230 796 266 891 242 845 b 230 645 218 747 217 694 b 304 511 242 595 268 548 b 394 447 329 484 360 463 l 241 194 b 182 155 220 183 201 169 b 61 -14 128 111 85 52 l 88 -14 b 328 90 149 51 238 90 b 547 9 407 91 487 61 l 703 144 b 792 54 730 111 760 82 b 869 -4 816 33 842 13 l 1054 144 l 1014 190 l 967 151 b 913 239 939 173 921 205 b 907 350 905 275 907 313 l 907 384 l 907 851 l 907 894 b 912 960 907 917 907 939 b 940 1020 917 982 927 1003 z m 707 889 b 728 875 714 885 721 880 l 728 519 l 484 519 z m 671 907 l 407 468 b 303 624 356 506 318 562 b 331 807 289 685 299 753 b 431 900 355 846 390 879 b 564 930 472 921 518 931 b 671 907 601 929 637 921 z m 398 376 l 728 376 l 728 247 l 644 176 b 372 238 565 229 466 251 b 304 221 349 234 326 229 z "},"":{"ha":1065,"x_min":0,"x_max":0,"o":"m 452 1165 b 487 1194 463 1176 474 1186 b 525 1211 499 1201 512 1207 b 620 1208 556 1219 589 1217 b 712 1177 652 1199 681 1186 b 792 1166 738 1169 765 1164 b 870 1187 819 1168 846 1175 b 946 1253 899 1203 925 1226 b 985 1319 962 1273 975 1295 l 949 1337 b 919 1301 942 1322 931 1310 b 881 1285 908 1293 894 1288 b 803 1287 855 1279 829 1281 b 728 1308 778 1292 753 1300 b 632 1329 696 1318 664 1327 b 537 1308 599 1330 566 1323 b 460 1242 507 1292 482 1269 b 416 1183 444 1224 430 1204 z m 964 1047 l 934 1072 l 848 990 b 563 1065 765 1046 663 1073 b 299 930 462 1056 364 1008 b 230 796 266 891 242 845 b 230 645 218 747 217 694 b 304 511 242 595 268 548 b 394 447 329 484 360 463 l 241 194 b 182 155 220 183 201 169 b 61 -14 128 111 85 52 l 88 -14 b 328 90 149 51 238 90 b 547 9 407 91 487 61 l 703 144 b 792 54 730 111 760 82 b 869 -4 816 33 842 13 l 1054 144 l 1014 190 l 967 151 b 913 239 939 173 921 205 b 907 350 905 275 907 313 l 907 384 l 907 851 l 907 894 b 912 960 907 917 907 939 b 940 1020 917 982 927 1003 z m 707 889 b 728 875 714 885 721 880 l 728 519 l 484 519 z m 671 907 l 407 468 b 303 624 356 506 318 562 b 331 807 289 685 299 753 b 431 900 355 846 390 879 b 564 930 472 921 518 931 b 671 907 601 929 637 921 z m 398 376 l 728 376 l 728 247 l 644 176 b 372 238 565 229 466 251 b 304 221 349 234 326 229 z "},"":{"ha":1065,"x_min":0,"x_max":0,"o":"m 411 1324 l 538 1197 l 663 1322 l 536 1449 z m 730 1324 l 857 1197 l 982 1322 l 855 1449 z m 964 1047 l 934 1072 l 848 990 b 563 1065 765 1046 663 1073 b 299 930 462 1056 364 1008 b 230 796 266 891 242 845 b 230 645 218 747 217 694 b 304 511 242 595 268 548 b 394 447 329 484 360 463 l 241 194 b 182 155 220 183 201 169 b 61 -14 128 111 85 52 l 88 -14 b 328 90 149 51 238 90 b 547 9 407 91 487 61 l 703 144 b 792 54 730 111 760 82 b 869 -4 816 33 842 13 l 1054 144 l 1014 190 l 967 151 b 913 239 939 173 921 205 b 907 350 905 275 907 313 l 907 384 l 907 851 l 907 894 b 912 960 907 917 907 939 b 940 1020 917 982 927 1003 z m 707 889 b 728 875 714 885 721 880 l 728 519 l 484 519 z m 671 907 l 407 468 b 303 624 356 506 318 562 b 331 807 289 685 299 753 b 431 900 355 846 390 879 b 564 930 472 921 518 931 b 671 907 601 929 637 921 z m 398 376 l 728 376 l 728 247 l 644 176 b 372 238 565 229 466 251 b 304 221 349 234 326 229 z "},"":{"ha":1065,"x_min":0,"x_max":0,"o":"m 538 1192 b 638 1065 538 1130 581 1078 b 563 1065 613 1067 588 1067 b 299 930 462 1056 364 1008 b 230 796 266 891 242 845 b 230 645 218 747 217 694 b 304 511 242 595 268 548 b 394 447 329 484 360 463 l 241 194 b 182 155 220 183 201 169 b 61 -14 128 111 85 52 l 88 -14 b 328 90 149 51 238 90 b 547 9 407 91 487 61 l 703 144 b 792 54 730 111 760 82 b 869 -4 816 33 842 13 l 1054 144 l 1014 190 l 967 151 b 913 239 939 173 921 205 b 907 350 905 275 907 313 l 907 384 l 907 851 l 907 894 b 912 960 907 917 907 939 b 940 1020 917 982 927 1003 l 964 1047 l 934 1072 l 848 990 b 666 1061 793 1027 731 1051 b 668 1061 667 1061 667 1061 b 799 1192 740 1061 799 1120 b 668 1322 799 1264 740 1322 b 538 1192 596 1322 538 1264 z m 577 1192 b 668 1283 577 1242 618 1283 b 759 1192 719 1283 759 1242 b 668 1100 759 1141 719 1100 b 577 1192 618 1100 577 1141 z m 707 889 b 728 875 714 885 721 880 l 728 519 l 484 519 z m 671 907 l 407 468 b 303 624 356 506 318 562 b 331 807 289 685 299 753 b 431 900 355 846 390 879 b 564 930 472 921 518 931 b 671 907 601 929 637 921 z m 398 376 l 728 376 l 728 247 l 644 176 b 372 238 565 229 466 251 b 304 221 349 234 326 229 z "},"":{"ha":1650,"x_min":0,"x_max":0,"o":"m 1308 1068 l 1308 1068 l 1308 1068 l 878 807 l 878 851 l 878 894 b 883 960 878 917 878 939 b 911 1020 888 982 898 1002 b 935 1047 918 1030 926 1039 l 905 1072 l 819 990 b 534 1065 736 1046 634 1073 b 269 930 433 1056 335 1008 b 201 796 237 891 213 845 b 201 645 189 747 188 694 b 275 511 213 595 239 548 b 365 447 300 484 331 463 l 212 194 b 153 155 191 183 171 169 b 32 -14 99 111 56 52 l 58 -14 b 299 90 120 51 209 90 b 518 9 378 91 458 61 l 755 216 l 769 218 b 837 127 788 185 810 155 b 1200 -24 930 29 1065 -30 b 1400 37 1270 -21 1340 0 b 1540 190 1460 74 1509 127 b 1577 333 1562 235 1575 284 l 1551 333 b 1429 193 1523 277 1481 228 b 1263 135 1380 160 1322 140 l 1263 463 l 1418 463 l 1587 639 l 1263 639 l 1263 882 b 1284 870 1270 878 1277 874 b 1433 800 1332 844 1382 820 l 1598 972 l 1587 985 l 1543 949 b 1450 985 1511 959 1480 971 b 1308 1068 1400 1008 1352 1036 z m 899 343 b 878 394 891 359 884 376 l 878 760 l 982 823 b 982 378 982 675 982 527 z m 917 310 l 1161 413 l 1161 932 l 1172 939 b 1223 905 1189 927 1206 916 b 1223 133 1223 648 1223 391 b 961 252 1125 136 1028 180 b 917 310 945 270 930 289 z m 678 889 b 699 875 685 885 692 880 l 699 519 l 455 519 z m 642 907 l 377 468 b 274 624 326 506 289 562 b 302 807 260 685 270 753 b 402 900 326 846 361 879 b 535 930 442 921 489 931 b 642 907 571 929 608 921 z m 368 376 l 699 376 l 699 248 l 615 176 b 343 238 536 229 437 251 b 275 221 320 234 297 229 z "},"":{"ha":1039,"x_min":0,"x_max":0,"o":"m 496 -313 b 625 -237 542 -290 586 -266 b 681 -183 646 -220 666 -203 b 706 -118 695 -163 705 -141 b 678 -40 708 -91 697 -64 b 659 -21 673 -33 666 -27 b 823 40 717 -13 774 8 b 957 190 880 77 927 129 b 994 333 979 235 992 284 l 967 333 b 851 198 940 279 900 232 b 694 135 804 165 750 143 b 694 882 694 384 694 633 b 715 870 701 878 708 874 b 864 800 763 844 813 820 l 1029 972 l 1017 985 l 974 949 b 881 985 942 959 911 971 b 739 1068 831 1008 783 1036 l 739 1068 l 739 1068 l 372 844 b 521 984 408 903 460 952 l 508 1004 b 240 809 402 968 307 899 b 129 497 173 720 133 609 b 266 125 125 362 174 224 b 533 -19 336 50 432 -2 l 454 -57 b 560 -120 498 -67 537 -90 b 576 -219 582 -150 588 -187 b 487 -302 563 -254 530 -285 z m 337 346 b 313 422 327 371 319 396 b 302 610 299 484 297 547 b 338 777 306 667 318 724 l 413 822 b 413 378 413 674 413 526 z m 352 312 l 592 413 l 592 932 l 603 939 b 654 905 620 927 637 916 b 654 132 654 648 654 390 b 523 156 609 131 564 139 b 392 252 472 176 427 210 b 352 312 377 271 364 291 z "},"":{"ha":1024,"x_min":0,"x_max":0,"o":"m 652 1332 l 723 1387 l 842 1143 l 830 1134 z m 509 1004 b 238 811 402 970 306 901 b 130 497 171 721 132 610 b 270 129 128 362 178 227 b 632 -24 363 30 497 -29 b 831 37 702 -21 772 0 b 972 190 891 73 941 127 b 1009 333 994 235 1006 284 l 982 333 b 858 197 952 279 909 232 b 695 135 809 164 753 143 b 695 463 695 244 695 353 l 849 463 l 1019 639 l 695 639 b 695 882 695 720 695 801 b 716 870 702 878 709 874 b 864 800 764 844 813 820 l 1030 972 l 1018 985 l 974 949 b 881 985 943 959 912 971 b 739 1068 831 1008 784 1036 l 739 1068 l 739 1068 l 373 844 b 522 984 409 903 461 952 z m 337 346 b 314 422 327 370 319 396 b 303 610 300 484 297 547 b 339 777 307 667 318 724 l 414 822 b 414 378 414 674 414 526 z m 353 312 l 593 413 l 593 932 l 604 939 b 655 905 621 927 638 916 b 655 132 655 648 655 390 b 524 156 610 132 565 140 b 393 252 473 176 428 210 b 353 312 378 271 364 291 z "},"":{"ha":1024,"x_min":0,"x_max":0,"o":"m 842 1332 l 771 1387 l 652 1143 l 664 1134 z m 509 1004 b 238 811 402 970 306 901 b 130 497 171 721 132 610 b 270 129 128 362 178 227 b 632 -24 363 30 497 -29 b 831 37 702 -21 772 0 b 972 190 891 73 941 127 b 1009 333 994 235 1006 284 l 982 333 b 858 197 952 279 909 232 b 695 135 809 164 753 143 b 695 463 695 244 695 353 l 849 463 l 1019 639 l 695 639 b 695 882 695 720 695 801 b 716 870 702 878 709 874 b 864 800 764 844 813 820 l 1030 972 l 1018 985 l 974 949 b 881 985 943 959 912 971 b 739 1068 831 1008 784 1036 l 739 1068 l 739 1068 l 373 844 b 522 984 409 903 461 952 z m 337 346 b 314 422 327 370 319 396 b 303 610 300 484 297 547 b 339 777 307 667 318 724 l 414 822 b 414 378 414 674 414 526 z m 353 312 l 593 413 l 593 932 l 604 939 b 655 905 621 927 638 916 b 655 132 655 648 655 390 b 524 156 610 132 565 140 b 393 252 473 176 428 210 b 353 312 378 271 364 291 z "},"":{"ha":1024,"x_min":0,"x_max":0,"o":"m 517 1108 l 659 1248 l 810 1108 l 912 1218 l 739 1378 l 492 1133 z m 509 1004 b 238 811 402 970 306 901 b 130 497 171 721 132 610 b 270 129 128 362 178 227 b 632 -24 363 30 497 -29 b 831 37 702 -21 772 0 b 972 190 891 73 941 127 b 1009 333 994 235 1006 284 l 982 333 b 858 197 952 279 909 232 b 695 135 809 164 753 143 b 695 463 695 244 695 353 l 849 463 l 1019 639 l 695 639 b 695 882 695 720 695 801 b 716 870 702 878 709 874 b 864 800 764 844 813 820 l 1030 972 l 1018 985 l 974 949 b 881 985 943 959 912 971 b 739 1068 831 1008 784 1036 l 739 1068 l 739 1068 l 373 844 b 522 984 409 903 461 952 z m 337 346 b 314 422 327 370 319 396 b 303 610 300 484 297 547 b 339 777 307 667 318 724 l 414 822 b 414 378 414 674 414 526 z m 353 312 l 593 413 l 593 932 l 604 939 b 655 905 621 927 638 916 b 655 132 655 648 655 390 b 524 156 610 132 565 140 b 393 252 473 176 428 210 b 353 312 378 271 364 291 z "},"":{"ha":1024,"x_min":0,"x_max":0,"o":"m 440 1291 l 567 1164 l 691 1289 l 565 1416 z m 759 1291 l 886 1164 l 1011 1289 l 884 1416 z m 509 1004 b 238 811 402 970 306 901 b 130 497 171 721 132 610 b 270 129 128 362 178 227 b 632 -24 363 30 497 -29 b 831 37 702 -21 772 0 b 972 190 891 73 941 127 b 1009 333 994 235 1006 284 l 982 333 b 858 197 952 279 909 232 b 695 135 809 164 753 143 b 695 463 695 244 695 353 l 849 463 l 1019 639 l 695 639 b 695 882 695 720 695 801 b 716 870 702 878 709 874 b 864 800 764 844 813 820 l 1030 972 l 1018 985 l 974 949 b 881 985 943 959 912 971 b 739 1068 831 1008 784 1036 l 739 1068 l 739 1068 l 373 844 b 522 984 409 903 461 952 z m 337 346 b 314 422 327 370 319 396 b 303 610 300 484 297 547 b 339 777 307 667 318 724 l 414 822 b 414 378 414 674 414 526 z m 353 312 l 593 413 l 593 932 l 604 939 b 655 905 621 927 638 916 b 655 132 655 648 655 390 b 524 156 610 132 565 140 b 393 252 473 176 428 210 b 353 312 378 271 364 291 z "},"":{"ha":854,"x_min":0,"x_max":0,"o":"m 463 1388 l 535 1443 l 654 1199 l 642 1189 z m 156 534 b 153 502 154 523 153 513 b 174 420 153 473 160 445 l 200 420 b 201 455 198 431 198 444 b 230 497 205 472 215 488 b 254 507 237 502 245 505 b 280 508 262 508 271 508 b 331 508 297 508 314 508 b 331 409 331 475 331 442 b 327 337 331 385 331 361 b 305 268 324 313 317 289 b 244 208 291 243 270 222 l 290 208 b 413 262 333 221 375 238 b 489 339 444 281 472 306 b 506 390 498 355 503 372 b 510 445 509 408 510 427 l 510 552 l 510 749 b 533 881 510 794 514 840 b 583 948 544 907 562 930 b 651 1000 605 967 629 982 b 705 1059 672 1017 690 1037 l 707 1096 b 653 1062 692 1081 673 1070 b 567 1052 626 1052 596 1049 b 466 1073 532 1055 499 1065 b 363 1085 432 1082 398 1088 b 239 1033 318 1081 274 1061 b 131 885 191 994 155 942 l 164 885 b 206 930 172 904 187 921 b 261 940 223 938 242 941 b 348 928 291 940 319 933 b 436 921 377 924 407 920 b 528 936 467 921 498 927 b 417 849 491 907 454 877 b 351 785 392 830 367 811 b 334 743 343 772 337 758 b 331 697 331 727 331 712 l 331 660 b 234 636 297 655 264 650 b 183 594 214 626 196 612 b 156 534 169 576 161 555 z m 215 -117 l 215 -139 b 124 -102 182 -136 150 -123 b 69 -20 98 -81 78 -52 b 86 108 56 22 63 70 b 193 180 109 145 150 171 b 333 163 240 189 289 179 b 465 108 378 147 421 125 b 547 81 492 97 519 88 b 580 117 562 88 574 101 b 588 167 587 133 588 150 l 588 748 b 593 831 588 776 588 804 b 623 909 598 859 608 885 b 745 1021 652 956 699 990 l 826 1075 l 847 1052 b 794 986 823 1037 804 1013 b 783 901 784 959 783 930 l 783 325 b 676 175 752 272 716 222 b 492 4 622 111 560 54 b 459 -16 481 -3 471 -10 b 422 -26 447 -21 435 -24 b 346 -22 397 -29 371 -25 l 218 -5 b 192 -4 209 -4 201 -3 b 168 -13 183 -5 175 -8 b 151 -33 160 -18 155 -25 b 147 -58 148 -41 146 -50 b 170 -100 149 -75 157 -90 b 215 -117 183 -111 199 -117 z "},"":{"ha":854,"x_min":0,"x_max":0,"o":"m 654 1388 l 582 1443 l 463 1199 l 475 1189 z m 156 534 b 153 502 154 523 153 513 b 174 420 153 473 160 445 l 200 420 b 201 455 198 431 198 444 b 230 497 205 472 215 488 b 254 507 237 502 245 505 b 280 508 262 508 271 508 b 331 508 297 508 314 508 b 331 409 331 475 331 442 b 327 337 331 385 331 361 b 305 268 324 313 317 289 b 244 208 291 243 270 222 l 290 208 b 413 262 333 221 375 238 b 489 339 444 281 472 306 b 506 390 498 355 503 372 b 510 445 509 408 510 427 l 510 552 l 510 749 b 533 881 510 794 514 840 b 583 948 544 907 562 930 b 651 1000 605 967 629 982 b 705 1059 672 1017 690 1037 l 707 1096 b 653 1062 692 1081 673 1070 b 567 1052 626 1052 596 1049 b 466 1073 532 1055 499 1065 b 363 1085 432 1082 398 1088 b 239 1033 318 1081 274 1061 b 131 885 191 994 155 942 l 164 885 b 206 930 172 904 187 921 b 261 940 223 938 242 941 b 348 928 291 940 319 933 b 436 921 377 924 407 920 b 528 936 467 921 498 927 b 417 849 491 907 454 877 b 351 785 392 830 367 811 b 334 743 343 772 337 758 b 331 697 331 727 331 712 l 331 660 b 234 636 297 655 264 650 b 183 594 214 626 196 612 b 156 534 169 576 161 555 z m 215 -117 l 215 -139 b 124 -102 182 -136 150 -123 b 69 -20 98 -81 78 -52 b 86 108 56 22 63 70 b 193 180 109 145 150 171 b 333 163 240 189 289 179 b 465 108 378 147 421 125 b 547 81 492 97 519 88 b 580 117 562 88 574 101 b 588 167 587 133 588 150 l 588 748 b 593 831 588 776 588 804 b 623 909 598 859 608 885 b 745 1021 652 956 699 990 l 826 1075 l 847 1052 b 794 986 823 1037 804 1013 b 783 901 784 959 783 930 l 783 325 b 676 175 752 272 716 222 b 492 4 622 111 560 54 b 459 -16 481 -3 471 -10 b 422 -26 447 -21 435 -24 b 346 -22 397 -29 371 -25 l 218 -5 b 192 -4 209 -4 201 -3 b 168 -13 183 -5 175 -8 b 151 -33 160 -18 155 -25 b 147 -58 148 -41 146 -50 b 170 -100 149 -75 157 -90 b 215 -117 183 -111 199 -117 z "},"":{"ha":854,"x_min":0,"x_max":0,"o":"m 329 1164 l 470 1304 l 621 1164 l 723 1273 l 551 1434 l 304 1189 z m 156 534 b 153 502 154 523 153 513 b 174 420 153 473 160 445 l 200 420 b 201 455 198 431 198 444 b 230 497 205 472 215 488 b 254 507 237 502 245 505 b 280 508 262 508 271 508 b 331 508 297 508 314 508 b 331 409 331 475 331 442 b 327 337 331 385 331 361 b 305 268 324 313 317 289 b 244 208 291 243 270 222 l 290 208 b 413 262 333 221 375 238 b 489 339 444 281 472 306 b 506 390 498 355 503 372 b 510 445 509 408 510 427 l 510 552 l 510 749 b 533 881 510 794 514 840 b 583 948 544 907 562 930 b 651 1000 605 967 629 982 b 705 1059 672 1017 690 1037 l 707 1096 b 653 1062 692 1081 673 1070 b 567 1052 626 1052 596 1049 b 466 1073 532 1055 499 1065 b 363 1085 432 1082 398 1088 b 239 1033 318 1081 274 1061 b 131 885 191 994 155 942 l 164 885 b 206 930 172 904 187 921 b 261 940 223 938 242 941 b 348 928 291 940 319 933 b 436 921 377 924 407 920 b 528 936 467 921 498 927 b 417 849 491 907 454 877 b 351 785 392 830 367 811 b 334 743 343 772 337 758 b 331 697 331 727 331 712 l 331 660 b 234 636 297 655 264 650 b 183 594 214 626 196 612 b 156 534 169 576 161 555 z m 215 -117 l 215 -139 b 124 -102 182 -136 150 -123 b 69 -20 98 -81 78 -52 b 86 108 56 22 63 70 b 193 180 109 145 150 171 b 333 163 240 189 289 179 b 465 108 378 147 421 125 b 547 81 492 97 519 88 b 580 117 562 88 574 101 b 588 167 587 133 588 150 l 588 748 b 593 831 588 776 588 804 b 623 909 598 859 608 885 b 745 1021 652 956 699 990 l 826 1075 l 847 1052 b 794 986 823 1037 804 1013 b 783 901 784 959 783 930 l 783 325 b 676 175 752 272 716 222 b 492 4 622 111 560 54 b 459 -16 481 -3 471 -10 b 422 -26 447 -21 435 -24 b 346 -22 397 -29 371 -25 l 218 -5 b 192 -4 209 -4 201 -3 b 168 -13 183 -5 175 -8 b 151 -33 160 -18 155 -25 b 147 -58 148 -41 146 -50 b 170 -100 149 -75 157 -90 b 215 -117 183 -111 199 -117 z "},"":{"ha":854,"x_min":0,"x_max":0,"o":"m 251 1346 l 378 1220 l 503 1344 l 376 1471 z m 571 1346 l 698 1220 l 822 1344 l 695 1471 z m 156 534 b 153 502 154 523 153 513 b 174 420 153 473 160 445 l 200 420 b 201 455 198 431 198 444 b 230 497 205 472 215 488 b 254 507 237 502 245 505 b 280 508 262 508 271 508 b 331 508 297 508 314 508 b 331 409 331 475 331 442 b 327 337 331 385 331 361 b 305 268 324 313 317 289 b 244 208 291 243 270 222 l 290 208 b 413 262 333 221 375 238 b 489 339 444 281 472 306 b 506 390 498 355 503 372 b 510 445 509 408 510 427 l 510 552 l 510 749 b 533 881 510 794 514 840 b 583 948 544 907 562 930 b 651 1000 605 967 629 982 b 705 1059 672 1017 690 1037 l 707 1096 b 653 1062 692 1081 673 1070 b 567 1052 626 1052 596 1049 b 466 1073 532 1055 499 1065 b 363 1085 432 1082 398 1088 b 239 1033 318 1081 274 1061 b 131 885 191 994 155 942 l 164 885 b 206 930 172 904 187 921 b 261 940 223 938 242 941 b 348 928 291 940 319 933 b 436 921 377 924 407 920 b 528 936 467 921 498 927 b 417 849 491 907 454 877 b 351 785 392 830 367 811 b 334 743 343 772 337 758 b 331 697 331 727 331 712 l 331 660 b 234 636 297 655 264 650 b 183 594 214 626 196 612 b 156 534 169 576 161 555 z m 215 -117 l 215 -139 b 124 -102 182 -136 150 -123 b 69 -20 98 -81 78 -52 b 86 108 56 22 63 70 b 193 180 109 145 150 171 b 333 163 240 189 289 179 b 465 108 378 147 421 125 b 547 81 492 97 519 88 b 580 117 562 88 574 101 b 588 167 587 133 588 150 l 588 748 b 593 831 588 776 588 804 b 623 909 598 859 608 885 b 745 1021 652 956 699 990 l 826 1075 l 847 1052 b 794 986 823 1037 804 1013 b 783 901 784 959 783 930 l 783 325 b 676 175 752 272 716 222 b 492 4 622 111 560 54 b 459 -16 481 -3 471 -10 b 422 -26 447 -21 435 -24 b 346 -22 397 -29 371 -25 l 218 -5 b 192 -4 209 -4 201 -3 b 168 -13 183 -5 175 -8 b 151 -33 160 -18 155 -25 b 147 -58 148 -41 146 -50 b 170 -100 149 -75 157 -90 b 215 -117 183 -111 199 -117 z "},"":{"ha":1038,"x_min":0,"x_max":0,"o":"m 111 198 l 124 164 b 334 300 207 185 285 230 b 368 373 349 322 361 347 b 375 454 374 400 375 427 b 375 465 375 458 375 462 l 425 469 b 425 404 425 447 425 426 b 415 333 425 379 423 354 b 378 271 407 311 394 291 b 307 195 357 245 332 220 b 21 -44 186 157 80 69 l 60 -44 b 349 64 138 27 244 67 b 578 -13 431 62 512 35 l 926 178 b 983 325 949 225 968 274 b 1016 611 1009 418 1021 515 b 927 894 1010 711 986 813 b 794 1003 893 942 847 980 b 623 1028 740 1025 681 1028 l 244 1028 b 211 1029 233 1028 222 1028 b 180 1039 200 1031 190 1034 b 155 1060 170 1044 162 1052 b 142 1090 148 1069 144 1079 l 112 1091 b 98 985 103 1057 98 1021 b 105 932 99 967 101 950 b 130 885 110 915 118 898 b 161 863 138 875 149 868 b 199 858 173 859 186 858 l 392 858 l 282 787 b 215 727 257 770 231 753 b 199 685 207 714 202 700 b 196 640 196 670 196 655 b 196 613 196 631 196 622 b 117 585 168 607 141 599 b 39 488 80 563 50 529 b 56 371 28 449 34 405 l 83 371 b 84 401 81 381 81 391 b 114 440 88 417 99 431 b 137 449 121 444 129 447 b 162 451 146 450 154 451 l 196 454 b 196 448 196 452 196 450 b 193 338 196 411 197 374 b 155 236 188 302 178 265 b 111 198 143 221 128 207 z m 375 625 l 375 704 b 389 791 375 734 377 764 b 442 858 400 818 421 839 l 487 858 b 442 784 467 837 452 812 b 425 654 426 741 425 696 l 425 631 b 412 629 420 630 416 630 b 375 625 400 627 387 626 z m 576 200 b 576 382 576 261 576 321 l 829 510 b 813 338 828 452 823 395 b 751 115 800 262 779 187 b 576 200 699 155 639 184 z m 576 858 b 669 846 607 858 639 856 b 753 788 701 834 730 814 b 805 693 777 761 794 728 l 576 577 b 576 858 576 671 576 765 z m 536 209 b 377 211 484 218 430 219 b 408 247 388 222 398 234 b 452 320 426 268 442 292 b 463 404 462 348 463 377 l 463 546 l 464 654 b 478 771 464 695 465 735 b 536 851 490 802 510 830 b 536 209 536 637 536 423 z m 576 533 l 816 654 b 827 569 822 626 825 598 b 828 554 827 564 828 559 l 576 426 z "},"":{"ha":963,"x_min":0,"x_max":0,"o":"m 811 586 z m 355 1121 b 390 1149 365 1132 377 1142 b 428 1166 402 1157 415 1162 b 523 1163 459 1175 492 1172 b 615 1132 554 1155 584 1141 b 695 1122 641 1124 668 1120 b 773 1143 722 1123 748 1130 b 849 1208 802 1158 828 1181 b 887 1275 865 1228 878 1251 l 852 1292 b 822 1257 845 1278 834 1266 b 784 1240 810 1249 797 1243 b 706 1242 758 1234 732 1237 b 630 1264 680 1248 655 1256 b 534 1284 599 1274 567 1283 b 439 1263 502 1286 469 1279 b 363 1198 410 1248 385 1224 b 319 1138 347 1179 332 1159 z m 204 387 l 211 407 b 193 437 201 413 194 425 b 198 460 193 445 195 453 b 215 476 202 466 208 472 b 237 483 222 480 229 482 b 260 484 245 484 253 484 b 275 484 265 484 270 484 l 275 257 b 203 246 251 257 227 253 b 106 184 166 235 132 214 b 64 68 79 152 64 110 b 107 -48 64 26 80 -16 b 182 -99 127 -71 153 -88 b 272 -107 210 -109 242 -112 l 278 -81 b 230 -72 262 -83 245 -80 b 194 -38 215 -65 202 -53 b 186 -9 189 -29 186 -19 b 191 21 185 1 187 12 b 211 45 195 31 202 39 b 239 58 219 52 229 56 b 300 51 259 62 281 59 b 372 0 328 40 352 22 l 551 199 l 531 219 l 485 166 b 319 253 440 211 381 242 b 314 254 317 253 316 253 l 314 807 b 325 788 318 801 322 794 l 373 707 l 791 0 l 843 0 l 843 817 b 907 830 865 818 887 823 b 975 874 933 840 956 855 b 1019 958 998 897 1013 927 b 1004 1051 1024 990 1018 1023 l 985 1052 b 965 1007 983 1036 976 1020 b 924 982 954 995 940 986 b 871 983 907 978 888 978 b 824 1007 854 988 839 996 b 792 1038 812 1016 801 1027 l 765 1039 l 592 839 l 612 819 l 665 878 b 727 837 683 861 704 847 b 809 817 753 825 781 819 b 811 586 811 740 812 663 b 804 359 811 510 808 435 l 470 918 b 415 997 452 944 436 973 b 344 1045 397 1019 372 1036 b 234 1041 308 1057 269 1055 b 150 970 199 1027 169 1002 b 125 832 124 929 116 879 l 152 825 b 159 851 154 834 156 843 b 175 880 163 862 168 872 b 202 898 182 889 192 895 b 239 893 215 901 228 899 b 268 869 250 887 260 878 b 275 860 271 866 273 863 l 275 673 b 225 666 258 673 241 670 b 154 625 199 658 174 644 b 106 504 121 594 102 548 b 137 430 109 477 120 451 b 204 387 154 409 178 394 z "},"":{"ha":1014,"x_min":0,"x_max":0,"o":"m 531 1393 l 602 1448 l 721 1204 l 709 1195 z m 276 838 l 362 874 b 362 425 362 724 362 574 l 266 383 b 261 396 264 387 263 392 b 231 620 238 468 228 544 b 276 838 233 694 248 769 z m 300 890 b 303 895 301 892 302 893 b 457 1066 340 963 393 1022 l 436 1092 b 133 816 307 1040 198 940 b 60 466 77 709 53 586 b 177 128 68 345 106 225 b 326 -1 217 75 267 30 b 518 -38 384 -31 452 -44 b 676 13 573 -33 627 -14 b 808 116 725 41 768 77 b 964 333 871 179 926 252 b 1022 587 1002 412 1023 499 b 956 838 1021 674 999 761 b 702 1063 899 938 808 1019 z m 279 349 l 542 459 l 542 948 l 545 949 b 606 910 566 937 586 924 b 606 113 606 644 606 379 b 605 113 606 113 605 113 b 482 135 563 111 521 119 b 378 203 444 150 408 174 b 279 349 335 244 303 295 z m 646 118 b 646 383 646 207 646 295 l 876 499 b 839 267 887 420 877 337 b 742 159 816 224 783 186 b 646 118 713 139 680 126 z m 646 879 b 764 756 690 843 730 802 b 823 663 786 727 806 695 l 646 573 b 646 879 646 675 646 777 z m 646 529 l 840 627 b 868 540 852 599 861 570 l 646 428 z "},"":{"ha":1014,"x_min":0,"x_max":0,"o":"m 721 1393 l 650 1448 l 531 1204 l 543 1195 z m 276 838 l 362 874 b 362 425 362 724 362 574 l 266 383 b 261 396 264 387 263 392 b 231 620 238 468 228 544 b 276 838 233 694 248 769 z m 300 890 b 303 895 301 892 302 893 b 457 1066 340 963 393 1022 l 436 1092 b 133 816 307 1040 198 940 b 60 466 77 709 53 586 b 177 128 68 345 106 225 b 326 -1 217 75 267 30 b 518 -38 384 -31 452 -44 b 676 13 573 -33 627 -14 b 808 116 725 41 768 77 b 964 333 871 179 926 252 b 1022 587 1002 412 1023 499 b 956 838 1021 674 999 761 b 702 1063 899 938 808 1019 z m 279 349 l 542 459 l 542 948 l 545 949 b 606 910 566 937 586 924 b 606 113 606 644 606 379 b 605 113 606 113 605 113 b 482 135 563 111 521 119 b 378 203 444 150 408 174 b 279 349 335 244 303 295 z m 646 118 b 646 383 646 207 646 295 l 876 499 b 839 267 887 420 877 337 b 742 159 816 224 783 186 b 646 118 713 139 680 126 z m 646 879 b 764 756 690 843 730 802 b 823 663 786 727 806 695 l 646 573 b 646 879 646 675 646 777 z m 646 529 l 840 627 b 868 540 852 599 861 570 l 646 428 z "},"":{"ha":1014,"x_min":0,"x_max":0,"o":"m 396 1169 l 538 1309 l 689 1169 l 791 1279 l 619 1439 l 371 1194 z m 276 838 l 362 874 b 362 425 362 724 362 574 l 266 383 b 261 396 264 387 263 392 b 231 620 238 468 228 544 b 276 838 233 694 248 769 z m 300 890 b 303 895 301 892 302 893 b 457 1066 340 963 393 1022 l 436 1092 b 133 816 307 1040 198 940 b 60 466 77 709 53 586 b 177 128 68 345 106 225 b 326 -1 217 75 267 30 b 518 -38 384 -31 452 -44 b 676 13 573 -33 627 -14 b 808 116 725 41 768 77 b 964 333 871 179 926 252 b 1022 587 1002 412 1023 499 b 956 838 1021 674 999 761 b 702 1063 899 938 808 1019 z m 279 349 l 542 459 l 542 948 l 545 949 b 606 910 566 937 586 924 b 606 113 606 644 606 379 b 605 113 606 113 605 113 b 482 135 563 111 521 119 b 378 203 444 150 408 174 b 279 349 335 244 303 295 z m 646 118 b 646 383 646 207 646 295 l 876 499 b 839 267 887 420 877 337 b 742 159 816 224 783 186 b 646 118 713 139 680 126 z m 646 879 b 764 756 690 843 730 802 b 823 663 786 727 806 695 l 646 573 b 646 879 646 675 646 777 z m 646 529 l 840 627 b 868 540 852 599 861 570 l 646 428 z "},"":{"ha":1014,"x_min":0,"x_max":0,"o":"m 360 1193 b 395 1222 370 1204 382 1214 b 433 1238 407 1229 420 1235 b 528 1236 464 1247 497 1244 b 620 1204 559 1227 589 1213 b 700 1194 646 1197 673 1192 b 778 1215 727 1195 753 1203 b 854 1281 807 1231 833 1253 b 893 1347 870 1301 883 1323 l 857 1364 b 827 1329 850 1350 839 1338 b 789 1312 816 1321 802 1315 b 711 1314 763 1307 737 1309 b 635 1336 685 1320 661 1328 b 540 1357 604 1346 572 1355 b 444 1336 507 1358 474 1351 b 368 1270 415 1320 390 1296 b 324 1210 352 1251 338 1231 z m 276 838 l 362 874 b 362 425 362 724 362 574 l 266 383 b 261 396 264 387 263 392 b 231 620 238 468 228 544 b 276 838 233 694 248 769 z m 300 890 b 303 895 301 892 302 893 b 457 1066 340 963 393 1022 l 436 1092 b 133 816 307 1040 198 940 b 60 466 77 709 53 586 b 177 128 68 345 106 225 b 326 -1 217 75 267 30 b 518 -38 384 -31 452 -44 b 676 13 573 -33 627 -14 b 808 116 725 41 768 77 b 964 333 871 179 926 252 b 1022 587 1002 412 1023 499 b 956 838 1021 674 999 761 b 702 1063 899 938 808 1019 z m 279 349 l 542 459 l 542 948 l 545 949 b 606 910 566 937 586 924 b 606 113 606 644 606 379 b 605 113 606 113 605 113 b 482 135 563 111 521 119 b 378 203 444 150 408 174 b 279 349 335 244 303 295 z m 646 118 b 646 383 646 207 646 295 l 876 499 b 839 267 887 420 877 337 b 742 159 816 224 783 186 b 646 118 713 139 680 126 z m 646 879 b 764 756 690 843 730 802 b 823 663 786 727 806 695 l 646 573 b 646 879 646 675 646 777 z m 646 529 l 840 627 b 868 540 852 599 861 570 l 646 428 z "},"":{"ha":1014,"x_min":0,"x_max":0,"o":"m 319 1352 l 446 1225 l 571 1350 l 444 1477 z m 638 1352 l 765 1225 l 890 1350 l 763 1477 z m 276 838 l 362 874 b 362 425 362 724 362 574 l 266 383 b 261 396 264 387 263 392 b 231 620 238 468 228 544 b 276 838 233 694 248 769 z m 300 890 b 303 895 301 892 302 893 b 457 1066 340 963 393 1022 l 436 1092 b 133 816 307 1040 198 940 b 60 466 77 709 53 586 b 177 128 68 345 106 225 b 326 -1 217 75 267 30 b 518 -38 384 -31 452 -44 b 676 13 573 -33 627 -14 b 808 116 725 41 768 77 b 964 333 871 179 926 252 b 1022 587 1002 412 1023 499 b 956 838 1021 674 999 761 b 702 1063 899 938 808 1019 z m 279 349 l 542 459 l 542 948 l 545 949 b 606 910 566 937 586 924 b 606 113 606 644 606 379 b 605 113 606 113 605 113 b 482 135 563 111 521 119 b 378 203 444 150 408 174 b 279 349 335 244 303 295 z m 646 118 b 646 383 646 207 646 295 l 876 499 b 839 267 887 420 877 337 b 742 159 816 224 783 186 b 646 118 713 139 680 126 z m 646 879 b 764 756 690 843 730 802 b 823 663 786 727 806 695 l 646 573 b 646 879 646 675 646 777 z m 646 529 l 840 627 b 868 540 852 599 861 570 l 646 428 z "},"":{"ha":797,"x_min":0,"x_max":0,"o":"m 104 700 l 310 488 l 96 278 l 296 278 l 408 387 l 514 278 l 715 278 l 511 488 l 728 700 l 528 700 l 413 588 l 304 700 z "},"":{"ha":1004,"x_min":0,"x_max":0,"o":"m 245 -83 l 291 -3 b 480 -38 349 -31 415 -44 b 638 13 535 -33 589 -14 b 770 116 687 41 730 77 b 926 333 834 179 888 252 b 984 587 964 412 985 499 b 918 837 983 674 961 761 b 834 948 895 878 867 915 l 890 1044 l 855 1064 l 805 976 b 664 1063 763 1012 715 1042 l 262 890 b 265 895 263 892 264 893 b 419 1066 302 963 355 1022 l 398 1092 b 95 816 269 1040 160 940 b 22 466 39 709 15 586 b 139 128 30 345 68 225 b 257 17 172 85 211 46 l 211 -64 z m 238 838 l 324 874 b 324 425 324 724 324 574 l 228 383 b 223 396 226 387 225 392 b 193 620 200 468 190 544 b 238 838 195 694 210 769 z m 387 165 l 475 318 l 838 499 b 801 267 849 420 839 337 b 704 159 778 224 745 186 b 567 113 664 132 616 116 b 444 135 525 111 483 119 b 387 165 424 143 405 153 z m 725 757 b 726 756 726 757 726 756 b 785 663 748 727 768 695 l 625 582 z m 355 190 b 340 203 350 194 345 199 b 241 349 297 244 265 295 l 504 459 l 504 948 l 507 949 b 699 790 579 907 644 854 z m 592 524 l 594 522 l 802 627 b 830 540 814 599 823 570 l 510 380 z "},"":{"ha":1161,"x_min":0,"x_max":0,"o":"m 591 1354 l 663 1409 l 781 1165 l 769 1156 z m 63 865 l 95 865 b 122 908 100 881 109 896 b 168 931 135 920 151 928 b 254 923 197 938 226 932 b 338 899 282 915 309 903 b 429 908 369 894 401 896 b 221 708 342 864 268 793 b 164 408 171 618 150 511 b 324 107 179 293 237 184 b 642 -16 410 30 526 -15 l 857 131 l 1013 0 l 1197 151 l 1177 171 l 1133 135 l 1066 193 l 1066 923 l 1127 972 l 1103 1002 l 1047 957 l 926 1057 l 737 935 l 737 1062 l 708 1061 b 555 940 655 1023 602 985 b 485 846 526 913 500 882 b 466 731 469 810 466 770 l 466 610 l 466 392 l 390 359 b 351 517 368 409 356 463 b 390 774 344 604 358 693 b 603 1034 433 879 508 972 l 571 1067 b 557 1056 566 1063 561 1059 b 497 1019 538 1041 519 1027 b 446 1011 480 1013 463 1010 b 396 1024 429 1013 412 1017 b 348 1044 380 1030 364 1038 b 299 1058 332 1051 316 1056 b 239 1052 279 1061 258 1059 b 187 1024 220 1046 203 1036 b 63 865 133 982 95 924 z m 697 1009 b 697 130 697 716 697 423 b 540 181 642 134 587 151 b 406 326 483 216 437 267 l 645 426 l 645 790 l 645 851 b 660 957 645 887 647 924 b 697 1009 669 977 681 995 z m 737 593 b 737 895 737 693 737 794 l 796 932 l 873 848 l 873 661 z m 737 548 l 873 617 l 873 516 l 737 447 z m 737 402 l 873 471 l 873 208 l 758 132 b 737 130 751 131 744 130 b 737 402 737 221 737 312 z "},"":{"ha":1161,"x_min":0,"x_max":0,"o":"m 781 1354 l 710 1409 l 591 1165 l 603 1156 z m 63 865 l 95 865 b 122 908 100 881 109 896 b 168 931 135 920 151 928 b 254 923 197 938 226 932 b 338 899 282 915 309 903 b 429 908 369 894 401 896 b 221 708 342 864 268 793 b 164 408 171 618 150 511 b 324 107 179 293 237 184 b 642 -16 410 30 526 -15 l 857 131 l 1013 0 l 1197 151 l 1177 171 l 1133 135 l 1066 193 l 1066 923 l 1127 972 l 1103 1002 l 1047 957 l 926 1057 l 737 935 l 737 1062 l 708 1061 b 555 940 655 1023 602 985 b 485 846 526 913 500 882 b 466 731 469 810 466 770 l 466 610 l 466 392 l 390 359 b 351 517 368 409 356 463 b 390 774 344 604 358 693 b 603 1034 433 879 508 972 l 571 1067 b 557 1056 566 1063 561 1059 b 497 1019 538 1041 519 1027 b 446 1011 480 1013 463 1010 b 396 1024 429 1013 412 1017 b 348 1044 380 1030 364 1038 b 299 1058 332 1051 316 1056 b 239 1052 279 1061 258 1059 b 187 1024 220 1046 203 1036 b 63 865 133 982 95 924 z m 697 1009 b 697 130 697 716 697 423 b 540 181 642 134 587 151 b 406 326 483 216 437 267 l 645 426 l 645 790 l 645 851 b 660 957 645 887 647 924 b 697 1009 669 977 681 995 z m 737 593 b 737 895 737 693 737 794 l 796 932 l 873 848 l 873 661 z m 737 548 l 873 617 l 873 516 l 737 447 z m 737 402 l 873 471 l 873 208 l 758 132 b 737 130 751 131 744 130 b 737 402 737 221 737 312 z "},"":{"ha":1161,"x_min":0,"x_max":0,"o":"m 457 1130 l 598 1271 l 749 1130 l 851 1240 l 679 1400 l 432 1155 z m 63 865 l 95 865 b 122 908 100 881 109 896 b 168 931 135 920 151 928 b 254 923 197 938 226 932 b 338 899 282 915 309 903 b 429 908 369 894 401 896 b 221 708 342 864 268 793 b 164 408 171 618 150 511 b 324 107 179 293 237 184 b 642 -16 410 30 526 -15 l 857 131 l 1013 0 l 1197 151 l 1177 171 l 1133 135 l 1066 193 l 1066 923 l 1127 972 l 1103 1002 l 1047 957 l 926 1057 l 737 935 l 737 1062 l 708 1061 b 555 940 655 1023 602 985 b 485 846 526 913 500 882 b 466 731 469 810 466 770 l 466 610 l 466 392 l 390 359 b 351 517 368 409 356 463 b 390 774 344 604 358 693 b 603 1034 433 879 508 972 l 571 1067 b 557 1056 566 1063 561 1059 b 497 1019 538 1041 519 1027 b 446 1011 480 1013 463 1010 b 396 1024 429 1013 412 1017 b 348 1044 380 1030 364 1038 b 299 1058 332 1051 316 1056 b 239 1052 279 1061 258 1059 b 187 1024 220 1046 203 1036 b 63 865 133 982 95 924 z m 697 1009 b 697 130 697 716 697 423 b 540 181 642 134 587 151 b 406 326 483 216 437 267 l 645 426 l 645 790 l 645 851 b 660 957 645 887 647 924 b 697 1009 669 977 681 995 z m 737 593 b 737 895 737 693 737 794 l 796 932 l 873 848 l 873 661 z m 737 548 l 873 617 l 873 516 l 737 447 z m 737 402 l 873 471 l 873 208 l 758 132 b 737 130 751 131 744 130 b 737 402 737 221 737 312 z "},"":{"ha":1161,"x_min":0,"x_max":0,"o":"m 379 1313 l 506 1186 l 631 1311 l 504 1438 z m 698 1313 l 825 1186 l 950 1311 l 823 1438 z m 63 865 l 95 865 b 122 908 100 881 109 896 b 168 931 135 920 151 928 b 254 923 197 938 226 932 b 338 899 282 915 309 903 b 429 908 369 894 401 896 b 221 708 342 864 268 793 b 164 408 171 618 150 511 b 324 107 179 293 237 184 b 642 -16 410 30 526 -15 l 857 131 l 1013 0 l 1197 151 l 1177 171 l 1133 135 l 1066 193 l 1066 923 l 1127 972 l 1103 1002 l 1047 957 l 926 1057 l 737 935 l 737 1062 l 708 1061 b 555 940 655 1023 602 985 b 485 846 526 913 500 882 b 466 731 469 810 466 770 l 466 610 l 466 392 l 390 359 b 351 517 368 409 356 463 b 390 774 344 604 358 693 b 603 1034 433 879 508 972 l 571 1067 b 557 1056 566 1063 561 1059 b 497 1019 538 1041 519 1027 b 446 1011 480 1013 463 1010 b 396 1024 429 1013 412 1017 b 348 1044 380 1030 364 1038 b 299 1058 332 1051 316 1056 b 239 1052 279 1061 258 1059 b 187 1024 220 1046 203 1036 b 63 865 133 982 95 924 z m 697 1009 b 697 130 697 716 697 423 b 540 181 642 134 587 151 b 406 326 483 216 437 267 l 645 426 l 645 790 l 645 851 b 660 957 645 887 647 924 b 697 1009 669 977 681 995 z m 737 593 b 737 895 737 693 737 794 l 796 932 l 873 848 l 873 661 z m 737 548 l 873 617 l 873 516 l 737 447 z m 737 402 l 873 471 l 873 208 l 758 132 b 737 130 751 131 744 130 b 737 402 737 221 737 312 z "},"":{"ha":992,"x_min":0,"x_max":0,"o":"m 625 1304 l 553 1359 l 434 1115 l 446 1106 z m 170 322 l 177 341 b 159 372 167 347 160 359 b 165 394 159 379 161 387 b 181 410 169 401 175 406 b 203 418 188 414 196 416 b 227 419 211 419 219 419 b 250 419 235 419 243 419 l 250 96 b 231 88 244 94 238 91 b 135 -9 190 66 155 33 b 125 -144 115 -51 110 -100 b 173 -220 134 -173 151 -200 b 252 -264 196 -241 223 -255 b 402 -267 301 -278 352 -274 b 551 -240 452 -259 502 -248 b 702 -214 602 -231 651 -219 b 762 -221 722 -212 744 -213 b 786 -239 771 -225 780 -231 b 797 -267 792 -247 796 -257 b 790 -300 798 -279 796 -290 b 765 -322 784 -309 775 -317 b 751 -327 760 -324 756 -326 l 757 -353 b 809 -337 775 -350 792 -345 b 903 -254 848 -320 883 -292 b 921 -193 914 -235 920 -214 b 909 -131 922 -172 918 -150 b 868 -80 899 -111 885 -93 b 810 -50 851 -66 831 -56 b 680 -40 768 -37 723 -37 b 504 -67 620 -45 562 -54 b 330 -105 446 -80 389 -101 b 249 -87 302 -106 273 -102 b 221 -56 238 -79 228 -69 b 213 -16 215 -44 212 -30 b 229 26 214 -1 220 14 b 264 54 238 38 250 47 b 367 73 295 71 331 74 b 472 60 402 72 437 66 b 680 17 541 47 610 28 b 768 14 709 13 739 11 b 850 45 797 18 826 28 b 901 116 874 63 892 88 b 912 204 911 144 912 175 l 911 865 l 981 922 l 957 952 l 905 910 l 764 1032 l 575 879 l 575 1019 l 536 1019 b 536 79 536 705 536 392 b 523 82 531 80 527 81 b 445 101 497 88 471 95 l 445 839 b 441 903 445 861 445 882 b 416 963 437 925 429 945 b 368 1006 404 981 387 995 b 307 1025 349 1016 328 1023 b 205 1008 272 1029 236 1023 b 127 941 173 994 146 970 b 98 852 110 915 100 883 l 132 852 b 144 885 134 863 138 875 b 184 917 153 900 167 912 b 210 917 192 919 201 919 b 232 904 218 915 226 910 b 248 872 241 896 246 884 b 250 836 250 860 250 848 l 250 606 b 192 600 231 608 211 606 b 120 559 165 593 140 578 b 73 438 88 528 69 483 b 103 364 75 411 86 385 b 170 322 120 344 144 328 z m 575 75 b 575 402 575 184 575 293 b 638 424 594 415 615 422 b 717 397 666 425 695 415 l 717 275 b 704 162 717 237 717 198 b 675 114 698 145 688 128 b 627 83 661 100 645 90 b 575 75 611 77 593 75 z m 575 830 l 642 883 l 717 825 b 717 610 717 754 717 682 b 638 584 695 592 666 583 b 575 606 615 585 594 593 b 575 830 575 681 575 755 z m 575 565 b 639 544 594 553 616 545 b 717 570 667 543 695 553 l 717 438 b 639 464 695 455 667 465 b 575 442 616 463 594 455 z "},"":{"ha":971,"x_min":0,"x_max":0,"o":"m 57 482 b 63 405 52 456 54 429 l 95 405 b 95 410 95 406 95 408 b 109 448 95 423 100 438 b 127 461 114 454 120 458 b 149 466 134 464 141 466 b 194 467 164 468 194 467 b 217 467 202 467 210 467 l 217 236 b 21 47 136 193 66 127 l 53 47 b 217 147 97 94 155 129 l 217 -155 l 217 -155 l 412 -155 l 499 -155 l 499 -115 l 499 -115 b 499 109 499 -40 499 34 b 553 69 519 97 537 84 l 918 265 l 918 707 b 841 797 895 739 869 769 b 746 876 811 826 780 853 l 499 697 b 499 1024 499 806 499 915 l 459 1024 b 459 668 459 905 459 786 l 412 634 l 412 658 b 403 870 412 729 417 801 b 360 967 395 905 382 939 b 274 1025 339 995 308 1017 b 170 1013 239 1033 202 1029 b 94 941 138 997 112 972 b 65 852 78 914 68 883 l 99 852 b 111 885 101 863 105 875 b 151 917 120 900 134 912 b 177 917 159 919 168 919 b 199 904 185 915 193 910 b 215 872 208 896 213 884 b 217 836 217 860 217 848 l 217 606 b 146 593 193 607 168 603 b 88 548 123 583 103 568 b 57 482 72 529 62 506 z m 499 518 l 499 653 l 610 732 b 673 681 632 716 653 699 b 725 632 691 665 708 649 z m 499 473 l 741 595 l 741 494 l 499 372 z m 499 327 l 741 449 l 741 216 l 710 198 b 499 284 648 243 575 273 z m 459 625 b 459 288 459 513 459 400 b 412 288 444 289 428 289 l 412 592 z m 459 130 b 459 -115 459 48 459 -34 l 412 -115 l 412 147 b 459 130 429 143 444 137 z "},"":{"ha":761,"x_min":0,"x_max":0,"o":"m 114 179 l 114 179 l 21 120 l 41 93 l 94 126 l 241 0 l 432 99 l 412 125 l 366 100 l 287 166 l 287 547 l 287 586 l 451 738 l 689 575 l 561 460 b 716 258 635 414 691 341 b 702 3 742 175 737 83 b 548 -169 671 -69 616 -130 b 321 -214 480 -208 399 -224 l 319 -181 b 459 -121 370 -175 419 -154 b 542 6 498 -88 527 -44 b 524 198 561 69 554 139 b 379 326 494 257 441 304 l 533 468 l 346 602 l 287 547 l 287 586 l 287 860 l 287 942 l 438 847 l 609 943 l 424 1058 l 114 883 l 114 704 l 47 633 l 47 613 b 79 607 58 613 70 611 b 104 586 89 602 98 595 b 112 567 108 580 111 574 b 114 548 114 561 114 554 l 114 179 z "},"":{"ha":656,"x_min":0,"x_max":0,"o":"m 278 976 l 350 1031 l 469 788 l 456 778 z m 665 153 l 605 113 l 538 179 l 538 530 l 611 588 l 586 619 l 530 573 l 325 705 l 172 626 b 126 596 156 617 140 608 b 95 556 113 585 102 571 b 86 506 88 540 85 523 b 103 454 87 487 93 469 b 184 388 122 424 152 403 b 205 379 191 385 198 382 b 114 318 172 362 141 342 b 63 258 94 300 76 281 b 39 184 49 236 40 210 b 77 73 36 144 52 104 b 226 -7 114 28 169 0 l 372 100 l 478 -7 l 671 126 z m 365 369 b 291 389 340 375 315 382 b 213 418 264 397 238 407 b 146 467 188 430 164 445 b 126 519 134 481 126 500 b 136 558 125 533 129 546 b 163 589 143 570 152 581 b 192 606 172 596 182 601 l 365 499 b 365 369 365 456 365 412 z m 365 329 b 365 117 365 258 365 188 b 319 114 350 112 334 112 b 266 141 299 118 281 128 b 230 188 251 154 239 171 b 207 312 210 226 201 270 b 229 370 211 332 218 352 b 283 353 247 364 265 358 b 365 329 311 345 338 337 z "},"":{"ha":656,"x_min":0,"x_max":0,"o":"m 469 976 l 397 1031 l 278 788 l 290 778 z m 665 153 l 605 113 l 538 179 l 538 530 l 611 588 l 586 619 l 530 573 l 325 705 l 172 626 b 126 596 156 617 140 608 b 95 556 113 585 102 571 b 86 506 88 540 85 523 b 103 454 87 487 93 469 b 184 388 122 424 152 403 b 205 379 191 385 198 382 b 114 318 172 362 141 342 b 63 258 94 300 76 281 b 39 184 49 236 40 210 b 77 73 36 144 52 104 b 226 -7 114 28 169 0 l 372 100 l 478 -7 l 671 126 z m 365 369 b 291 389 340 375 315 382 b 213 418 264 397 238 407 b 146 467 188 430 164 445 b 126 519 134 481 126 500 b 136 558 125 533 129 546 b 163 589 143 570 152 581 b 192 606 172 596 182 601 l 365 499 b 365 369 365 456 365 412 z m 365 329 b 365 117 365 258 365 188 b 319 114 350 112 334 112 b 266 141 299 118 281 128 b 230 188 251 154 239 171 b 207 312 210 226 201 270 b 229 370 211 332 218 352 b 283 353 247 364 265 358 b 365 329 311 345 338 337 z "},"":{"ha":656,"x_min":0,"x_max":0,"o":"m 144 752 l 285 893 l 436 752 l 538 862 l 366 1022 l 119 778 z m 665 153 l 605 113 l 538 179 l 538 530 l 611 588 l 586 619 l 530 573 l 325 705 l 172 626 b 126 596 156 617 140 608 b 95 556 113 585 102 571 b 86 506 88 540 85 523 b 103 454 87 487 93 469 b 184 388 122 424 152 403 b 205 379 191 385 198 382 b 114 318 172 362 141 342 b 63 258 94 300 76 281 b 39 184 49 236 40 210 b 77 73 36 144 52 104 b 226 -7 114 28 169 0 l 372 100 l 478 -7 l 671 126 z m 365 369 b 291 389 340 375 315 382 b 213 418 264 397 238 407 b 146 467 188 430 164 445 b 126 519 134 481 126 500 b 136 558 125 533 129 546 b 163 589 143 570 152 581 b 192 606 172 596 182 601 l 365 499 b 365 369 365 456 365 412 z m 365 329 b 365 117 365 258 365 188 b 319 114 350 112 334 112 b 266 141 299 118 281 128 b 230 188 251 154 239 171 b 207 312 210 226 201 270 b 229 370 211 332 218 352 b 283 353 247 364 265 358 b 365 329 311 345 338 337 z "},"":{"ha":656,"x_min":0,"x_max":0,"o":"m 107 776 b 142 805 118 787 130 797 b 181 822 154 812 167 818 b 276 819 212 831 245 828 b 367 788 307 810 336 797 b 447 777 393 780 420 776 b 525 799 474 779 501 786 b 601 864 554 814 580 837 b 640 930 617 884 630 907 l 604 948 b 574 913 597 934 587 921 b 536 896 563 904 550 899 b 458 898 510 890 484 892 b 383 919 433 903 408 912 b 287 940 351 929 319 938 b 192 919 254 941 221 935 b 115 854 162 903 137 880 b 71 794 99 835 85 815 z m 665 153 l 605 113 l 538 179 l 538 530 l 611 588 l 586 619 l 530 573 l 325 705 l 172 626 b 126 596 156 617 140 608 b 95 556 113 585 102 571 b 86 506 88 540 85 523 b 103 454 87 487 93 469 b 184 388 122 424 152 403 b 205 379 191 385 198 382 b 114 318 172 362 141 342 b 63 258 94 300 76 281 b 39 184 49 236 40 210 b 77 73 36 144 52 104 b 226 -7 114 28 169 0 l 372 100 l 478 -7 l 671 126 z m 365 369 b 291 389 340 375 315 382 b 213 418 264 397 238 407 b 146 467 188 430 164 445 b 126 519 134 481 126 500 b 136 558 125 533 129 546 b 163 589 143 570 152 581 b 192 606 172 596 182 601 l 365 499 b 365 369 365 456 365 412 z m 365 329 b 365 117 365 258 365 188 b 319 114 350 112 334 112 b 266 141 299 118 281 128 b 230 188 251 154 239 171 b 207 312 210 226 201 270 b 229 370 211 332 218 352 b 283 353 247 364 265 358 b 365 329 311 345 338 337 z "},"":{"ha":656,"x_min":0,"x_max":0,"o":"m 66 935 l 193 809 l 318 933 l 191 1060 z m 385 935 l 512 809 l 637 933 l 510 1060 z m 665 153 l 605 113 l 538 179 l 538 530 l 611 588 l 586 619 l 530 573 l 325 705 l 172 626 b 126 596 156 617 140 608 b 95 556 113 585 102 571 b 86 506 88 540 85 523 b 103 454 87 487 93 469 b 184 388 122 424 152 403 b 205 379 191 385 198 382 b 114 318 172 362 141 342 b 63 258 94 300 76 281 b 39 184 49 236 40 210 b 77 73 36 144 52 104 b 226 -7 114 28 169 0 l 372 100 l 478 -7 l 671 126 z m 365 369 b 291 389 340 375 315 382 b 213 418 264 397 238 407 b 146 467 188 430 164 445 b 126 519 134 481 126 500 b 136 558 125 533 129 546 b 163 589 143 570 152 581 b 192 606 172 596 182 601 l 365 499 b 365 369 365 456 365 412 z m 365 329 b 365 117 365 258 365 188 b 319 114 350 112 334 112 b 266 141 299 118 281 128 b 230 188 251 154 239 171 b 207 312 210 226 201 270 b 229 370 211 332 218 352 b 283 353 247 364 265 358 b 365 329 311 345 338 337 z "},"":{"ha":656,"x_min":0,"x_max":0,"o":"m 193 803 b 277 680 193 747 228 699 l 172 626 b 126 596 156 617 140 608 b 95 556 113 585 102 571 b 86 506 88 540 85 523 b 103 454 87 487 93 469 b 184 388 122 424 152 403 b 205 379 191 385 198 382 b 114 318 172 362 141 342 b 63 258 94 300 76 281 b 39 184 49 236 40 210 b 77 73 36 144 52 104 b 226 -7 114 28 169 0 l 372 100 l 478 -7 l 671 126 l 665 153 l 605 113 l 538 179 l 538 530 l 611 588 l 586 619 l 530 573 l 366 679 b 454 803 417 697 454 746 b 323 933 454 875 395 933 b 193 803 251 933 193 875 z m 232 803 b 323 894 232 853 273 894 b 415 803 374 894 415 853 b 323 711 415 752 374 711 b 232 803 273 711 232 752 z m 365 369 b 291 389 340 375 315 382 b 213 418 264 397 238 407 b 146 467 188 430 164 445 b 126 519 134 481 126 500 b 136 558 125 533 129 546 b 163 589 143 570 152 581 b 192 606 172 596 182 601 l 365 499 b 365 369 365 456 365 412 z m 365 329 b 365 117 365 258 365 188 b 319 114 350 112 334 112 b 266 141 299 118 281 128 b 230 188 251 154 239 171 b 207 312 210 226 201 270 b 229 370 211 332 218 352 b 283 353 247 364 265 358 b 365 329 311 345 338 337 z "},"":{"ha":875,"x_min":0,"x_max":0,"o":"m 524 306 l 823 492 l 823 499 l 683 712 l 471 602 l 311 705 l 157 626 b 111 596 141 617 125 608 b 80 556 98 585 88 571 b 71 506 73 540 70 523 b 89 454 72 487 79 469 b 169 388 107 424 138 403 b 188 380 176 385 182 383 b 96 318 155 363 124 342 b 45 258 76 300 59 281 b 21 184 31 236 23 210 b 60 73 19 144 34 104 b 208 -7 96 28 151 0 l 382 131 l 577 -14 l 863 219 l 843 253 l 690 133 l 524 246 z m 524 340 l 524 568 l 523 568 l 523 591 l 550 606 l 670 432 z m 350 329 l 350 155 b 296 128 338 138 317 128 b 246 146 278 128 260 135 b 212 188 232 157 221 172 b 190 312 192 226 183 270 b 212 371 193 333 201 353 b 268 353 231 364 249 359 b 350 329 296 345 323 337 z m 350 369 b 276 389 325 375 300 382 b 198 418 249 397 223 407 b 131 467 173 430 149 445 b 111 519 119 481 111 500 b 121 558 111 533 114 546 b 148 589 128 570 137 581 b 177 606 157 596 167 601 l 350 499 z "},"":{"ha":544,"x_min":0,"x_max":0,"o":"m 205 -302 b 334 -225 252 -279 296 -254 b 390 -172 356 -209 375 -191 b 416 -107 405 -152 414 -130 b 388 -29 417 -80 407 -53 b 338 13 375 -13 358 1 l 323 0 l 304 0 l 285 13 l 163 -46 b 269 -109 208 -56 247 -79 b 286 -208 292 -139 298 -175 b 196 -291 273 -243 240 -274 z m 341 171 b 430 146 368 155 399 147 l 510 204 l 528 179 l 338 13 b 313 26 330 17 322 22 l 285 13 l 94 143 l 94 558 l 381 718 l 528 600 l 396 500 l 273 603 l 273 242 b 341 171 289 212 313 188 z "},"":{"ha":599,"x_min":0,"x_max":0,"o":"m 255 999 l 326 1054 l 445 810 l 433 800 z m 38 90 l 100 139 l 306 -14 l 592 219 l 572 253 l 419 133 l 252 246 l 252 306 l 552 492 l 552 499 l 412 712 l 79 539 l 79 173 l 14 120 z m 252 340 l 252 591 l 279 606 l 399 432 z "},"":{"ha":599,"x_min":0,"x_max":0,"o":"m 445 999 l 374 1054 l 255 810 l 267 800 z m 38 90 l 100 139 l 306 -14 l 592 219 l 572 253 l 419 133 l 252 246 l 252 306 l 552 492 l 552 499 l 412 712 l 79 539 l 79 173 l 14 120 z m 252 340 l 252 591 l 279 606 l 399 432 z "},"":{"ha":599,"x_min":0,"x_max":0,"o":"m 120 775 l 262 915 l 413 775 l 515 884 l 342 1045 l 95 800 z m 38 90 l 100 139 l 306 -14 l 592 219 l 572 253 l 419 133 l 252 246 l 252 306 l 552 492 l 552 499 l 412 712 l 79 539 l 79 173 l 14 120 z m 252 340 l 252 591 l 279 606 l 399 432 z "},"":{"ha":599,"x_min":0,"x_max":0,"o":"m 43 958 l 169 831 l 294 956 l 167 1082 z m 362 958 l 489 831 l 614 956 l 487 1082 z m 38 90 l 100 139 l 306 -14 l 592 219 l 572 253 l 419 133 l 252 246 l 252 306 l 552 492 l 552 499 l 412 712 l 79 539 l 79 173 l 14 120 z m 252 340 l 252 591 l 279 606 l 399 432 z "},"":{"ha":474,"x_min":0,"x_max":0,"o":"m 116 982 l 188 1037 l 306 793 l 294 784 z m 420 159 l 360 120 l 314 166 l 314 586 l 207 712 l 21 586 l 41 559 l 94 592 l 141 532 l 141 166 l 54 106 l 74 80 l 121 113 l 254 -7 l 454 133 z "},"":{"ha":474,"x_min":0,"x_max":0,"o":"m 306 982 l 235 1037 l 116 793 l 128 784 z m 420 159 l 360 120 l 314 166 l 314 586 l 207 712 l 21 586 l 41 559 l 94 592 l 141 532 l 141 166 l 54 106 l 74 80 l 121 113 l 254 -7 l 454 133 z "},"":{"ha":474,"x_min":0,"x_max":0,"o":"m -18 758 l 123 898 l 274 758 l 376 868 l 204 1028 l -43 783 z m 420 159 l 360 120 l 314 166 l 314 586 l 207 712 l 21 586 l 41 559 l 94 592 l 141 532 l 141 166 l 54 106 l 74 80 l 121 113 l 254 -7 l 454 133 z "},"":{"ha":474,"x_min":0,"x_max":0,"o":"m -96 941 l 31 814 l 156 939 l 29 1066 z m 223 941 l 350 814 l 475 939 l 348 1066 z m 420 159 l 360 120 l 314 166 l 314 586 l 207 712 l 21 586 l 41 559 l 94 592 l 141 532 l 141 166 l 54 106 l 74 80 l 121 113 l 254 -7 l 454 133 z "},"":{"ha":606,"x_min":0,"x_max":0,"o":"m 200 661 l 347 527 l 347 109 l 200 212 z m 190 670 l 21 566 l 21 139 l 221 1 l 526 181 l 526 575 l 586 623 l 561 653 l 510 612 l 241 848 l 288 904 l 261 931 l 212 874 l 31 1033 l 31 784 l 59 789 l 105 747 l 55 688 l 82 661 l 134 721 z "},"":{"ha":733,"x_min":0,"x_max":0,"o":"m 184 788 b 219 816 195 799 206 808 b 257 833 231 823 244 829 b 352 830 288 842 321 839 b 444 799 383 821 413 808 b 524 788 470 791 497 787 b 602 810 551 790 577 797 b 678 875 631 825 657 848 b 717 942 694 895 707 918 l 681 959 b 651 924 674 945 663 933 b 613 907 640 915 626 910 b 535 909 587 901 561 903 b 460 931 510 914 485 923 b 364 951 428 940 396 950 b 269 930 331 952 298 946 b 192 865 239 914 214 891 b 148 805 176 846 162 826 z m 760 159 l 707 120 l 647 173 l 647 536 l 714 590 l 689 620 l 631 573 l 474 708 l 321 589 l 214 708 l 21 575 l 41 548 l 94 582 l 147 522 l 147 153 l 94 106 l 254 -20 l 387 100 l 327 153 l 327 534 l 387 582 l 487 495 l 487 153 l 440 106 l 580 -20 l 786 120 z "},"":{"ha":656,"x_min":0,"x_max":0,"o":"m 277 982 l 349 1037 l 468 793 l 456 784 z m 272 213 l 272 612 l 431 506 l 431 106 z m 45 94 l 103 141 b 298 0 168 93 233 47 l 605 186 l 605 566 l 405 719 l 92 539 b 92 182 92 420 92 301 l 21 124 z "},"":{"ha":656,"x_min":0,"x_max":0,"o":"m 468 982 l 396 1037 l 277 793 l 289 784 z m 272 213 l 272 612 l 431 506 l 431 106 z m 45 94 l 103 141 b 298 0 168 93 233 47 l 605 186 l 605 566 l 405 719 l 92 539 b 92 182 92 420 92 301 l 21 124 z "},"":{"ha":656,"x_min":0,"x_max":0,"o":"m 143 758 l 284 898 l 435 758 l 537 868 l 365 1028 l 118 783 z m 272 213 l 272 612 l 431 506 l 431 106 z m 45 94 l 103 141 b 298 0 168 93 233 47 l 605 186 l 605 566 l 405 719 l 92 539 b 92 182 92 420 92 301 l 21 124 z "},"":{"ha":656,"x_min":0,"x_max":0,"o":"m 106 782 b 141 810 117 793 129 803 b 180 827 153 818 166 824 b 275 825 211 836 244 833 b 366 793 306 816 335 802 b 446 783 392 786 419 781 b 524 804 473 784 500 792 b 600 869 553 819 579 842 b 639 936 616 890 629 912 l 603 953 b 573 918 596 939 586 927 b 535 901 562 910 549 904 b 457 903 510 895 483 898 b 382 925 432 909 407 917 b 286 945 350 935 318 944 b 191 924 253 947 220 940 b 114 859 161 909 136 885 b 70 799 98 840 84 820 z m 272 213 l 272 612 l 431 506 l 431 106 z m 45 94 l 103 141 b 298 0 168 93 233 47 l 605 186 l 605 566 l 405 719 l 92 539 b 92 182 92 420 92 301 l 21 124 z "},"":{"ha":656,"x_min":0,"x_max":0,"o":"m 65 941 l 192 814 l 317 939 l 190 1066 z m 385 941 l 511 814 l 636 939 l 509 1066 z m 272 213 l 272 612 l 431 506 l 431 106 z m 45 94 l 103 141 b 298 0 168 93 233 47 l 605 186 l 605 566 l 405 719 l 92 539 b 92 182 92 420 92 301 l 21 124 z "},"":{"ha":971,"x_min":0,"x_max":0,"o":"m 373 273 l 499 146 l 624 271 l 497 398 z m 929 648 l 909 668 l 877 635 l 217 635 l 47 445 l 67 425 l 101 458 l 759 458 z m 373 835 l 499 709 l 624 833 l 497 960 z "},"":{"ha":625,"x_min":0,"x_max":0,"o":"m 45 94 l 103 141 b 174 89 127 123 151 106 l 69 -94 l 104 -114 l 207 66 b 298 0 237 44 268 22 l 605 186 l 605 566 l 528 624 l 629 800 l 594 820 l 496 649 l 405 719 l 92 539 b 92 182 92 420 92 301 l 21 124 z m 286 203 l 431 456 l 431 106 z m 419 514 l 272 258 l 272 612 z "},"":{"ha":706,"x_min":0,"x_max":0,"o":"m 327 999 l 399 1054 l 518 810 l 506 800 z m 100 153 l 289 -6 l 465 132 b 469 105 466 123 467 114 b 511 26 475 75 488 46 b 571 -3 527 10 549 0 l 738 112 l 712 147 l 661 104 b 634 135 649 112 640 123 b 623 199 625 154 623 177 l 622 257 l 622 589 l 682 636 l 662 662 l 614 628 l 521 708 l 391 588 l 463 524 l 463 239 l 463 197 b 463 172 463 188 463 180 l 397 123 l 310 206 l 310 540 b 305 592 310 557 309 575 b 284 639 301 609 294 625 b 239 686 272 658 257 674 b 200 706 227 695 214 701 l 21 591 l 35 571 b 67 590 45 579 55 585 b 79 593 71 591 75 592 b 108 590 89 595 99 594 b 131 571 117 586 125 580 b 142 544 137 563 140 554 b 144 515 144 535 144 525 l 144 189 z "},"":{"ha":706,"x_min":0,"x_max":0,"o":"m 518 999 l 446 1054 l 327 810 l 339 800 z m 100 153 l 289 -6 l 465 132 b 469 105 466 123 467 114 b 511 26 475 75 488 46 b 571 -3 527 10 549 0 l 738 112 l 712 147 l 661 104 b 634 135 649 112 640 123 b 623 199 625 154 623 177 l 622 257 l 622 589 l 682 636 l 662 662 l 614 628 l 521 708 l 391 588 l 463 524 l 463 239 l 463 197 b 463 172 463 188 463 180 l 397 123 l 310 206 l 310 540 b 305 592 310 557 309 575 b 284 639 301 609 294 625 b 239 686 272 658 257 674 b 200 706 227 695 214 701 l 21 591 l 35 571 b 67 590 45 579 55 585 b 79 593 71 591 75 592 b 108 590 89 595 99 594 b 131 571 117 586 125 580 b 142 544 137 563 140 554 b 144 515 144 535 144 525 l 144 189 z "},"":{"ha":706,"x_min":0,"x_max":0,"o":"m 193 775 l 334 915 l 485 775 l 587 884 l 415 1045 l 168 800 z m 100 153 l 289 -6 l 465 132 b 469 105 466 123 467 114 b 511 26 475 75 488 46 b 571 -3 527 10 549 0 l 738 112 l 712 147 l 661 104 b 634 135 649 112 640 123 b 623 199 625 154 623 177 l 622 257 l 622 589 l 682 636 l 662 662 l 614 628 l 521 708 l 391 588 l 463 524 l 463 239 l 463 197 b 463 172 463 188 463 180 l 397 123 l 310 206 l 310 540 b 305 592 310 557 309 575 b 284 639 301 609 294 625 b 239 686 272 658 257 674 b 200 706 227 695 214 701 l 21 591 l 35 571 b 67 590 45 579 55 585 b 79 593 71 591 75 592 b 108 590 89 595 99 594 b 131 571 117 586 125 580 b 142 544 137 563 140 554 b 144 515 144 535 144 525 l 144 189 z "},"":{"ha":706,"x_min":0,"x_max":0,"o":"m 115 958 l 242 831 l 367 956 l 240 1082 z m 435 958 l 561 831 l 686 956 l 559 1082 z m 100 153 l 289 -6 l 465 132 b 469 105 466 123 467 114 b 511 26 475 75 488 46 b 571 -3 527 10 549 0 l 738 112 l 712 147 l 661 104 b 634 135 649 112 640 123 b 623 199 625 154 623 177 l 622 257 l 622 589 l 682 636 l 662 662 l 614 628 l 521 708 l 391 588 l 463 524 l 463 239 l 463 197 b 463 172 463 188 463 180 l 397 123 l 310 206 l 310 540 b 305 592 310 557 309 575 b 284 639 301 609 294 625 b 239 686 272 658 257 674 b 200 706 227 695 214 701 l 21 591 l 35 571 b 67 590 45 579 55 585 b 79 593 71 591 75 592 b 108 590 89 595 99 594 b 131 571 117 586 125 580 b 142 544 137 563 140 554 b 144 515 144 535 144 525 l 144 189 z "},"":{"ha":719,"x_min":0,"x_max":0,"o":"m 509 993 l 438 1048 l 319 804 l 331 795 z m 646 559 l 646 193 b 649 138 646 175 646 156 b 666 86 652 120 658 103 b 683 49 672 74 679 62 b 683 8 687 35 687 21 b 661 -29 680 -6 671 -19 b 626 -51 650 -38 638 -45 b 591 -74 614 -58 602 -66 l 334 -255 b 226 -182 309 -218 270 -191 b 87 -213 178 -172 126 -184 l 67 -200 b 150 -91 83 -157 112 -118 b 280 -47 188 -64 233 -49 b 460 -120 346 -45 414 -72 b 487 -109 469 -119 479 -115 b 505 -86 495 -103 501 -95 b 510 -55 509 -76 511 -66 b 504 -25 510 -45 507 -35 b 478 33 497 -5 486 13 b 464 86 471 50 466 68 b 464 90 464 88 464 89 l 333 0 l 133 140 l 133 529 l 82 590 l 27 555 l 7 582 l 193 708 l 300 582 l 300 226 l 461 125 b 461 142 461 131 461 137 l 460 529 l 386 618 l 520 709 z "},"":{"ha":679,"x_min":0,"x_max":0,"o":"m 283 538 l 344 584 l 435 508 l 435 96 b 297 156 390 117 344 138 b 283 162 292 158 288 160 z m 122 181 l 50 121 b 122 109 74 118 98 114 l 122 -242 l 148 -242 l 347 -122 l 347 -102 b 315 -89 335 -101 324 -96 b 295 -66 307 -83 300 -75 b 285 -36 289 -57 286 -47 b 283 -5 283 -26 283 -15 l 283 58 b 377 11 315 45 347 29 b 482 93 411 40 446 67 b 607 172 523 121 564 148 l 607 558 l 659 601 l 635 631 l 593 596 l 458 715 l 283 584 l 283 887 b 248 940 273 906 262 924 b 189 991 231 960 211 977 l 21 878 l 36 856 b 68 869 44 864 56 869 b 100 855 80 868 91 863 b 119 818 110 846 116 832 b 122 775 122 804 122 789 z "},"":{"ha":719,"x_min":0,"x_max":0,"o":"m 107 952 l 234 825 l 358 950 l 232 1077 z m 426 952 l 553 825 l 678 950 l 551 1077 z m 646 559 l 646 193 b 649 138 646 175 646 156 b 666 86 652 120 658 103 b 683 49 672 74 679 62 b 683 8 687 35 687 21 b 661 -29 680 -6 671 -19 b 626 -51 650 -38 638 -45 b 591 -74 614 -58 602 -66 l 334 -255 b 226 -182 309 -218 270 -191 b 87 -213 178 -172 126 -184 l 67 -200 b 150 -91 83 -157 112 -118 b 280 -47 188 -64 233 -49 b 460 -120 346 -45 414 -72 b 487 -109 469 -119 479 -115 b 505 -86 495 -103 501 -95 b 510 -55 509 -76 511 -66 b 504 -25 510 -45 507 -35 b 478 33 497 -5 486 13 b 464 86 471 50 466 68 b 464 90 464 88 464 89 l 333 0 l 133 140 l 133 529 l 82 590 l 27 555 l 7 582 l 193 708 l 300 582 l 300 226 l 461 125 b 461 142 461 131 461 137 l 460 529 l 386 618 l 520 709 z "},"":{"ha":1065,"x_min":0,"x_max":0,"o":"m 526 1206 l 905 1204 l 905 1353 l 526 1354 z m 964 1047 l 934 1072 l 848 990 b 563 1065 765 1046 663 1073 b 299 930 462 1056 364 1008 b 230 796 266 891 242 845 b 230 645 218 747 217 694 b 304 511 242 595 268 548 b 394 447 329 484 360 463 l 241 194 b 182 155 220 183 201 169 b 61 -14 128 111 85 52 l 88 -14 b 328 90 149 51 238 90 b 547 9 407 91 487 61 l 703 144 b 792 54 730 111 760 82 b 869 -4 816 33 842 13 l 1054 144 l 1014 190 l 967 151 b 913 239 939 173 921 205 b 907 350 905 275 907 313 l 907 384 l 907 851 l 907 894 b 912 960 907 917 907 939 b 940 1020 917 982 927 1003 z m 707 889 b 728 875 714 885 721 880 l 728 519 l 484 519 z m 671 907 l 407 468 b 303 624 356 506 318 562 b 331 807 289 685 299 753 b 431 900 355 846 390 879 b 564 930 472 921 518 931 b 671 907 601 929 637 921 z m 398 376 l 728 376 l 728 247 l 644 176 b 372 238 565 229 466 251 b 304 221 349 234 326 229 z "},"":{"ha":656,"x_min":0,"x_max":0,"o":"m 181 817 l 560 816 l 560 964 l 181 966 z m 665 153 l 605 113 l 538 179 l 538 530 l 611 588 l 586 619 l 530 573 l 325 705 l 172 626 b 126 596 156 617 140 608 b 95 556 113 585 102 571 b 86 506 88 540 85 523 b 103 454 87 487 93 469 b 184 388 122 424 152 403 b 205 379 191 385 198 382 b 114 318 172 362 141 342 b 63 258 94 300 76 281 b 39 184 49 236 40 210 b 77 73 36 144 52 104 b 226 -7 114 28 169 0 l 372 100 l 478 -7 l 671 126 z m 365 369 b 291 389 340 375 315 382 b 213 418 264 397 238 407 b 146 467 188 430 164 445 b 126 519 134 481 126 500 b 136 558 125 533 129 546 b 163 589 143 570 152 581 b 192 606 172 596 182 601 l 365 499 b 365 369 365 456 365 412 z m 365 329 b 365 117 365 258 365 188 b 319 114 350 112 334 112 b 266 141 299 118 281 128 b 230 188 251 154 239 171 b 207 312 210 226 201 270 b 229 370 211 332 218 352 b 283 353 247 364 265 358 b 365 329 311 345 338 337 z "},"":{"ha":1065,"x_min":0,"x_max":0,"o":"m 623 1188 b 494 1282 571 1204 526 1238 l 589 1365 b 638 1319 602 1347 619 1331 b 712 1293 661 1306 686 1297 b 791 1296 739 1289 766 1289 b 830 1313 805 1299 818 1305 b 859 1348 842 1322 853 1334 l 895 1330 b 855 1264 884 1307 871 1284 b 780 1199 835 1237 810 1214 b 703 1177 756 1186 730 1178 b 623 1188 676 1175 648 1179 z m 964 1047 l 934 1072 l 848 990 b 563 1065 765 1046 663 1073 b 299 930 462 1056 364 1008 b 230 796 266 891 242 845 b 230 645 218 747 217 694 b 304 511 242 595 268 548 b 394 447 329 484 360 463 l 241 194 b 182 155 220 183 201 169 b 61 -14 128 111 85 52 l 88 -14 b 328 90 149 51 238 90 b 547 9 407 91 487 61 l 703 144 b 792 54 730 111 760 82 b 869 -4 816 33 842 13 l 1054 144 l 1014 190 l 967 151 b 913 239 939 173 921 205 b 907 350 905 275 907 313 l 907 384 l 907 851 l 907 894 b 912 960 907 917 907 939 b 940 1020 917 982 927 1003 z m 707 889 b 728 875 714 885 721 880 l 728 519 l 484 519 z m 671 907 l 407 468 b 303 624 356 506 318 562 b 331 807 289 685 299 753 b 431 900 355 846 390 879 b 564 930 472 921 518 931 b 671 907 601 929 637 921 z m 398 376 l 728 376 l 728 247 l 644 176 b 372 238 565 229 466 251 b 304 221 349 234 326 229 z "},"":{"ha":656,"x_min":0,"x_max":0,"o":"m 278 799 b 149 893 226 816 181 850 l 244 976 b 293 931 257 958 274 942 b 367 904 316 917 341 908 b 446 907 394 900 421 900 b 485 924 460 910 473 916 b 514 959 497 933 508 945 l 550 942 b 510 875 540 918 526 896 b 435 810 490 849 465 825 b 358 788 411 797 385 790 b 278 799 331 786 303 790 z m 665 153 l 605 113 l 538 179 l 538 530 l 611 588 l 586 619 l 530 573 l 325 705 l 172 626 b 126 596 156 617 140 608 b 95 556 113 585 102 571 b 86 506 88 540 85 523 b 103 454 87 487 93 469 b 184 388 122 424 152 403 b 205 379 191 385 198 382 b 114 318 172 362 141 342 b 63 258 94 300 76 281 b 39 184 49 236 40 210 b 77 73 36 144 52 104 b 226 -7 114 28 169 0 l 372 100 l 478 -7 l 671 126 z m 365 369 b 291 389 340 375 315 382 b 213 418 264 397 238 407 b 146 467 188 430 164 445 b 126 519 134 481 126 500 b 136 558 125 533 129 546 b 163 589 143 570 152 581 b 192 606 172 596 182 601 l 365 499 b 365 369 365 456 365 412 z m 365 329 b 365 117 365 258 365 188 b 319 114 350 112 334 112 b 266 141 299 118 281 128 b 230 188 251 154 239 171 b 207 312 210 226 201 270 b 229 370 211 332 218 352 b 283 353 247 364 265 358 b 365 329 311 345 338 337 z "},"":{"ha":1065,"x_min":0,"x_max":0,"o":"m 929 -284 l 938 -270 b 848 -155 894 -246 861 -203 b 865 -18 836 -110 842 -60 b 878 2 869 -11 873 -4 l 953 62 b 971 69 959 65 965 67 l 966 73 l 1054 144 l 1014 190 l 967 151 b 913 239 939 173 921 205 b 907 350 905 275 907 313 l 907 384 l 907 851 l 907 894 b 912 960 907 917 907 939 b 940 1020 917 982 927 1003 l 964 1047 l 934 1072 l 848 990 b 563 1065 765 1046 663 1073 b 299 930 462 1056 364 1008 b 230 796 266 891 242 845 b 230 645 218 747 217 694 b 304 511 242 595 268 548 b 394 447 329 484 360 463 l 241 194 b 182 155 220 183 201 169 b 61 -14 128 111 85 52 l 88 -14 b 328 90 149 51 238 90 b 547 9 407 91 487 61 l 703 144 b 748 95 717 127 732 110 b 746 92 747 94 747 93 b 718 -16 727 60 717 22 b 744 -105 720 -47 729 -77 b 800 -179 759 -132 778 -156 b 929 -284 838 -219 882 -253 z m 707 889 b 728 875 714 885 721 880 l 728 519 l 484 519 z m 671 907 l 407 468 b 303 624 356 506 318 562 b 331 807 289 685 299 753 b 431 900 355 846 390 879 b 564 930 472 921 518 931 b 671 907 601 929 637 921 z m 398 376 l 728 376 l 728 247 l 644 176 b 372 238 565 229 466 251 b 304 221 349 234 326 229 z "},"":{"ha":656,"x_min":0,"x_max":0,"o":"m 556 -278 l 565 -264 b 476 -150 522 -240 489 -198 b 492 -13 463 -104 469 -54 b 512 17 498 -2 505 8 l 596 74 b 598 75 597 75 597 75 l 598 75 l 671 126 l 665 153 l 605 113 l 538 179 l 538 530 l 611 588 l 586 619 l 530 573 l 325 705 l 172 626 b 126 596 156 617 140 608 b 95 556 113 585 102 571 b 86 506 88 540 85 523 b 103 454 87 487 93 469 b 184 388 122 424 152 403 b 205 379 191 385 198 382 b 114 318 172 362 141 342 b 63 258 94 300 76 281 b 39 184 49 236 40 210 b 77 73 36 144 52 104 b 226 -7 114 28 169 0 l 372 100 l 374 98 b 374 97 374 98 374 98 b 346 -10 354 65 344 27 b 371 -99 347 -41 357 -72 b 427 -173 386 -126 406 -151 b 556 -278 466 -213 510 -248 z m 365 369 b 291 389 340 375 315 382 b 213 418 264 397 238 407 b 146 467 188 430 164 445 b 126 519 134 481 126 500 b 136 558 125 533 129 546 b 163 589 143 570 152 581 b 192 606 172 596 182 601 l 365 499 b 365 369 365 456 365 412 z m 365 329 b 365 117 365 258 365 188 b 319 114 350 112 334 112 b 266 141 299 118 281 128 b 230 188 251 154 239 171 b 207 312 210 226 201 270 b 229 370 211 332 218 352 b 283 353 247 364 265 358 b 365 329 311 345 338 337 z "},"":{"ha":1039,"x_min":0,"x_max":0,"o":"m 815 1332 l 743 1387 l 625 1143 l 637 1134 z m 508 1004 b 240 809 402 968 307 899 b 129 497 173 720 133 609 b 266 125 125 362 174 224 b 631 -24 359 26 495 -33 b 823 40 699 -19 766 3 b 957 190 880 77 927 129 b 994 333 979 235 992 284 l 967 333 b 851 198 940 279 900 232 b 694 135 804 165 750 143 b 694 882 694 384 694 633 b 715 870 701 878 708 874 b 864 800 763 844 813 820 l 1029 972 l 1017 985 l 974 949 b 881 985 942 959 911 971 b 739 1068 831 1008 783 1036 l 739 1068 l 739 1068 l 372 844 b 521 984 408 903 460 952 z m 337 346 b 313 422 327 371 319 396 b 302 610 299 484 297 547 b 338 777 306 667 318 724 l 413 822 b 413 378 413 674 413 526 z m 352 312 l 592 413 l 592 932 l 603 939 b 654 905 620 927 637 916 b 654 132 654 648 654 390 b 523 156 609 131 564 139 b 392 252 472 176 427 210 b 352 312 377 271 364 291 z "},"":{"ha":544,"x_min":0,"x_max":0,"o":"m 469 1004 l 397 1059 l 278 815 l 291 806 z m 341 171 b 430 146 368 155 399 147 l 510 204 l 528 179 l 323 0 l 304 0 l 94 143 l 94 558 l 381 718 l 528 600 l 396 500 l 273 603 l 273 242 b 341 171 289 212 313 188 z "},"":{"ha":1039,"x_min":0,"x_max":0,"o":"m 490 1108 l 632 1248 l 782 1108 l 884 1218 l 712 1378 l 465 1133 z m 508 1004 b 240 809 402 968 307 899 b 129 497 173 720 133 609 b 266 125 125 362 174 224 b 631 -24 359 26 495 -33 b 823 40 699 -19 766 3 b 957 190 880 77 927 129 b 994 333 979 235 992 284 l 967 333 b 851 198 940 279 900 232 b 694 135 804 165 750 143 b 694 882 694 384 694 633 b 715 870 701 878 708 874 b 864 800 763 844 813 820 l 1029 972 l 1017 985 l 974 949 b 881 985 942 959 911 971 b 739 1068 831 1008 783 1036 l 739 1068 l 739 1068 l 372 844 b 521 984 408 903 460 952 z m 337 346 b 313 422 327 371 319 396 b 302 610 299 484 297 547 b 338 777 306 667 318 724 l 413 822 b 413 378 413 674 413 526 z m 352 312 l 592 413 l 592 932 l 603 939 b 654 905 620 927 637 916 b 654 132 654 648 654 390 b 523 156 609 131 564 139 b 392 252 472 176 427 210 b 352 312 377 271 364 291 z "},"":{"ha":544,"x_min":0,"x_max":0,"o":"m 144 780 l 286 921 l 436 780 l 538 890 l 366 1050 l 119 805 z m 341 171 b 430 146 368 155 399 147 l 510 204 l 528 179 l 323 0 l 304 0 l 94 143 l 94 558 l 381 718 l 528 600 l 396 500 l 273 603 l 273 242 b 341 171 289 212 313 188 z "},"":{"ha":1039,"x_min":0,"x_max":0,"o":"m 579 1302 l 706 1175 l 831 1300 l 704 1427 z m 508 1004 b 240 809 402 968 307 899 b 129 497 173 720 133 609 b 266 125 125 362 174 224 b 631 -24 359 26 495 -33 b 823 40 699 -19 766 3 b 957 190 880 77 927 129 b 994 333 979 235 992 284 l 967 333 b 851 198 940 279 900 232 b 694 135 804 165 750 143 b 694 882 694 384 694 633 b 715 870 701 878 708 874 b 864 800 763 844 813 820 l 1029 972 l 1017 985 l 974 949 b 881 985 942 959 911 971 b 739 1068 831 1008 783 1036 l 739 1068 l 739 1068 l 372 844 b 521 984 408 903 460 952 z m 337 346 b 313 422 327 371 319 396 b 302 610 299 484 297 547 b 338 777 306 667 318 724 l 413 822 b 413 378 413 674 413 526 z m 352 312 l 592 413 l 592 932 l 603 939 b 654 905 620 927 637 916 b 654 132 654 648 654 390 b 523 156 609 131 564 139 b 392 252 472 176 427 210 b 352 312 377 271 364 291 z "},"":{"ha":544,"x_min":0,"x_max":0,"o":"m 233 974 l 360 847 l 485 972 l 358 1099 z m 341 171 b 430 146 368 155 399 147 l 510 204 l 528 179 l 323 0 l 304 0 l 94 143 l 94 558 l 381 718 l 528 600 l 396 500 l 273 603 l 273 242 b 341 171 289 212 313 188 z "},"":{"ha":1039,"x_min":0,"x_max":0,"o":"m 517 1310 l 704 1138 l 957 1395 l 931 1420 l 782 1269 l 618 1420 z m 508 1004 b 240 809 402 968 307 899 b 129 497 173 720 133 609 b 266 125 125 362 174 224 b 631 -24 359 26 495 -33 b 823 40 699 -19 766 3 b 957 190 880 77 927 129 b 994 333 979 235 992 284 l 967 333 b 851 198 940 279 900 232 b 694 135 804 165 750 143 b 694 882 694 384 694 633 b 715 870 701 878 708 874 b 864 800 763 844 813 820 l 1029 972 l 1017 985 l 974 949 b 881 985 942 959 911 971 b 739 1068 831 1008 783 1036 l 739 1068 l 739 1068 l 372 844 b 521 984 408 903 460 952 z m 337 346 b 313 422 327 371 319 396 b 302 610 299 484 297 547 b 338 777 306 667 318 724 l 413 822 b 413 378 413 674 413 526 z m 352 312 l 592 413 l 592 932 l 603 939 b 654 905 620 927 637 916 b 654 132 654 648 654 390 b 523 156 609 131 564 139 b 392 252 472 176 427 210 b 352 312 377 271 364 291 z "},"":{"ha":544,"x_min":0,"x_max":0,"o":"m 171 982 l 358 810 l 610 1067 l 585 1093 l 436 941 l 272 1093 z m 341 171 b 430 146 368 155 399 147 l 510 204 l 528 179 l 323 0 l 304 0 l 94 143 l 94 558 l 381 718 l 528 600 l 396 500 l 273 603 l 273 242 b 341 171 289 212 313 188 z "},"":{"ha":1093,"x_min":0,"x_max":0,"o":"m 433 1282 l 621 1110 l 873 1367 l 847 1393 l 699 1241 l 535 1393 z m 158 198 l 171 164 b 381 300 254 185 332 230 b 415 373 396 322 408 347 b 422 454 422 400 422 427 l 422 596 l 423 704 b 436 791 423 734 424 764 b 489 858 447 818 468 839 l 534 858 b 489 784 514 837 499 812 b 472 654 473 741 472 696 l 472 546 l 472 404 b 462 333 472 379 470 354 b 425 271 455 311 441 291 b 355 195 404 245 380 220 b 68 -44 233 157 127 69 l 108 -44 b 396 64 185 27 291 67 b 626 -13 478 62 559 35 l 973 178 b 1030 325 996 225 1015 274 b 1063 611 1057 418 1069 515 b 974 894 1058 711 1033 813 b 841 1003 941 942 895 980 b 670 1028 787 1025 728 1028 l 291 1028 b 258 1029 280 1028 269 1028 b 227 1039 247 1031 237 1034 b 202 1060 217 1044 209 1052 b 189 1090 196 1069 191 1079 l 159 1091 b 146 985 150 1057 145 1021 b 153 932 146 967 148 950 b 177 885 157 915 165 898 b 208 863 185 875 196 868 b 246 858 220 859 233 858 l 439 858 l 329 787 b 263 727 304 770 279 753 b 246 685 255 714 249 700 b 243 640 243 670 243 655 l 243 605 b 164 585 216 601 189 596 b 113 545 144 576 127 562 b 86 488 100 529 91 509 b 104 371 77 448 84 406 l 130 371 b 131 401 128 381 129 391 b 160 441 135 418 146 433 b 184 450 168 446 176 448 b 210 451 193 451 201 451 b 243 451 221 451 232 451 b 243 448 243 450 243 449 b 240 338 243 411 244 374 b 202 236 236 302 225 265 b 158 198 190 221 175 207 z m 623 200 l 623 382 l 876 510 b 860 338 876 452 870 395 b 798 115 848 262 827 187 b 623 200 746 155 686 184 z m 623 858 b 716 846 655 858 686 856 b 800 788 748 834 777 814 b 852 693 824 761 841 728 l 623 577 b 623 858 623 671 623 765 z m 583 209 b 424 211 531 218 477 219 b 455 247 435 222 446 234 b 499 320 473 268 489 292 b 511 404 509 348 511 377 l 511 546 l 511 654 b 526 771 511 695 513 735 b 583 851 537 802 557 830 b 583 209 583 637 583 423 z m 623 533 l 863 654 b 874 569 869 626 873 598 b 875 554 875 564 875 559 l 623 426 z "},"":{"ha":682,"x_min":0,"x_max":0,"o":"m 474 1014 b 558 830 526 981 572 912 b 550 798 556 818 550 809 b 568 780 550 788 558 780 b 582 787 574 780 579 783 b 645 915 611 828 634 869 b 568 1129 668 1011 625 1089 b 513 1151 554 1140 535 1151 b 439 1077 472 1151 439 1118 b 474 1014 439 1050 453 1027 z m 275 661 l 422 527 l 422 109 l 275 212 z m 265 670 l 96 566 l 96 139 l 296 1 l 600 181 l 601 575 l 661 623 l 636 653 l 585 612 l 106 1033 l 106 784 l 134 789 z "},"":{"ha":1038,"x_min":0,"x_max":0,"o":"m 111 198 l 124 164 b 334 300 207 185 285 230 b 368 373 349 322 361 347 b 375 454 374 400 375 427 b 375 465 375 458 375 462 l 425 469 b 425 404 425 447 425 426 b 415 333 425 379 423 354 b 378 271 407 311 394 291 b 307 195 357 245 332 220 b 21 -44 186 157 80 69 l 60 -44 b 349 64 138 27 244 67 b 578 -13 431 62 512 35 l 926 178 b 983 325 949 225 968 274 b 1016 611 1009 418 1021 515 b 927 894 1010 711 986 813 b 794 1003 893 942 847 980 b 623 1028 740 1025 681 1028 l 244 1028 b 211 1029 233 1028 222 1028 b 180 1039 200 1031 190 1034 b 155 1060 170 1044 162 1052 b 142 1090 148 1069 144 1079 l 112 1091 b 98 985 103 1057 98 1021 b 105 932 99 967 101 950 b 130 885 110 915 118 898 b 161 863 138 875 149 868 b 199 858 173 859 186 858 l 392 858 l 282 787 b 215 727 257 770 231 753 b 199 685 207 714 202 700 b 196 640 196 670 196 655 b 196 613 196 631 196 622 b 117 585 168 607 141 599 b 39 488 80 563 50 529 b 56 371 28 449 34 405 l 83 371 b 84 401 81 381 81 391 b 114 440 88 417 99 431 b 137 449 121 444 129 447 b 162 451 146 450 154 451 l 196 454 b 196 448 196 452 196 450 b 193 338 196 411 197 374 b 155 236 188 302 178 265 b 111 198 143 221 128 207 z m 375 625 l 375 704 b 389 791 375 734 377 764 b 442 858 400 818 421 839 l 487 858 b 442 784 467 837 452 812 b 425 654 426 741 425 696 l 425 631 b 412 629 420 630 416 630 b 375 625 400 627 387 626 z m 576 200 b 576 382 576 261 576 321 l 829 510 b 813 338 828 452 823 395 b 751 115 800 262 779 187 b 576 200 699 155 639 184 z m 576 858 b 669 846 607 858 639 856 b 753 788 701 834 730 814 b 805 693 777 761 794 728 l 576 577 b 576 858 576 671 576 765 z m 536 209 b 377 211 484 218 430 219 b 408 247 388 222 398 234 b 452 320 426 268 442 292 b 463 404 462 348 463 377 l 463 546 l 464 654 b 478 771 464 695 465 735 b 536 851 490 802 510 830 b 536 209 536 637 536 423 z m 576 533 l 816 654 b 827 569 822 626 825 598 b 828 554 827 564 828 559 l 576 426 z "},"":{"ha":606,"x_min":0,"x_max":0,"o":"m 200 661 l 347 527 l 347 109 l 200 212 z m 190 670 l 21 566 l 21 139 l 221 1 l 526 181 l 526 575 l 586 623 l 561 653 l 510 612 l 241 848 l 288 904 l 261 931 l 212 874 l 31 1033 l 31 784 l 59 789 l 105 747 l 55 688 l 82 661 l 134 721 z "},"":{"ha":1024,"x_min":0,"x_max":0,"o":"m 555 1173 l 934 1171 l 934 1320 l 555 1321 z m 509 1004 b 238 811 402 970 306 901 b 130 497 171 721 132 610 b 270 129 128 362 178 227 b 632 -24 363 30 497 -29 b 831 37 702 -21 772 0 b 972 190 891 73 941 127 b 1009 333 994 235 1006 284 l 982 333 b 858 197 952 279 909 232 b 695 135 809 164 753 143 b 695 463 695 244 695 353 l 849 463 l 1019 639 l 695 639 b 695 882 695 720 695 801 b 716 870 702 878 709 874 b 864 800 764 844 813 820 l 1030 972 l 1018 985 l 974 949 b 881 985 943 959 912 971 b 739 1068 831 1008 784 1036 l 739 1068 l 739 1068 l 373 844 b 522 984 409 903 461 952 z m 337 346 b 314 422 327 370 319 396 b 303 610 300 484 297 547 b 339 777 307 667 318 724 l 414 822 b 414 378 414 674 414 526 z m 353 312 l 593 413 l 593 932 l 604 939 b 655 905 621 927 638 916 b 655 132 655 648 655 390 b 524 156 610 132 565 140 b 393 252 473 176 428 210 b 353 312 378 271 364 291 z "},"":{"ha":599,"x_min":0,"x_max":0,"o":"m 158 839 l 537 838 l 537 986 l 158 988 z m 38 90 l 100 139 l 306 -14 l 592 219 l 572 253 l 419 133 l 252 246 l 252 306 l 552 492 l 552 499 l 412 712 l 79 539 l 79 173 l 14 120 z m 252 340 l 252 591 l 279 606 l 399 432 z "},"":{"ha":1024,"x_min":0,"x_max":0,"o":"m 651 1154 b 523 1249 600 1171 555 1205 l 617 1332 b 667 1286 631 1314 647 1298 b 741 1260 689 1272 715 1264 b 820 1262 767 1256 794 1256 b 858 1279 834 1266 847 1271 b 888 1314 871 1288 881 1300 l 924 1297 b 884 1231 913 1274 900 1251 b 809 1165 864 1204 838 1181 b 731 1144 785 1153 758 1145 b 651 1154 704 1142 677 1146 z m 509 1004 b 238 811 402 970 306 901 b 130 497 171 721 132 610 b 270 129 128 362 178 227 b 632 -24 363 30 497 -29 b 831 37 702 -21 772 0 b 972 190 891 73 941 127 b 1009 333 994 235 1006 284 l 982 333 b 858 197 952 279 909 232 b 695 135 809 164 753 143 b 695 463 695 244 695 353 l 849 463 l 1019 639 l 695 639 b 695 882 695 720 695 801 b 716 870 702 878 709 874 b 864 800 764 844 813 820 l 1030 972 l 1018 985 l 974 949 b 881 985 943 959 912 971 b 739 1068 831 1008 784 1036 l 739 1068 l 739 1068 l 373 844 b 522 984 409 903 461 952 z m 337 346 b 314 422 327 370 319 396 b 303 610 300 484 297 547 b 339 777 307 667 318 724 l 414 822 b 414 378 414 674 414 526 z m 353 312 l 593 413 l 593 932 l 604 939 b 655 905 621 927 638 916 b 655 132 655 648 655 390 b 524 156 610 132 565 140 b 393 252 473 176 428 210 b 353 312 378 271 364 291 z "},"":{"ha":599,"x_min":0,"x_max":0,"o":"m 254 821 b 126 915 203 838 158 872 l 220 999 b 270 953 233 980 250 965 b 344 927 292 939 318 930 b 423 929 370 923 397 923 b 461 946 437 932 450 938 b 491 981 474 955 484 967 l 527 964 b 487 897 516 940 503 918 b 412 832 467 871 441 848 b 334 810 388 819 361 812 b 254 821 307 809 280 813 z m 38 90 l 100 139 l 306 -14 l 592 219 l 572 253 l 419 133 l 252 246 l 252 306 l 552 492 l 552 499 l 412 712 l 79 539 l 79 173 l 14 120 z m 252 340 l 252 591 l 279 606 l 399 432 z "},"":{"ha":1024,"x_min":0,"x_max":0,"o":"m 606 1302 l 733 1175 l 858 1300 l 731 1427 z m 509 1004 b 238 811 402 970 306 901 b 130 497 171 721 132 610 b 270 129 128 362 178 227 b 632 -24 363 30 497 -29 b 831 37 702 -21 772 0 b 972 190 891 73 941 127 b 1009 333 994 235 1006 284 l 982 333 b 858 197 952 279 909 232 b 695 135 809 164 753 143 b 695 463 695 244 695 353 l 849 463 l 1019 639 l 695 639 b 695 882 695 720 695 801 b 716 870 702 878 709 874 b 864 800 764 844 813 820 l 1030 972 l 1018 985 l 974 949 b 881 985 943 959 912 971 b 739 1068 831 1008 784 1036 l 739 1068 l 739 1068 l 373 844 b 522 984 409 903 461 952 z m 337 346 b 314 422 327 370 319 396 b 303 610 300 484 297 547 b 339 777 307 667 318 724 l 414 822 b 414 378 414 674 414 526 z m 353 312 l 593 413 l 593 932 l 604 939 b 655 905 621 927 638 916 b 655 132 655 648 655 390 b 524 156 610 132 565 140 b 393 252 473 176 428 210 b 353 312 378 271 364 291 z "},"":{"ha":599,"x_min":0,"x_max":0,"o":"m 209 969 l 336 842 l 461 967 l 334 1093 z m 38 90 l 100 139 l 306 -14 l 592 219 l 572 253 l 419 133 l 252 246 l 252 306 l 552 492 l 552 499 l 412 712 l 79 539 l 79 173 l 14 120 z m 252 340 l 252 591 l 279 606 l 399 432 z "},"":{"ha":1024,"x_min":0,"x_max":0,"o":"m 752 -334 l 761 -320 b 672 -205 718 -296 684 -253 b 688 -68 659 -160 665 -110 b 750 -2 703 -42 724 -19 b 831 37 778 8 806 21 b 972 190 891 73 941 127 b 1009 333 994 235 1006 284 l 982 333 b 858 197 952 279 909 232 b 695 135 809 164 753 143 b 695 463 695 244 695 353 l 849 463 l 1019 639 l 695 639 b 695 882 695 720 695 801 b 716 870 702 878 709 874 b 864 800 764 844 813 820 l 1030 972 l 1018 985 l 974 949 b 881 985 943 959 912 971 b 739 1068 831 1008 784 1036 l 739 1068 l 739 1068 l 373 844 b 522 984 409 903 461 952 l 509 1004 b 238 811 402 970 306 901 b 130 497 171 721 132 610 b 270 129 128 362 178 227 b 546 -18 343 51 441 -2 b 542 -66 542 -34 541 -50 b 567 -155 543 -97 552 -127 b 623 -229 582 -182 601 -206 b 752 -334 661 -269 706 -303 z m 337 346 b 314 422 327 370 319 396 b 303 610 300 484 297 547 b 339 777 307 667 318 724 l 414 822 b 414 378 414 674 414 526 z m 353 312 l 593 413 l 593 932 l 604 939 b 655 905 621 927 638 916 b 655 132 655 648 655 390 b 524 156 610 132 565 140 b 393 252 473 176 428 210 b 353 312 378 271 364 291 z "},"":{"ha":599,"x_min":0,"x_max":0,"o":"m 337 -301 l 346 -287 b 256 -172 302 -262 269 -220 b 273 -35 244 -127 250 -76 b 294 -5 279 -24 286 -14 l 306 -14 l 592 219 l 572 253 l 419 133 l 252 246 l 252 306 l 552 492 l 552 499 l 412 712 l 79 539 l 79 173 l 14 120 l 38 90 l 100 139 l 165 91 b 154 75 161 86 158 81 b 127 -32 135 43 125 5 b 152 -121 128 -63 137 -94 b 208 -196 167 -149 186 -173 b 337 -301 246 -236 291 -270 z m 252 340 l 252 591 l 279 606 l 399 432 z "},"":{"ha":1024,"x_min":0,"x_max":0,"o":"m 544 1310 l 731 1138 l 984 1395 l 958 1420 l 810 1269 l 645 1420 z m 509 1004 b 238 811 402 970 306 901 b 130 497 171 721 132 610 b 270 129 128 362 178 227 b 632 -24 363 30 497 -29 b 831 37 702 -21 772 0 b 972 190 891 73 941 127 b 1009 333 994 235 1006 284 l 982 333 b 858 197 952 279 909 232 b 695 135 809 164 753 143 b 695 463 695 244 695 353 l 849 463 l 1019 639 l 695 639 b 695 882 695 720 695 801 b 716 870 702 878 709 874 b 864 800 764 844 813 820 l 1030 972 l 1018 985 l 974 949 b 881 985 943 959 912 971 b 739 1068 831 1008 784 1036 l 739 1068 l 739 1068 l 373 844 b 522 984 409 903 461 952 z m 337 346 b 314 422 327 370 319 396 b 303 610 300 484 297 547 b 339 777 307 667 318 724 l 414 822 b 414 378 414 674 414 526 z m 353 312 l 593 413 l 593 932 l 604 939 b 655 905 621 927 638 916 b 655 132 655 648 655 390 b 524 156 610 132 565 140 b 393 252 473 176 428 210 b 353 312 378 271 364 291 z "},"":{"ha":599,"x_min":0,"x_max":0,"o":"m 147 977 l 334 804 l 587 1062 l 561 1087 l 413 936 l 248 1087 z m 38 90 l 100 139 l 306 -14 l 592 219 l 572 253 l 419 133 l 252 246 l 252 306 l 552 492 l 552 499 l 412 712 l 79 539 l 79 173 l 14 120 z m 252 340 l 252 591 l 279 606 l 399 432 z "},"":{"ha":1121,"x_min":0,"x_max":0,"o":"m 478 1125 l 620 1265 l 770 1125 l 872 1234 l 700 1395 l 453 1150 z m 366 312 b 347 287 360 303 354 294 b 323 391 336 321 329 356 b 304 589 311 456 305 523 b 334 778 303 653 308 719 b 395 865 348 811 369 841 b 395 470 395 733 395 602 b 391 388 395 443 395 415 b 366 312 388 362 380 335 z m 900 280 b 843 115 899 221 879 162 b 697 23 807 69 754 35 b 688 21 694 22 691 22 b 688 191 688 78 688 135 l 900 298 b 900 280 900 292 900 286 z m 688 337 l 866 427 b 895 340 880 400 890 370 l 688 236 z m 688 382 b 688 587 688 450 688 518 b 828 486 742 566 791 531 b 846 461 834 478 840 470 z m 648 18 b 509 57 600 18 551 32 b 381 201 453 91 410 143 b 371 222 377 208 374 215 b 410 235 384 226 398 230 b 515 304 450 251 486 274 b 563 384 537 327 554 354 b 574 476 573 413 574 445 l 574 500 l 648 573 b 648 18 648 388 648 203 z m 574 943 b 584 944 578 944 581 944 b 587 945 585 945 586 945 b 697 872 622 919 659 895 b 826 805 739 848 782 825 l 574 556 l 574 668 z m 810 734 l 1041 962 l 1013 990 l 967 945 b 865 990 932 958 898 972 b 724 1081 815 1015 767 1046 l 588 973 b 240 790 455 958 327 892 b 112 468 163 701 116 586 b 195 175 108 365 137 261 b 437 -8 252 90 339 24 b 681 -26 515 -34 600 -40 b 905 72 762 -11 839 22 b 1061 290 977 127 1034 203 b 1029 577 1090 385 1080 492 b 810 734 982 656 901 715 z "},"":{"ha":678,"x_min":0,"x_max":0,"o":"m 197 769 l 339 909 l 490 769 l 592 879 l 420 1039 l 172 794 z m 395 127 l 236 226 l 236 592 l 396 485 l 395 142 b 395 127 395 137 395 132 z m 398 88 b 398 86 398 88 398 87 b 415 33 401 68 407 50 b 441 -25 423 13 434 -5 b 447 -55 444 -35 447 -45 b 441 -86 447 -66 446 -76 b 423 -109 437 -95 431 -103 b 396 -120 415 -115 406 -119 b 216 -47 350 -72 283 -45 b 87 -91 170 -49 124 -64 b 3 -200 49 -118 20 -157 l 23 -213 b 163 -182 62 -184 115 -172 b 270 -255 206 -191 246 -218 l 527 -74 b 562 -51 538 -66 550 -58 b 597 -29 574 -45 587 -38 b 620 8 608 -19 616 -6 b 619 49 623 21 623 35 b 602 86 616 62 609 74 b 586 138 594 103 589 120 b 582 193 583 156 582 175 b 582 546 582 310 582 428 l 649 600 l 624 630 l 565 582 l 383 719 l 70 539 l 70 140 l 270 0 z "},"":{"ha":1121,"x_min":0,"x_max":0,"o":"m 612 1171 b 484 1265 561 1188 515 1222 l 578 1349 b 627 1303 591 1330 608 1315 b 702 1277 650 1289 676 1280 b 781 1279 728 1273 755 1273 b 819 1296 794 1282 807 1288 b 849 1331 832 1305 842 1317 l 884 1314 b 845 1247 874 1290 860 1268 b 770 1182 824 1221 799 1198 b 692 1160 746 1169 719 1162 b 612 1171 665 1159 638 1163 z m 366 312 b 347 287 360 303 354 294 b 323 391 336 321 329 356 b 304 589 311 456 305 523 b 334 778 303 653 308 719 b 395 865 348 811 369 841 b 395 470 395 733 395 602 b 391 388 395 443 395 415 b 366 312 388 362 380 335 z m 900 280 b 843 115 899 221 879 162 b 697 23 807 69 754 35 b 688 21 694 22 691 22 b 688 191 688 78 688 135 l 900 298 b 900 280 900 292 900 286 z m 688 337 l 866 427 b 895 340 880 400 890 370 l 688 236 z m 688 382 b 688 587 688 450 688 518 b 828 486 742 566 791 531 b 846 461 834 478 840 470 z m 648 18 b 509 57 600 18 551 32 b 381 201 453 91 410 143 b 371 222 377 208 374 215 b 410 235 384 226 398 230 b 515 304 450 251 486 274 b 563 384 537 327 554 354 b 574 476 573 413 574 445 l 574 500 l 648 573 b 648 18 648 388 648 203 z m 574 943 b 584 944 578 944 581 944 b 587 945 585 945 586 945 b 697 872 622 919 659 895 b 826 805 739 848 782 825 l 574 556 l 574 668 z m 810 734 l 1041 962 l 1013 990 l 967 945 b 865 990 932 958 898 972 b 724 1081 815 1015 767 1046 l 588 973 b 240 790 455 958 327 892 b 112 468 163 701 116 586 b 195 175 108 365 137 261 b 437 -8 252 90 339 24 b 681 -26 515 -34 600 -40 b 905 72 762 -11 839 22 b 1061 290 977 127 1034 203 b 1029 577 1090 385 1080 492 b 810 734 982 656 901 715 z "},"":{"ha":678,"x_min":0,"x_max":0,"o":"m 331 815 b 203 910 280 832 235 866 l 297 993 b 347 947 311 975 328 959 b 421 921 369 933 395 925 b 500 923 447 917 474 917 b 538 940 514 927 527 932 b 568 975 551 949 562 961 l 604 958 b 564 892 593 935 580 912 b 489 826 544 865 519 842 b 411 805 465 814 438 806 b 331 815 384 803 357 807 z m 395 127 l 236 226 l 236 592 l 396 485 l 395 142 b 395 127 395 137 395 132 z m 398 88 b 398 86 398 88 398 87 b 415 33 401 68 407 50 b 441 -25 423 13 434 -5 b 447 -55 444 -35 447 -45 b 441 -86 447 -66 446 -76 b 423 -109 437 -95 431 -103 b 396 -120 415 -115 406 -119 b 216 -47 350 -72 283 -45 b 87 -91 170 -49 124 -64 b 3 -200 49 -118 20 -157 l 23 -213 b 163 -182 62 -184 115 -172 b 270 -255 206 -191 246 -218 l 527 -74 b 562 -51 538 -66 550 -58 b 597 -29 574 -45 587 -38 b 620 8 608 -19 616 -6 b 619 49 623 21 623 35 b 602 86 616 62 609 74 b 586 138 594 103 589 120 b 582 193 583 156 582 175 b 582 546 582 310 582 428 l 649 600 l 624 630 l 565 582 l 383 719 l 70 539 l 70 140 l 270 0 z "},"":{"ha":1121,"x_min":0,"x_max":0,"o":"m 567 1319 l 694 1192 l 819 1317 l 692 1443 z m 366 312 b 347 287 360 303 354 294 b 323 391 336 321 329 356 b 304 589 311 456 305 523 b 334 778 303 653 308 719 b 395 865 348 811 369 841 b 395 470 395 733 395 602 b 391 388 395 443 395 415 b 366 312 388 362 380 335 z m 900 280 b 843 115 899 221 879 162 b 697 23 807 69 754 35 b 688 21 694 22 691 22 b 688 191 688 78 688 135 l 900 298 b 900 280 900 292 900 286 z m 688 337 l 866 427 b 895 340 880 400 890 370 l 688 236 z m 688 382 b 688 587 688 450 688 518 b 828 486 742 566 791 531 b 846 461 834 478 840 470 z m 648 18 b 509 57 600 18 551 32 b 381 201 453 91 410 143 b 371 222 377 208 374 215 b 410 235 384 226 398 230 b 515 304 450 251 486 274 b 563 384 537 327 554 354 b 574 476 573 413 574 445 l 574 500 l 648 573 b 648 18 648 388 648 203 z m 574 943 b 584 944 578 944 581 944 b 587 945 585 945 586 945 b 697 872 622 919 659 895 b 826 805 739 848 782 825 l 574 556 l 574 668 z m 810 734 l 1041 962 l 1013 990 l 967 945 b 865 990 932 958 898 972 b 724 1081 815 1015 767 1046 l 588 973 b 240 790 455 958 327 892 b 112 468 163 701 116 586 b 195 175 108 365 137 261 b 437 -8 252 90 339 24 b 681 -26 515 -34 600 -40 b 905 72 762 -11 839 22 b 1061 290 977 127 1034 203 b 1029 577 1090 385 1080 492 b 810 734 982 656 901 715 z "},"":{"ha":678,"x_min":0,"x_max":0,"o":"m 286 963 l 413 836 l 538 961 l 411 1088 z m 395 127 l 236 226 l 236 592 l 396 485 l 395 142 b 395 127 395 137 395 132 z m 398 88 b 398 86 398 88 398 87 b 415 33 401 68 407 50 b 441 -25 423 13 434 -5 b 447 -55 444 -35 447 -45 b 441 -86 447 -66 446 -76 b 423 -109 437 -95 431 -103 b 396 -120 415 -115 406 -119 b 216 -47 350 -72 283 -45 b 87 -91 170 -49 124 -64 b 3 -200 49 -118 20 -157 l 23 -213 b 163 -182 62 -184 115 -172 b 270 -255 206 -191 246 -218 l 527 -74 b 562 -51 538 -66 550 -58 b 597 -29 574 -45 587 -38 b 620 8 608 -19 616 -6 b 619 49 623 21 623 35 b 602 86 616 62 609 74 b 586 138 594 103 589 120 b 582 193 583 156 582 175 b 582 546 582 310 582 428 l 649 600 l 624 630 l 565 582 l 383 719 l 70 539 l 70 140 l 270 0 z "},"":{"ha":1121,"x_min":0,"x_max":0,"o":"m 528 -346 b 657 -270 574 -324 619 -299 b 713 -216 679 -254 698 -236 b 738 -152 728 -196 737 -174 b 711 -74 740 -124 730 -97 b 656 -29 697 -57 678 -41 b 681 -26 664 -28 673 -27 b 905 72 762 -11 839 22 b 1061 290 977 127 1034 203 b 1029 577 1090 385 1080 492 b 810 734 982 656 901 715 l 1041 962 l 1013 990 l 967 945 b 865 990 932 958 898 972 b 724 1081 815 1015 767 1046 l 588 973 b 240 790 455 958 327 892 b 112 468 163 701 116 586 b 195 175 108 365 137 261 b 437 -8 252 90 339 24 b 606 -33 491 -26 549 -35 l 486 -90 b 592 -154 531 -100 570 -124 b 609 -253 615 -184 621 -220 b 519 -336 596 -288 563 -318 z m 366 312 b 347 287 360 303 354 294 b 323 391 336 321 329 356 b 304 589 311 456 305 523 b 334 778 303 653 308 719 b 395 865 348 811 369 841 b 395 470 395 733 395 602 b 391 388 395 443 395 415 b 366 312 388 362 380 335 z m 900 280 b 843 115 899 221 879 162 b 697 23 807 69 754 35 b 688 21 694 22 691 22 b 688 191 688 78 688 135 l 900 298 b 900 280 900 292 900 286 z m 688 337 l 866 427 b 895 340 880 400 890 370 l 688 236 z m 688 382 b 688 587 688 450 688 518 b 828 486 742 566 791 531 b 846 461 834 478 840 470 z m 648 18 b 509 57 600 18 551 32 b 381 201 453 91 410 143 b 371 222 377 208 374 215 b 410 235 384 226 398 230 b 515 304 450 251 486 274 b 563 384 537 327 554 354 b 574 476 573 413 574 445 l 574 500 l 648 573 b 648 18 648 388 648 203 z m 574 943 b 584 944 578 944 581 944 b 587 945 585 945 586 945 b 697 872 622 919 659 895 b 826 805 739 848 782 825 l 574 556 l 574 668 z "},"":{"ha":678,"x_min":0,"x_max":0,"o":"m 225 -529 b 354 -453 272 -507 316 -482 b 410 -399 376 -437 396 -419 b 436 -335 425 -380 434 -358 b 408 -257 437 -308 427 -280 b 340 -206 391 -236 368 -219 l 527 -74 b 562 -51 538 -66 550 -58 b 597 -29 574 -45 587 -38 b 620 8 608 -19 616 -6 b 619 49 623 21 623 35 b 602 86 616 62 609 74 b 586 138 594 103 589 120 b 582 193 583 156 582 175 b 582 546 582 310 582 428 l 649 600 l 624 630 l 565 582 l 383 719 l 70 539 l 70 140 l 270 0 l 398 88 b 398 86 398 88 398 87 b 415 33 401 68 407 50 b 441 -25 423 13 434 -5 b 447 -55 444 -35 447 -45 b 441 -86 447 -66 446 -76 b 423 -109 437 -95 431 -103 b 396 -120 415 -115 406 -119 b 216 -47 350 -72 283 -45 b 87 -91 170 -49 124 -64 b 3 -200 49 -118 20 -157 l 23 -213 b 163 -182 62 -184 115 -172 b 257 -238 199 -190 233 -210 l 183 -273 b 289 -337 228 -284 267 -307 b 306 -436 312 -367 318 -403 b 216 -519 293 -471 260 -502 z m 395 127 l 236 226 l 236 592 l 396 485 l 395 142 b 395 127 395 137 395 132 z "},"":{"ha":1083,"x_min":0,"x_max":0,"o":"m 477 1039 z m 360 817 z m 374 1175 l 516 1316 l 667 1175 l 769 1285 l 597 1445 l 349 1201 z m 99 857 b 136 894 108 872 121 885 b 185 912 151 903 168 909 b 223 913 198 913 210 914 b 302 904 249 912 275 906 b 381 906 328 901 355 900 b 480 955 417 913 451 931 b 560 1035 509 979 534 1008 b 576 1053 565 1041 571 1047 l 549 1067 b 477 1039 527 1053 502 1044 b 397 1039 450 1035 423 1036 b 317 1047 370 1041 344 1046 b 244 1044 293 1049 268 1049 b 177 1016 220 1039 197 1030 b 107 944 149 998 126 972 b 73 870 93 921 81 896 z m 220 199 l 220 165 b 374 216 275 170 328 186 b 455 304 408 238 438 268 b 472 362 463 322 469 342 b 475 422 475 382 475 402 l 475 624 l 475 732 b 488 851 475 772 475 813 b 514 904 494 870 503 888 b 538 934 521 915 530 925 b 538 148 538 672 538 410 b 282 147 456 176 364 176 b 63 -48 187 114 107 42 l 105 -48 b 316 38 159 9 238 41 b 462 -12 368 35 419 18 l 600 120 b 578 132 593 124 586 128 b 578 476 578 247 578 361 l 768 476 l 768 168 l 697 113 l 712 92 l 746 118 l 881 -4 l 1065 151 l 1045 171 l 1001 135 l 962 179 l 962 931 l 1014 974 l 990 1004 l 949 971 l 844 1057 l 683 926 l 684 888 l 731 924 l 769 889 l 769 639 l 578 639 b 578 976 578 751 578 863 l 538 976 l 503 935 b 436 872 482 912 461 890 b 361 818 411 853 385 837 b 308 752 339 800 320 778 b 296 668 297 726 296 696 l 296 633 b 216 613 268 629 241 624 b 166 573 197 603 179 590 b 139 515 153 556 143 536 b 156 399 130 476 136 434 l 182 399 b 183 429 181 409 181 419 b 213 469 187 445 198 460 b 237 478 220 473 228 476 b 262 479 245 479 254 479 l 296 479 b 296 475 296 478 296 477 b 297 353 296 435 298 394 b 290 293 297 333 295 313 b 265 238 285 273 277 254 b 220 199 253 222 238 208 z "},"":{"ha":733,"x_min":0,"x_max":0,"o":"m 245 1148 l 387 1289 l 537 1148 l 639 1258 l 467 1418 l 220 1173 z m 317 166 l 317 508 l 394 581 l 477 512 l 477 179 b 458 12 477 123 476 65 b 405 -77 447 -21 430 -52 b 324 -120 382 -98 354 -114 l 324 -153 b 490 -130 380 -162 438 -154 b 610 -26 539 -108 582 -71 b 650 80 630 7 643 43 b 657 193 656 117 657 155 l 657 555 l 716 603 l 692 634 l 637 589 l 490 712 l 317 550 l 317 1065 l 290 1065 l 64 905 l 64 885 b 96 872 75 882 86 878 b 121 852 106 867 115 860 b 129 833 125 846 128 839 b 131 812 131 826 131 819 l 131 179 l 37 120 l 61 88 l 114 121 l 257 0 l 430 120 l 405 151 l 362 121 z "},"":{"ha":854,"x_min":0,"x_max":0,"o":"m 292 1188 b 327 1216 303 1199 315 1208 b 366 1233 340 1223 352 1229 b 461 1230 397 1242 430 1239 b 552 1199 492 1221 522 1208 b 632 1188 578 1191 605 1187 b 710 1210 659 1190 686 1197 b 787 1275 740 1225 766 1248 b 825 1342 802 1295 815 1318 l 789 1359 b 759 1324 782 1345 772 1333 b 721 1307 748 1315 735 1310 b 643 1309 696 1301 669 1303 b 568 1331 618 1314 593 1323 b 472 1351 536 1340 505 1350 b 377 1330 439 1352 406 1346 b 300 1265 348 1314 322 1291 b 257 1205 284 1246 270 1226 z m 156 534 b 153 502 154 523 153 513 b 174 420 153 473 160 445 l 200 420 b 201 455 198 431 198 444 b 230 497 205 472 215 488 b 254 507 237 502 245 505 b 280 508 262 508 271 508 b 331 508 297 508 314 508 b 331 409 331 475 331 442 b 327 337 331 385 331 361 b 305 268 324 313 317 289 b 244 208 291 243 270 222 l 290 208 b 413 262 333 221 375 238 b 489 339 444 281 472 306 b 506 390 498 355 503 372 b 510 445 509 408 510 427 l 510 552 l 510 749 b 533 881 510 794 514 840 b 583 948 544 907 562 930 b 651 1000 605 967 629 982 b 705 1059 672 1017 690 1037 l 707 1096 b 653 1062 692 1081 673 1070 b 567 1052 626 1052 596 1049 b 466 1073 532 1055 499 1065 b 363 1085 432 1082 398 1088 b 239 1033 318 1081 274 1061 b 131 885 191 994 155 942 l 164 885 b 206 930 172 904 187 921 b 261 940 223 938 242 941 b 348 928 291 940 319 933 b 436 921 377 924 407 920 b 528 936 467 921 498 927 b 417 849 491 907 454 877 b 351 785 392 830 367 811 b 334 743 343 772 337 758 b 331 697 331 727 331 712 l 331 660 b 234 636 297 655 264 650 b 183 594 214 626 196 612 b 156 534 169 576 161 555 z m 215 -117 l 215 -139 b 124 -102 182 -136 150 -123 b 69 -20 98 -81 78 -52 b 86 108 56 22 63 70 b 193 180 109 145 150 171 b 333 163 240 189 289 179 b 465 108 378 147 421 125 b 547 81 492 97 519 88 b 580 117 562 88 574 101 b 588 167 587 133 588 150 l 588 748 b 593 831 588 776 588 804 b 623 909 598 859 608 885 b 745 1021 652 956 699 990 l 826 1075 l 847 1052 b 794 986 823 1037 804 1013 b 783 901 784 959 783 930 l 783 325 b 676 175 752 272 716 222 b 492 4 622 111 560 54 b 459 -16 481 -3 471 -10 b 422 -26 447 -21 435 -24 b 346 -22 397 -29 371 -25 l 218 -5 b 192 -4 209 -4 201 -3 b 168 -13 183 -5 175 -8 b 151 -33 160 -18 155 -25 b 147 -58 148 -41 146 -50 b 170 -100 149 -75 157 -90 b 215 -117 183 -111 199 -117 z "},"":{"ha":474,"x_min":0,"x_max":0,"o":"m -55 782 b -20 810 -44 793 -33 803 b 18 827 -8 818 5 824 b 114 825 50 836 83 833 b 205 793 145 816 174 802 b 285 783 231 786 258 781 b 363 804 312 784 339 792 b 439 869 392 819 418 842 b 478 936 455 890 468 912 l 442 953 b 412 918 435 939 425 927 b 374 901 401 910 388 904 b 296 903 348 895 322 898 b 221 925 271 909 246 917 b 125 945 189 935 157 944 b 30 924 92 947 59 940 b -47 859 0 909 -25 885 b -91 799 -63 840 -77 820 z m 420 159 l 360 120 l 314 166 l 314 586 l 207 712 l 21 586 l 41 559 l 94 592 l 141 532 l 141 166 l 54 106 l 74 80 l 121 113 l 254 -7 l 454 133 z "},"":{"ha":854,"x_min":0,"x_max":0,"o":"m 366 1228 l 746 1227 l 746 1375 l 366 1377 z m 156 534 b 153 502 154 523 153 513 b 174 420 153 473 160 445 l 200 420 b 201 455 198 431 198 444 b 230 497 205 472 215 488 b 254 507 237 502 245 505 b 280 508 262 508 271 508 b 331 508 297 508 314 508 b 331 409 331 475 331 442 b 327 337 331 385 331 361 b 305 268 324 313 317 289 b 244 208 291 243 270 222 l 290 208 b 413 262 333 221 375 238 b 489 339 444 281 472 306 b 506 390 498 355 503 372 b 510 445 509 408 510 427 l 510 552 l 510 749 b 533 881 510 794 514 840 b 583 948 544 907 562 930 b 651 1000 605 967 629 982 b 705 1059 672 1017 690 1037 l 707 1096 b 653 1062 692 1081 673 1070 b 567 1052 626 1052 596 1049 b 466 1073 532 1055 499 1065 b 363 1085 432 1082 398 1088 b 239 1033 318 1081 274 1061 b 131 885 191 994 155 942 l 164 885 b 206 930 172 904 187 921 b 261 940 223 938 242 941 b 348 928 291 940 319 933 b 436 921 377 924 407 920 b 528 936 467 921 498 927 b 417 849 491 907 454 877 b 351 785 392 830 367 811 b 334 743 343 772 337 758 b 331 697 331 727 331 712 l 331 660 b 234 636 297 655 264 650 b 183 594 214 626 196 612 b 156 534 169 576 161 555 z m 215 -117 l 215 -139 b 124 -102 182 -136 150 -123 b 69 -20 98 -81 78 -52 b 86 108 56 22 63 70 b 193 180 109 145 150 171 b 333 163 240 189 289 179 b 465 108 378 147 421 125 b 547 81 492 97 519 88 b 580 117 562 88 574 101 b 588 167 587 133 588 150 l 588 748 b 593 831 588 776 588 804 b 623 909 598 859 608 885 b 745 1021 652 956 699 990 l 826 1075 l 847 1052 b 794 986 823 1037 804 1013 b 783 901 784 959 783 930 l 783 325 b 676 175 752 272 716 222 b 492 4 622 111 560 54 b 459 -16 481 -3 471 -10 b 422 -26 447 -21 435 -24 b 346 -22 397 -29 371 -25 l 218 -5 b 192 -4 209 -4 201 -3 b 168 -13 183 -5 175 -8 b 151 -33 160 -18 155 -25 b 147 -58 148 -41 146 -50 b 170 -100 149 -75 157 -90 b 215 -117 183 -111 199 -117 z "},"":{"ha":474,"x_min":0,"x_max":0,"o":"m 19 823 l 398 821 l 398 970 l 19 971 z m 420 159 l 360 120 l 314 166 l 314 586 l 207 712 l 21 586 l 41 559 l 94 592 l 141 532 l 141 166 l 54 106 l 74 80 l 121 113 l 254 -7 l 454 133 z "},"":{"ha":854,"x_min":0,"x_max":0,"o":"m 463 1210 b 334 1304 412 1227 366 1261 l 429 1388 b 478 1342 442 1369 459 1353 b 553 1315 501 1328 526 1319 b 632 1318 579 1311 606 1311 b 670 1335 645 1321 658 1327 b 700 1370 683 1344 693 1356 l 735 1353 b 696 1286 725 1329 711 1307 b 620 1221 675 1260 650 1236 b 543 1199 597 1208 570 1201 b 463 1210 516 1197 489 1201 z m 156 534 b 153 502 154 523 153 513 b 174 420 153 473 160 445 l 200 420 b 201 455 198 431 198 444 b 230 497 205 472 215 488 b 254 507 237 502 245 505 b 280 508 262 508 271 508 b 331 508 297 508 314 508 b 331 409 331 475 331 442 b 327 337 331 385 331 361 b 305 268 324 313 317 289 b 244 208 291 243 270 222 l 290 208 b 413 262 333 221 375 238 b 489 339 444 281 472 306 b 506 390 498 355 503 372 b 510 445 509 408 510 427 l 510 552 l 510 749 b 533 881 510 794 514 840 b 583 948 544 907 562 930 b 651 1000 605 967 629 982 b 705 1059 672 1017 690 1037 l 707 1096 b 653 1062 692 1081 673 1070 b 567 1052 626 1052 596 1049 b 466 1073 532 1055 499 1065 b 363 1085 432 1082 398 1088 b 239 1033 318 1081 274 1061 b 131 885 191 994 155 942 l 164 885 b 206 930 172 904 187 921 b 261 940 223 938 242 941 b 348 928 291 940 319 933 b 436 921 377 924 407 920 b 528 936 467 921 498 927 b 417 849 491 907 454 877 b 351 785 392 830 367 811 b 334 743 343 772 337 758 b 331 697 331 727 331 712 l 331 660 b 234 636 297 655 264 650 b 183 594 214 626 196 612 b 156 534 169 576 161 555 z m 215 -117 l 215 -139 b 124 -102 182 -136 150 -123 b 69 -20 98 -81 78 -52 b 86 108 56 22 63 70 b 193 180 109 145 150 171 b 333 163 240 189 289 179 b 465 108 378 147 421 125 b 547 81 492 97 519 88 b 580 117 562 88 574 101 b 588 167 587 133 588 150 l 588 748 b 593 831 588 776 588 804 b 623 909 598 859 608 885 b 745 1021 652 956 699 990 l 826 1075 l 847 1052 b 794 986 823 1037 804 1013 b 783 901 784 959 783 930 l 783 325 b 676 175 752 272 716 222 b 492 4 622 111 560 54 b 459 -16 481 -3 471 -10 b 422 -26 447 -21 435 -24 b 346 -22 397 -29 371 -25 l 218 -5 b 192 -4 209 -4 201 -3 b 168 -13 183 -5 175 -8 b 151 -33 160 -18 155 -25 b 147 -58 148 -41 146 -50 b 170 -100 149 -75 157 -90 b 215 -117 183 -111 199 -117 z "},"":{"ha":474,"x_min":0,"x_max":0,"o":"m 116 804 b -13 899 64 821 19 855 l 82 982 b 131 936 95 964 112 948 b 205 910 154 922 179 914 b 284 912 232 906 259 906 b 323 929 298 916 311 921 b 352 964 335 938 346 950 l 388 947 b 348 881 377 924 364 901 b 273 815 328 854 303 831 b 196 794 249 803 223 795 b 116 804 169 792 141 796 z m 420 159 l 360 120 l 314 166 l 314 586 l 207 712 l 21 586 l 41 559 l 94 592 l 141 532 l 141 166 l 54 106 l 74 80 l 121 113 l 254 -7 l 454 133 z "},"":{"ha":854,"x_min":0,"x_max":0,"o":"m 300 -575 l 309 -561 b 220 -447 265 -537 232 -495 b 236 -310 207 -401 213 -351 b 342 -222 258 -268 297 -236 l 215 -139 l 215 -139 b 180 -132 203 -138 191 -135 b 117 -199 155 -150 133 -173 b 90 -307 98 -232 88 -269 b 115 -396 91 -338 100 -368 b 171 -470 130 -423 149 -448 b 300 -575 209 -510 254 -545 z m 156 534 b 153 502 154 523 153 513 b 174 420 153 473 160 445 l 200 420 b 201 455 198 431 198 444 b 230 497 205 472 215 488 b 254 507 237 502 245 505 b 280 508 262 508 271 508 b 331 508 297 508 314 508 b 331 409 331 475 331 442 b 327 337 331 385 331 361 b 305 268 324 313 317 289 b 244 208 291 243 270 222 l 290 208 b 413 262 333 221 375 238 b 489 339 444 281 472 306 b 506 390 498 355 503 372 b 510 445 509 408 510 427 l 510 552 l 510 749 b 533 881 510 794 514 840 b 583 948 544 907 562 930 b 651 1000 605 967 629 982 b 705 1059 672 1017 690 1037 l 707 1096 b 653 1062 692 1081 673 1070 b 567 1052 626 1052 596 1049 b 466 1073 532 1055 499 1065 b 363 1085 432 1082 398 1088 b 239 1033 318 1081 274 1061 b 131 885 191 994 155 942 l 164 885 b 206 930 172 904 187 921 b 261 940 223 938 242 941 b 348 928 291 940 319 933 b 436 921 377 924 407 920 b 528 936 467 921 498 927 b 417 849 491 907 454 877 b 351 785 392 830 367 811 b 334 743 343 772 337 758 b 331 697 331 727 331 712 l 331 660 b 234 636 297 655 264 650 b 183 594 214 626 196 612 b 156 534 169 576 161 555 z m 215 -117 l 215 -139 l 192 -124 b 180 -132 188 -126 184 -129 b 124 -102 159 -126 140 -116 b 69 -20 98 -81 78 -52 b 86 108 56 22 63 70 b 193 180 109 145 150 171 b 333 163 240 189 289 179 b 465 108 378 147 421 125 b 547 81 492 97 519 88 b 580 117 562 88 574 101 b 588 167 587 133 588 150 l 588 748 b 593 831 588 776 588 804 b 623 909 598 859 608 885 b 745 1021 652 956 699 990 l 826 1075 l 847 1052 b 794 986 823 1037 804 1013 b 783 901 784 959 783 930 l 783 325 b 676 175 752 272 716 222 b 492 4 622 111 560 54 b 459 -16 481 -3 471 -10 b 422 -26 447 -21 435 -24 b 346 -22 397 -29 371 -25 l 218 -5 b 192 -4 209 -4 201 -3 b 168 -13 183 -5 175 -8 b 151 -33 160 -18 155 -25 b 147 -58 148 -41 146 -50 b 170 -100 149 -75 157 -90 b 215 -117 183 -111 199 -117 z "},"":{"ha":433,"x_min":0,"x_max":0,"o":"m 363 -444 l 372 -429 b 283 -315 329 -405 296 -363 b 299 -178 271 -269 277 -219 b 405 -90 322 -137 361 -104 l 272 -3 l 466 133 l 433 159 l 373 120 l 326 166 l 326 586 l 220 712 l 33 586 l 53 559 l 106 592 l 153 532 l 153 166 l 67 106 l 86 80 l 133 113 l 252 6 b 181 -68 223 -13 198 -38 b 153 -175 162 -100 151 -138 b 178 -264 154 -206 164 -237 b 234 -338 193 -291 213 -316 b 363 -444 273 -379 317 -413 z m 109 899 l 227 765 l 360 881 l 241 1016 z "},"":{"ha":854,"x_min":0,"x_max":0,"o":"m 418 1357 l 545 1231 l 670 1355 l 543 1482 z m 156 534 b 153 502 154 523 153 513 b 174 420 153 473 160 445 l 200 420 b 201 455 198 431 198 444 b 230 497 205 472 215 488 b 254 507 237 502 245 505 b 280 508 262 508 271 508 b 331 508 297 508 314 508 b 331 409 331 475 331 442 b 327 337 331 385 331 361 b 305 268 324 313 317 289 b 244 208 291 243 270 222 l 290 208 b 413 262 333 221 375 238 b 489 339 444 281 472 306 b 506 390 498 355 503 372 b 510 445 509 408 510 427 l 510 552 l 510 749 b 533 881 510 794 514 840 b 583 948 544 907 562 930 b 651 1000 605 967 629 982 b 705 1059 672 1017 690 1037 l 707 1096 b 653 1062 692 1081 673 1070 b 567 1052 626 1052 596 1049 b 466 1073 532 1055 499 1065 b 363 1085 432 1082 398 1088 b 239 1033 318 1081 274 1061 b 131 885 191 994 155 942 l 164 885 b 206 930 172 904 187 921 b 261 940 223 938 242 941 b 348 928 291 940 319 933 b 436 921 377 924 407 920 b 528 936 467 921 498 927 b 417 849 491 907 454 877 b 351 785 392 830 367 811 b 334 743 343 772 337 758 b 331 697 331 727 331 712 l 331 660 b 234 636 297 655 264 650 b 183 594 214 626 196 612 b 156 534 169 576 161 555 z m 215 -117 l 215 -139 b 124 -102 182 -136 150 -123 b 69 -20 98 -81 78 -52 b 86 108 56 22 63 70 b 193 180 109 145 150 171 b 333 163 240 189 289 179 b 465 108 378 147 421 125 b 547 81 492 97 519 88 b 580 117 562 88 574 101 b 588 167 587 133 588 150 l 588 748 b 593 831 588 776 588 804 b 623 909 598 859 608 885 b 745 1021 652 956 699 990 l 826 1075 l 847 1052 b 794 986 823 1037 804 1013 b 783 901 784 959 783 930 l 783 325 b 676 175 752 272 716 222 b 492 4 622 111 560 54 b 459 -16 481 -3 471 -10 b 422 -26 447 -21 435 -24 b 346 -22 397 -29 371 -25 l 218 -5 b 192 -4 209 -4 201 -3 b 168 -13 183 -5 175 -8 b 151 -33 160 -18 155 -25 b 147 -58 148 -41 146 -50 b 170 -100 149 -75 157 -90 b 215 -117 183 -111 199 -117 z "},"":{"ha":474,"x_min":0,"x_max":0,"o":"m 420 159 l 360 120 l 314 166 l 314 586 l 207 712 l 21 586 l 41 559 l 94 592 l 141 532 l 141 166 l 54 106 l 74 80 l 121 113 l 254 -7 l 454 133 z "},"":{"ha":1653,"x_min":0,"x_max":0,"o":"m 1052 377 l 1079 377 b 1080 407 1077 387 1077 398 b 1109 448 1084 424 1094 439 b 1133 456 1116 452 1125 455 b 1158 458 1141 458 1150 458 b 1193 458 1170 458 1181 458 l 1193 69 b 1188 34 1193 58 1192 45 b 1169 5 1184 23 1178 13 b 1126 -19 1157 -7 1142 -15 l 1126 -65 b 1314 25 1195 -50 1262 -22 b 1364 96 1335 45 1354 69 b 1376 183 1375 124 1376 154 l 1376 782 b 1394 888 1376 818 1379 855 b 1458 975 1408 922 1432 950 b 1564 1061 1491 1006 1527 1034 l 1533 1090 b 1398 1041 1494 1060 1446 1043 b 1270 1057 1355 1039 1312 1047 b 1143 1079 1228 1067 1186 1078 b 1006 1042 1095 1081 1045 1070 b 930 924 966 1015 938 971 b 952 804 923 883 931 840 b 1046 726 973 768 1007 740 l 1051 738 b 1013 769 1035 743 1021 755 b 1004 818 1004 784 1001 801 b 1040 873 1008 840 1022 860 b 1104 896 1059 886 1081 893 b 1262 887 1156 902 1209 889 b 1359 894 1295 886 1327 888 b 1226 776 1311 859 1262 823 b 1199 725 1215 761 1205 744 b 1193 668 1194 707 1193 687 l 1193 612 b 1113 591 1165 608 1138 603 b 1062 552 1093 582 1076 568 b 1035 494 1049 535 1040 515 b 1052 377 1026 455 1033 412 z m 1678 1046 b 1629 916 1654 1006 1638 961 b 1619 776 1620 870 1619 823 l 1619 365 b 1587 131 1619 286 1616 205 b 1440 -52 1558 57 1506 -8 b 1254 -125 1384 -90 1320 -114 b 1014 -96 1173 -139 1087 -133 b 922 -17 977 -78 945 -51 b 893 100 899 17 888 59 b 932 180 897 130 910 159 b 1013 215 953 201 983 214 b 1089 184 1041 215 1069 204 b 1120 109 1109 165 1121 137 b 1107 62 1120 93 1115 76 b 1073 26 1099 47 1087 35 b 978 21 1045 9 1008 7 b 1112 -91 1003 -34 1054 -76 b 1232 -91 1151 -102 1193 -101 b 1339 -35 1271 -81 1308 -61 b 1418 76 1374 -6 1402 33 b 1436 212 1434 119 1436 166 l 1436 662 b 1442 794 1436 706 1435 751 b 1489 916 1449 838 1464 880 b 1631 1042 1525 968 1580 1004 b 1660 1063 1641 1049 1651 1056 z m 156 534 b 153 502 154 523 153 513 b 174 420 153 473 160 445 l 200 420 b 201 455 198 431 198 444 b 230 497 205 472 215 488 b 254 507 237 502 245 505 b 280 508 262 508 271 508 b 331 508 297 508 314 508 b 331 409 331 475 331 442 b 327 337 331 385 331 361 b 305 268 324 313 317 289 b 244 208 291 243 270 222 l 290 208 b 413 262 333 221 375 238 b 489 339 444 281 472 306 b 506 390 498 355 503 372 b 510 445 509 408 510 427 l 510 552 l 510 749 b 533 881 510 794 514 840 b 583 948 544 907 562 930 b 651 1000 605 967 629 982 b 705 1059 672 1017 690 1037 l 707 1096 b 653 1062 692 1081 673 1070 b 567 1052 626 1052 596 1049 b 466 1073 532 1055 499 1065 b 363 1085 432 1082 398 1088 b 239 1033 318 1081 274 1061 b 131 885 191 994 155 942 l 164 885 b 206 930 172 904 187 921 b 261 940 223 938 242 941 b 348 928 291 940 319 933 b 436 921 377 924 407 920 b 528 936 467 921 498 927 b 417 849 491 907 454 877 b 351 785 392 830 367 811 b 334 743 343 772 337 758 b 331 697 331 727 331 712 l 331 660 b 234 636 297 655 264 650 b 183 594 214 626 196 612 b 156 534 169 576 161 555 z m 215 -117 l 215 -139 b 124 -102 182 -136 150 -123 b 69 -20 98 -81 78 -52 b 86 108 56 22 63 70 b 193 180 109 145 150 171 b 333 163 240 189 289 179 b 465 108 378 147 421 125 b 547 81 492 97 519 88 b 580 117 562 88 574 101 b 588 167 587 133 588 150 l 588 748 b 593 831 588 776 588 804 b 623 909 598 859 608 885 b 745 1021 652 956 699 990 l 826 1075 l 847 1052 b 794 986 823 1037 804 1013 b 783 901 784 959 783 930 l 783 325 b 676 175 752 272 716 222 b 492 4 622 111 560 54 b 459 -16 481 -3 471 -10 b 422 -26 447 -21 435 -24 b 346 -22 397 -29 371 -25 l 218 -5 b 192 -4 209 -4 201 -3 b 168 -13 183 -5 175 -8 b 151 -33 160 -18 155 -25 b 147 -58 148 -41 146 -50 b 170 -100 149 -75 157 -90 b 215 -117 183 -111 199 -117 z "},"":{"ha":865,"x_min":0,"x_max":0,"o":"m 742 166 l 742 566 l 799 613 l 775 643 l 727 603 l 635 712 l 449 586 l 469 559 l 522 592 l 568 532 l 568 166 l 568 57 b 568 -81 568 11 572 -35 b 550 -148 565 -104 561 -127 b 504 -198 540 -169 524 -187 b 461 -210 490 -205 476 -209 l 461 -249 b 591 -221 505 -250 551 -241 b 692 -135 631 -202 667 -172 b 729 -53 709 -110 722 -82 b 738 36 736 -24 738 6 z m 524 899 l 642 765 l 775 881 l 657 1016 z m 433 159 l 373 120 l 326 166 l 326 586 l 220 712 l 33 586 l 53 559 l 106 592 l 153 532 l 153 166 l 67 106 l 86 80 l 133 113 l 266 -7 l 466 133 z m 109 899 l 227 765 l 360 881 l 241 1016 z "},"":{"ha":863,"x_min":0,"x_max":0,"o":"m 282 1169 l 423 1309 l 574 1169 l 676 1279 l 504 1439 l 257 1194 z m 226 377 l 253 377 b 253 407 251 387 251 398 b 283 448 258 424 268 439 b 307 456 290 452 298 455 b 332 458 315 458 324 458 b 367 458 344 458 355 458 l 367 69 b 362 34 367 58 366 45 b 343 5 358 23 351 13 b 300 -19 331 -7 316 -15 l 300 -65 b 487 25 368 -50 436 -22 b 538 96 509 45 527 69 b 550 183 548 124 550 154 l 550 782 b 567 888 550 818 553 855 b 632 975 582 922 606 950 b 737 1061 665 1006 701 1034 l 706 1090 b 571 1041 668 1060 620 1043 b 444 1057 528 1039 486 1047 b 317 1079 402 1067 360 1078 b 179 1042 268 1081 219 1070 b 103 924 140 1015 111 971 b 125 804 96 883 104 840 b 219 726 146 768 180 740 l 225 738 b 186 769 209 743 195 755 b 178 818 178 784 175 801 b 214 873 181 840 195 860 b 277 896 232 886 255 893 b 436 887 330 902 383 889 b 532 894 468 886 501 888 b 400 776 485 859 436 823 b 373 725 388 761 379 744 b 367 668 367 707 367 687 l 367 612 b 286 591 339 608 311 603 b 236 552 267 582 249 568 b 209 494 223 535 213 515 b 226 377 200 455 206 412 z m 851 1046 b 803 916 828 1006 811 961 b 793 776 794 870 793 823 l 793 365 b 761 131 793 286 789 205 b 614 -52 732 57 680 -8 b 428 -125 558 -90 494 -114 b 188 -96 347 -139 261 -133 b 96 -17 151 -78 118 -51 b 67 100 73 17 61 59 b 105 180 70 130 84 159 b 187 215 127 201 156 214 b 263 184 215 215 243 204 b 294 109 283 165 294 137 b 281 62 293 93 289 76 b 247 26 272 47 261 35 b 152 21 219 9 182 7 b 286 -91 177 -34 228 -76 b 406 -91 325 -102 366 -101 b 512 -35 445 -81 481 -61 b 591 76 548 -6 576 33 b 610 212 607 119 610 166 l 610 662 b 616 794 610 706 609 751 b 662 916 622 838 637 880 b 805 1042 699 968 754 1004 b 834 1063 815 1049 824 1056 z "},"":{"ha":392,"x_min":0,"x_max":0,"o":"m -2 758 l 140 898 l 291 758 l 393 868 l 220 1028 l -27 783 z m 314 166 l 314 566 l 372 613 l 347 643 l 299 603 l 207 712 l 21 586 l 41 559 l 94 592 l 141 532 l 141 166 l 141 57 b 140 -81 141 11 144 -35 b 122 -148 138 -104 133 -127 b 76 -198 112 -169 96 -187 b 33 -210 63 -205 48 -209 l 33 -249 b 163 -221 78 -250 123 -241 b 265 -135 204 -202 239 -172 b 301 -53 282 -110 294 -82 b 311 36 308 -24 310 6 z "}}}
